<svg version="1.1" xmlns="http://www.w3.org/2000/svg" xmlns:xlink="http://www.w3.org/1999/xlink" width="1151.47501" height="494.31709" viewBox="0,0,1151.47501,494.31709"><g transform="translate(166.5083,48.27291)"><g data-paper-data="{&quot;isPaintingLayer&quot;:true}" fill="none" fill-rule="nonzero" stroke="#000000" stroke-width="3" stroke-linejoin="miter" stroke-miterlimit="10" stroke-dasharray="" stroke-dashoffset="0" style="mix-blend-mode: normal"><path d="M-159.15073,444.53453v-380.90864l954.7509,-6.11854v380.90864z" stroke-linecap="butt"/><path d="M719.76926,122.20207c0,0 -5.66821,-1.67211 -5.66528,-3.55382c0.01752,-11.2275 4.29351,-116.02851 4.29351,-116.02851l46.29441,-29.56024v120.87187z" stroke-linecap="butt"/><path d="M502.90194,123.68497c0,0 -1.14252,-0.62194 -1.14804,-1.90969c-0.04061,-9.46825 0.62984,-118.91054 0.62984,-118.91054l217.52326,-0.52002v120.87187z" stroke-linecap="butt"/><path d="M454.89666,152.80432c0,0 -3.12985,0.25722 -3.12789,-0.99927c0.0146,-9.35394 3.31619,-119.6231 3.31619,-119.6231l46.29441,-29.56024v120.87187z" stroke-linecap="butt"/><path d="M238.33592,153.24718l2.34192,-121.34025h214.66315v120.87187z" stroke-linecap="butt"/><path d="M-164.97577,71.06051l406.62636,-117.34242l1.08945,203.66972l-400.20435,176.97544z" stroke-linecap="round"/><path d="M132.21239,190.16173c0,0 0.13244,-1.03674 0.70643,-0.95194c3.39347,0.50134 35.48414,6.29861 35.48414,6.29861l-0.89246,27.21999l-35.32111,-6.57721z" stroke-linecap="round"/><path d="M218.51774,148.9775l22.48976,3.07447l-0.89246,27.21999l-21.82041,-5.30562z" stroke-linecap="round"/><path d="M167.63632,196.36534l72.95641,-43.0178l-1.55971,26.50732l-71.61981,42.39179z" stroke-linecap="round"/><path d="M766.46164,93.91905l-0.51819,-120.82023l217.52326,-0.52002v120.87187z" stroke-linecap="butt"/><path d="M18.72717,269.47941v-17.09402l14.37452,4.2735v17.09402z" stroke-linecap="butt"/><path d="M33.82818,273.70241v-17.09402l74.98058,-35.74203l-1.554,15.92852z" stroke-linecap="butt"/></g></g></svg>