<svg version="1.1" xmlns="http://www.w3.org/2000/svg" xmlns:xlink="http://www.w3.org/1999/xlink" width="511.70162" height="288.50768" viewBox="0,0,511.70162,288.50768"><g transform="translate(-99.93858,-43.39289)"><g data-paper-data="{&quot;isPaintingLayer&quot;:true}" fill-rule="nonzero" stroke-linejoin="miter" stroke-miterlimit="10" stroke-dasharray="" stroke-dashoffset="0" style="mix-blend-mode: normal"><path d="M289.18588,330.8995l-65.12928,-89.85573l-70.87017,0.07069l-51.4373,-81.6003l383.49006,-0.63911l124.17437,171.3551z" data-paper-data="{&quot;index&quot;:null}" fill="#724bba" stroke="#000000" stroke-width="2" stroke-linecap="butt"/><path d="M486.09491,158.56588v-112.09302l124.06325,170.91541c0,0 0.48204,102.99789 0.48204,111.99114c0,1.2578 -0.48204,0.10189 -0.48204,0.10189c0,0 -28.8889,-39.79871 -46.31557,-63.80653c-22.57848,-31.10519 -77.74768,-107.10889 -77.74768,-107.10889z" data-paper-data="{&quot;index&quot;:null}" fill="#6d6381" stroke="#000000" stroke-width="2" stroke-linecap="butt"/><path d="M101.62796,158.64293v-112.09303h384.65116v112.09303z" data-paper-data="{&quot;index&quot;:null}" fill="#9f90bb" stroke="#000000" stroke-width="2" stroke-linecap="butt"/><path d="M374.81482,168.95496l-0.21868,-110.06658c0,0 1.18169,-0.17781 1.83748,0.43617c1.54904,1.45029 7.59339,7.53274 7.59339,7.53274c0,0 0.03662,101.39641 0.00654,109.60714c-0.00387,1.05542 -0.40923,0.3101 -0.40923,0.3101z" data-paper-data="{&quot;index&quot;:null}" fill="#5327aa" stroke="#000000" stroke-width="2" stroke-linecap="butt"/><path d="M376.22259,58.83733l68.46747,-0.10542c0,0 7.09836,5.65689 8.42199,6.82941c0.54739,0.4849 -0.47499,0.21034 -0.47499,0.21034l-68.53865,0.40351z" data-paper-data="{&quot;index&quot;:null}" fill="#7c3bff" stroke="#000000" stroke-width="2" stroke-linecap="butt"/><path d="M431.66203,330.31795l0.75047,-52.47482c0,0 0.72416,-0.56286 2.28869,-0.56286c7.27423,0 61.45578,-0.56285 61.45578,-0.56285v53.60053z" data-paper-data="{&quot;index&quot;:null}" fill="#342255" stroke="#000000" stroke-width="2" stroke-linecap="butt"/><path d="M432.66782,277.53821c0,0 -0.83983,-0.14598 0.22411,-0.88038c4.97397,-3.43333 57.96834,-59.55916 57.96834,-59.55916c0,0 49.17064,-1.31145 54.7133,-1.31145c0.84204,0 -1.09614,1.70072 -1.09614,1.70072l-47.99993,59.82186z" data-paper-data="{&quot;index&quot;:null}" fill="#9966ff" stroke="#000000" stroke-width="2" stroke-linecap="butt"/><path d="M495.62295,329.97677c0,0 0.67946,0.64621 0.67946,-0.42881c0,-5.57141 -0.67946,-53.16429 -0.67946,-53.16429l49.6225,-60.55599c0,0 0.52206,-1.13274 0.52206,-0.08263c0,5.51497 -0.52206,53.67573 -0.52206,53.67573z" data-paper-data="{&quot;index&quot;:null}" fill="#493078" stroke="#000000" stroke-width="2" stroke-linecap="butt"/><path d="M340.45798,114.62256c0,0 11.88858,23.26119 13.48949,26.41766c0.36611,0.72187 0.08688,0.35061 0.08688,0.35061l-120.64944,0.19538l-12.70028,-26.96365l0.27554,-23.15767h119.99279z" data-paper-data="{&quot;index&quot;:null}" fill="#46155a" stroke="#000000" stroke-width="2" stroke-linecap="round"/><path d="M221.32106,91.64531l-2.34572,-3.06748l117.28617,0.18044c0,0 3.58253,1.60474 4.44796,2.10403c0.54601,0.315 0.24349,0.60258 0.24349,0.60258z" data-paper-data="{&quot;index&quot;:null}" fill="#46155a" stroke="#000000" stroke-width="2" stroke-linecap="round"/><path d="M218.07313,88.21697c0,0 -0.15724,-0.09311 0.1107,0.22507c0.51773,0.6148 2.77634,3.2033 2.77634,3.2033l-0.54132,23.63767l12.81126,26.16384c0,0 -0.37715,31.3102 -0.43723,35.25585c-0.01264,0.83043 -0.34748,0.93992 -0.34748,0.93992l-14.19183,-17.97131l-0.18044,-71.45435z" data-paper-data="{&quot;index&quot;:null}" fill="#591a71" stroke="#000000" stroke-width="2" stroke-linecap="round"/><path d="M353.92409,177.35445h-120.87441v-36.08805l120.71454,0.36088z" data-paper-data="{&quot;index&quot;:null}" fill="#8627ab" stroke="#000000" stroke-width="2" stroke-linecap="round"/><path d="M384.05333,176.70044v-110.31895h69.04316v110.31895z" data-paper-data="{&quot;index&quot;:null}" fill="#7c3bff" stroke="#000000" stroke-width="2" stroke-linecap="butt"/><path d="M443.40788,113.06598v-15.02347" data-paper-data="{&quot;index&quot;:null}" fill="none" stroke="#000000" stroke-width="2" stroke-linecap="round"/><path d="M452.10845,155.476h-67.44914v-88.21297h68.47921z" data-paper-data="{&quot;index&quot;:null}" fill="#98ffff" stroke="#000000" stroke-width="2" stroke-linecap="round"/><path d="M384.36619,155.42322l23.80953,-88.4602h7.99444l-24.50469,88.11262z" data-paper-data="{&quot;index&quot;:null}" fill-opacity="0.43529" fill="#ffffff" stroke="none" stroke-width="0" stroke-linecap="butt"/><path d="M414.91363,155.38324l23.80953,-88.4602h7.99444l-24.5047,88.11262z" data-paper-data="{&quot;index&quot;:null}" fill-opacity="0.54118" fill="#ffffff" stroke="none" stroke-width="0" stroke-linecap="butt"/><path d="M110.73685,172.34697l46.01407,-0.48848l30.87144,49.23798l-46.01407,0.48847z" data-paper-data="{&quot;index&quot;:null}" fill="#e85d5d" stroke="#000000" stroke-width="2" stroke-linecap="butt"/><path d="M292.33588,115.24223h-71.83098" data-paper-data="{&quot;index&quot;:null}" fill="none" stroke="#000000" stroke-width="2" stroke-linecap="round"/><path d="M306.1074,114.92924h17.99687" data-paper-data="{&quot;index&quot;:null}" fill="none" stroke="#000000" stroke-width="2" stroke-linecap="round"/><path d="M464.7664,158.83146v-13.29835h9.22743v13.29835z" data-paper-data="{&quot;index&quot;:null}" fill="#5327aa" stroke="#000000" stroke-width="2" stroke-linecap="butt"/><path d="M471.19966,156.607h-3.36248" data-paper-data="{&quot;index&quot;:null}" fill="none" stroke="#000000" stroke-width="2" stroke-linecap="round"/><path d="M467.25374,149.84729c0,-1.23171 0.99849,-2.23021 2.23021,-2.23021c1.23171,0 2.23021,0.9985 2.23021,2.23021c0,1.23171 -0.9985,2.23021 -2.23021,2.23021c-1.23171,0 -2.23021,-0.9985 -2.23021,-2.23021z" data-paper-data="{&quot;index&quot;:null}" fill="#9966ff" stroke="#000000" stroke-width="2" stroke-linecap="butt"/><path d="M469.422,150.09509c0,0 6.59294,11.66312 7.31545,16.28818c0.25754,1.64862 -3.32425,-3.95426 -6.67007,-3.94509c-3.34583,0.00917 -9.55453,1.93416 -9.87802,1.59769c-5.56868,-5.79207 -7.05748,-19.88801 -7.05748,-19.88801" data-paper-data="{&quot;index&quot;:null}" fill="none" stroke="#000000" stroke-width="2" stroke-linecap="round"/><path d="M353.21547,140.88162l-119.47387,0.18254l-13.14309,-24.50548l120.50395,-0.18254z" data-paper-data="{&quot;index&quot;:null}" fill="#98ffff" stroke="#000000" stroke-width="2" stroke-linecap="round"/><path d="M452.35851,155.51953h-67.44914v-88.21297h68.47921z" data-paper-data="{&quot;index&quot;:null}" fill="none" stroke="#000000" stroke-width="2" stroke-linecap="round"/><path d="M564.48166,280.9515l5.05683,28.23031l4.04545,3.51587l-20.67678,-0.58684l-2.5846,-29.67803z" data-paper-data="{&quot;index&quot;:null}" fill="#ffea00" stroke="#000000" stroke-width="2.5" stroke-linecap="round"/><path d="M543.69751,282.87487l-2.58461,29.67803l-20.67678,0.58684l4.04546,-3.51586l5.05683,-28.23032z" data-paper-data="{&quot;index&quot;:null}" fill="#ffea00" stroke="#000000" stroke-width="2.5" stroke-linecap="round"/><path d="M565.1559,268.12894l6.08044,38.7697l-19.66542,2.17156l-5.29382,-33.18568c0,0 -1.8904,0.09224 -2.77784,0.0073c-0.9866,-0.09443 -2.87585,-0.54841 -2.87585,-0.54841l3.96808,0.85134l-0.78437,32.93561l-20.90265,-0.69218l5.84232,-40.92969z" data-paper-data="{&quot;index&quot;:null}" fill="#b50000" stroke="#000000" stroke-width="2.5" stroke-linecap="round"/><g><path d="M514.75118,261.49414l-9.67374,-1.56843l-9.01933,2.02764c0,0 -1.88495,-4.87966 -1.16522,-7.31161c0.72124,-2.43707 5.48808,-7.29554 5.48808,-7.29554l6.45605,6.22138l10.32534,2.25383z" data-paper-data="{&quot;index&quot;:null}" fill="#ffea00" stroke="#000000" stroke-width="2.5" stroke-linecap="round"/><g data-paper-data="{&quot;index&quot;:null}" stroke="#000000" stroke-width="2.5" stroke-linecap="round"><path d="M562.39059,236.74381l2.87813,7.7734l3.35273,27.20823l-11.86021,-2.59605l-18.85953,5.15447l-12.18136,6.08532l1.84825,-13.65192l7.77201,-16.132l-5.54531,10.60807l-25.12675,11.17953l3.95752,-20.82818l11.13548,-0.86441l9.89016,-8.75173l8.08481,-5.33867z" fill="#0078b5"/><path d="M558.42568,237.21909l-10.51871,5.84348l-6.1494,-5.97937z" fill="#ffea00"/></g><path d="M558.88774,209.85598c9.68608,2.4742 12.0771,9.47859 11.89552,11.85695c-0.10461,1.37014 0.71643,6.17774 -1.38254,8.99724c-1.24631,1.67413 -5.40597,4.1145 -10.37643,5.28099c-4.3449,1.01968 -25.71192,4.68289 -30.77881,-3.1181c-2.31692,-5.67129 3.10876,-6.92012 3.17458,-8.56106c0.06582,-1.64095 1.98009,-12.14818 1.98009,-12.14818c0,0 15.80153,-4.78203 25.48761,-2.30783z" data-paper-data="{&quot;index&quot;:null}" fill="#ffea00" stroke="#000000" stroke-width="2.5" stroke-linecap="round"/><path d="M564.13606,271.38051l-4.88764,7.13042c0,0 -6.05182,-4.04204 -7.23268,-6.13241c-1.35488,-2.39846 -0.44654,-7.46158 -0.44654,-7.46158l9.34431,0.52673c0,0 1.87303,-3.008 7.07161,-5.70595c4.35459,-2.25996 -3.84908,11.64278 -3.84908,11.64278z" data-paper-data="{&quot;index&quot;:null}" fill="#ffea00" stroke="#000000" stroke-width="2.5" stroke-linecap="round"/><path d="M571.39375,283.93078l-12.42767,-23.77832l5.91556,-6.74577l-1.80904,-16.55865l2.25902,1.86749l8.13793,11.80816z" fill="#0078b5" stroke="#000000" stroke-width="2.5" stroke-linecap="butt"/><path d="M549.87504,211.0079l18.8074,0.8466l1.96024,3.99955l-22.56941,-0.69231l-16.31066,-3.46154l5.1127,-2.82785z" fill="#ffffff" stroke="#000000" stroke-width="2" stroke-linecap="round"/><path d="M548.73709,216.02713l-8.34499,0.95192l-18.39691,-3.98077l9.00879,-0.95192z" fill="#ffffff" stroke="#000000" stroke-width="2" stroke-linecap="round"/><path d="M561.0735,249.121l0.31159,-11.45365l3.51989,2.59534l5.26204,8.95218z" fill="#0078b5" stroke="none" stroke-width="0" stroke-linecap="butt"/><path d="M535.58814,223.0796l5.52451,-1.57137l-0.57398,3.40464" fill="none" stroke="#000000" stroke-width="2.5" stroke-linecap="round"/><path d="M544.98697,225.56761l0.57398,-3.33917l5.88323,3.01179" fill="none" stroke="#000000" stroke-width="2.5" stroke-linecap="round"/><path d="M549.43527,230.6091l-14.77985,-1.37495" fill="none" stroke="#000000" stroke-width="2.5" stroke-linecap="round"/></g></g></g></svg>