<svg version="1.1" xmlns="http://www.w3.org/2000/svg" xmlns:xlink="http://www.w3.org/1999/xlink" width="189.08986" height="220.2204" viewBox="0,0,189.08986,220.2204"><g transform="translate(-231.81359,-142.81042)"><g data-paper-data="{&quot;isPaintingLayer&quot;:true}" fill-rule="nonzero" stroke-linejoin="miter" stroke-miterlimit="10" stroke-dasharray="" stroke-dashoffset="0" style="mix-blend-mode: normal"><path d="M242.28779,363.03082v-220.2204h168.30628v220.2204z" fill="none" stroke="none" stroke-width="0" stroke-linecap="butt"/><path d="M315.5844,304.48887l-5.46289,52.15034l-43.70312,1.0312l8.55061,-6.17809l10.68827,-49.6064z" fill="#ffea00" stroke="#000000" stroke-width="5" stroke-linecap="round"/><path d="M370.57669,301.80051l10.68827,49.6064l8.55062,6.17809l-43.70313,-1.0312l-5.46289,-52.15034z" data-paper-data="{&quot;index&quot;:null}" fill="#ffea00" stroke="#000000" stroke-width="5" stroke-linecap="round"/><path d="M357.98326,236.55369c0,0 11.25094,11.97549 17.66209,18.77096c7.49769,7.94713 24.5768,25.9999 24.5768,25.9999l16.80603,6.42674c0,0 -7.19199,10.34527 -11.80956,12.9189c-4.60788,2.56823 -15.86688,2.50669 -15.86688,2.50669l-1.2503,-15.32916c0,0 -16.53648,-18.0635 -23.75537,-25.94899c-6.04688,-6.60527 -16.66808,-18.20725 -16.66808,-18.20725z" data-paper-data="{&quot;index&quot;:null}" fill="#ffea00" stroke="#000000" stroke-width="5" stroke-linecap="round"/><path d="M289.4287,242.69095c0,0 -6.75159,13.31881 -10.59542,20.90149c-4.58884,9.05236 -15.10058,29.78883 -15.10058,29.78883l3.37307,15.31242c0,0 -10.72723,2.40068 -16.23575,0.59461c-4.80094,-1.57408 -14.98535,-10.83103 -14.98535,-10.83103l14.24438,-9.33026c0,0 11.03681,-20.82292 15.87538,-29.98578c4.13737,-7.83502 14.39013,-21.18406 14.39013,-21.18406z" fill="#ffea00" stroke="#000000" stroke-width="5" stroke-linecap="round"/><path d="M361.18765,278.26382l16.15115,25.07576l-40.37788,5.81467l-9.26317,-15.62692l5.22538,-0.18171l-8.78814,-0.36342l-4.27529,16.35377l-41.56547,-3.81589l5.93793,-26.16601z" fill="#65ff71" stroke="#000000" stroke-width="5" stroke-linecap="round"/><g stroke="#000000" stroke-width="5" stroke-linecap="round"><path d="M342.01191,221.34954l37.62368,28.23259l-25.95405,9.18539l-9.84605,-23.74611c0,0 2.54515,12.22109 5.34115,18.95011c3.02187,7.2726 12.16508,23.18156 12.16508,23.18156c0,0 -25.10746,7.32147 -38.25898,7.76398c-13.10767,0.44104 -40.51904,-5.11331 -40.51904,-5.11331l7.84132,-44.08481l-4.18039,23.31482l-25.07528,-8.32269l31.80868,-29.08251z" fill="#98c8ff"/><path d="M334.01125,221.96597l-12.23538,10.83845l-20.92894,-10.59212z" fill="#ffea00"/></g><path d="M350.00622,178.03502c0,0 3.80876,19.04582 3.93973,22.02027c0.13096,2.97445 10.92634,5.23812 6.31642,15.51812c-10.08155,14.14037 -52.59516,7.50032 -61.24016,5.652c-9.88963,-2.11443 -18.16606,-6.53793 -20.64583,-9.57253c-4.17631,-5.11073 -2.5427,-13.82517 -2.75084,-16.30874c-0.36131,-4.31111 23.10231,-17.72765 23.10231,-17.72765z" fill="#ffea00" stroke="#000000" stroke-width="5" stroke-linecap="round"/><path d="M273.87737,192.65106c0,0 -5.704,-0.53387 -7.51456,-2.04306c-2.18958,-1.82512 -4.70332,-8.14109 -4.70332,-8.14109c0,0 0.97725,-5.96718 3.91367,-8.04457c2.69607,-1.90734 13.04546,-3.9532 13.04546,-3.9532c0,0 -4.04325,-4.41516 -4.55558,-6.74238c-0.45289,-2.05717 1.63789,-6.51096 1.63789,-6.51096c0,0 8.81138,-0.32614 12.12368,0.48754c3.31332,0.81394 7.75319,4.39527 7.75319,4.39527c0,0 3.79625,-6.90887 8.05426,-8.44321c4.12627,-1.48685 17.11095,-0.62485 17.11095,-0.62485c0,0 7.80371,-4.46962 12.29683,-5.12321c4.1029,-0.59682 13.59779,1.35647 13.59779,1.35647l-7.29426,6.97545c0,0 16.56486,0.0616 22.46608,0.97983c4.43033,0.68936 9.81102,4.04248 9.81102,4.04248c0,0 7.05119,6.46415 8.12188,10.55974c1.21969,4.6655 -1.19233,15.94694 -1.19233,15.94694l-7.47661,-6.13839c0,0 2.36126,7.65313 2.08587,11.16438c-0.27163,3.46353 -3.72709,9.76195 -3.72709,9.76195c0,0 -4.63397,-1.58054 -6.60486,-2.78678c-1.59699,-0.97741 -7.99888,-5.79101 -9.00961,-7.27952c-1.33127,-1.96055 -2.62119,-7.37231 -2.62119,-7.37231c0,0 -5.58705,5.70871 -10.17935,7.44062c-3.93841,1.48528 -15.71529,2.32499 -15.71529,2.32499c0,0 -6.58749,-2.01375 -8.59272,-4.09913c-1.87648,-1.95149 -3.07807,-8.03814 -3.07807,-8.03814c0,0 -13.24508,9.06673 -18.04038,11.11909c-2.88845,1.23623 -8.03661,0.04163 -8.03661,0.04163c0,0 0.65767,6.10556 -1.39806,9.00586c-2.52686,3.56499 -12.64341,10.80441 -12.64341,10.80441c0,0 -1.67038,-8.49639 -1.60481,-12.13304c0.05356,-2.97061 1.96953,-8.09574 1.96953,-8.09574" fill="#483100" stroke="#000000" stroke-width="5" stroke-linecap="round"/><path d="M306.04887,196.40768l16.85118,0.96688" fill="#ffffff" stroke="#000000" stroke-width="5" stroke-linecap="round"/><path d="M337.36397,197.58941l12.21709,0.75201" fill="#ffffff" stroke="#000000" stroke-width="5" stroke-linecap="round"/><path d="M338.06613,208.22507l-13.34052,-0.21486" fill="#ffffff" stroke="#000000" stroke-width="5" stroke-linecap="round"/></g></g></svg>