<svg version="1.1" xmlns="http://www.w3.org/2000/svg" xmlns:xlink="http://www.w3.org/1999/xlink" width="2058.92981" height="834.14685" viewBox="0,0,2058.92981,834.14685"><defs><linearGradient x1="930.65715" y1="-48.41732" x2="1301.71342" y2="-48.41732" gradientUnits="userSpaceOnUse" id="color-1"><stop offset="0" stop-color="#1d001c"/><stop offset="1" stop-color="#390036"/></linearGradient></defs><g transform="translate(243.86277,267.32331)"><g data-paper-data="{&quot;isPaintingLayer&quot;:true}" fill-rule="nonzero" stroke-linejoin="miter" stroke-miterlimit="10" stroke-dasharray="" stroke-dashoffset="0" style="mix-blend-mode: normal"><path d="M-160.42192,452.68201v-545.91932h962.34835v545.91932z" fill="#000000" stroke="#000000" stroke-width="2" stroke-linecap="butt"/><path d="" fill="#9966ff" stroke="#000000" stroke-width="5.5" stroke-linecap="butt"/><path d="M1444.18428,252.89999l-1.13967,-514.11753c0,0 2.95766,-3.39514 6.28308,-0.53319c26.56104,22.85903 357.3969,313.52399 357.3969,313.52399c0,0 1.13967,365.69614 1.13967,452.06761c0,28.29699 0,56.35152 0,56.35152z" fill="#9966ff" stroke="#000000" stroke-width="5.5" stroke-linecap="butt"/><path d="M124.81221,564.07354l-361.25685,-310.51964h1682.8367l361.25685,310.51964z" fill="#5e3f9c" stroke="#000000" stroke-width="5.5" stroke-linecap="butt"/><path d="M-236.17046,251.03743v-515.61074h1682.04702v515.61074z" fill="#885ae2" stroke="#000000" stroke-width="5.5" stroke-linecap="butt"/><path d="M-153.48129,297.49044v-143.08607c0,0 0.90356,-0.95383 4.74406,2.35698c16.61749,14.32542 135.12659,118.22121 135.12659,118.22121v143.08607z" fill="#390036" stroke="#000000" stroke-width="5.5" stroke-linecap="butt"/><path d="M-10.39516,418.06858v-143.08606h570.73662v143.08606z" fill="#390036" stroke="#000000" stroke-width="5.5" stroke-linecap="butt"/><path d="M-10.70069,274.67705l-135.9848,-116.42546c0,0 -7.37381,-4.68839 -1.61109,-4.68159c43.60294,0.05126 571.67723,5.35206 571.67723,5.35206c0,0 125.83012,102.61831 137.1031,112.1672c1.62996,1.38066 -0.44786,3.58783 -0.44786,3.58783z" fill="#9959d9" stroke="#000000" stroke-width="5.5" stroke-linecap="butt"/><path d="M930.67944,255.83898v-331.94128c0,0 -0.03274,-0.38761 2.2885,1.54679c8.34447,6.95374 59.67384,50.08854 59.67384,50.08854c0,0 2.89362,302.21718 2.89362,328.60293c0,3.64977 -2.89362,3.3383 -2.89362,3.3383z" fill="#1d001c" stroke="#000000" stroke-width="5.5" stroke-linecap="butt"/><path d="M994.11711,307.47425v-329.14605h306.86126c0,0 1.3199,-2.66315 1.3199,1.8075c0,28.79541 -1.3199,327.33855 -1.3199,327.33855z" fill="#390036" stroke="#000000" stroke-width="5.5" stroke-linecap="butt"/><path d="M995.53552,-20.8101l-60.15527,-51.68268c0,0 -7.2807,-3.53182 -3.76305,-3.53182c24.81637,0 309.62299,3.53182 309.62299,3.53182c0,0 49.2465,39.66123 58.42035,47.54301c3.15288,2.7088 1.73492,4.13971 1.73492,4.13971z" fill="url(#color-1)" stroke="#000000" stroke-width="5.5" stroke-linecap="butt"/><path d="M1150.02637,-19.0825v324.0402" fill="none" stroke="#000000" stroke-width="5.5" stroke-linecap="round"/><path d="M1127.58776,139.30781c0,-1.45794 1.18191,-2.63984 2.63984,-2.63984c1.45794,0 2.63984,1.18191 2.63984,2.63984c0,1.45794 -1.18191,2.63984 -2.63984,2.63984c-1.45794,0 -2.63984,-1.18191 -2.63984,-2.63984z" fill="#9966ff" stroke="#000000" stroke-width="5.5" stroke-linecap="butt"/><path d="M1169.1448,139.17299c0,-1.45794 1.18191,-2.63984 2.63984,-2.63984c1.45794,0 2.63984,1.18191 2.63984,2.63984c0,1.45794 -1.18191,2.63984 -2.63984,2.63984c-1.45794,0 -2.63984,-1.18187 -2.63984,-2.63984z" fill="#9966ff" stroke="#000000" stroke-width="5.5" stroke-linecap="butt"/><path d="M-8.22038,255.76179c0,0 -53.03429,-30.97595 -67.5533,-47.54936c-14.61285,-16.68054 -19.84408,-52.21459 -19.84408,-52.21459l88.1634,-3.18603c0,0 30.88466,15.92584 42.15784,28.79418c16.10143,18.37976 45.23951,70.9698 45.23951,70.9698z" fill="#6c3f99" stroke="#000000" stroke-width="5.5" stroke-linecap="butt"/><path d="M-14.87709,233.45117l-61.0106,-66.37417" fill="none" stroke="#000000" stroke-width="5.5" stroke-linecap="round"/><path d="M425.52994,158.88512l135.89515,112.92695l16.26912,169.3904l-260.30621,4.78504l-29.66725,-20.09717l6.69905,-152.16427l-95.70081,-114.84099z" fill="#4c40ff" stroke="#000000" stroke-width="5.5" stroke-linecap="round"/><path d="M542.28494,415.36324l-230.63896,0.95702" fill="none" stroke="#000000" stroke-width="5.5" stroke-linecap="round"/><path d="M637.83611,-7.8836l-34.28813,-23.57305h281.80538l34.28813,23.57305z" fill="#390036" stroke="#000000" stroke-width="5.5" stroke-linecap="butt"/><path d="M645.03667,153.61341l-34.28812,-23.57306h281.80542l34.2881,23.57306z" fill="#390036" stroke="#000000" stroke-width="5.5" stroke-linecap="butt"/><path d="M181.35091,79.22455l30.05003,-224.77421l182.8908,24.45064l-30.05003,224.77421z" fill="#8d7bb1" stroke="#000000" stroke-width="5.5" stroke-linecap="butt"/><path d="M181.22556,-87.61827l-21.94188,-32.91286l91.48658,-60.99104l21.94192,32.91286z" fill-opacity="0.43529" fill="#f4ff00" stroke="#000000" stroke-width="5.5" stroke-linecap="butt"/><path d="M320.78744,117.3297l-17.14328,-25.71491l71.47872,-47.65246l17.14325,25.71491z" fill-opacity="0.43529" fill="#f4ff00" stroke="#000000" stroke-width="5.5" stroke-linecap="butt"/><path d="M1434.4519,213.92623l-2.74579,68.64443c0,0 -12.69811,11.9705 -53.54771,11.1965c-29.39524,-0.55692 -51.24941,-12.11176 -51.24941,-12.11176l2.28813,-69.55967z" fill="#1d0029" stroke="#000000" stroke-width="5.5" stroke-linecap="round"/><path d="M1433.49925,211.40051c0,7.37605 -23.41953,13.35547 -52.30896,13.35547c-28.88943,0 -52.30896,-5.97943 -52.30896,-13.35547c0,-7.37605 23.41953,-13.35549 52.30896,-13.35549c28.88943,0 52.30896,5.97947 52.30896,13.35549z" fill="#0e0000" stroke="#000000" stroke-width="5.5" stroke-linecap="butt"/><path d="M1386.40083,110.50203l-0.45762,95.64451c0,0 -4.09965,4.49135 -6.39557,4.70009c-2.67877,0.24352 -8.70624,-3.32717 -8.70624,-3.32717l0.91529,-96.10215c0,0 4.72048,-4.01329 7.29,-4.17388c2.27621,-0.14225 7.35413,3.2586 7.35413,3.2586z" fill="#220013" stroke="#000000" stroke-width="5.5" stroke-linecap="round"/><path d="M1421.89969,100.8567c0,12.11851 10.73405,26.8222 4.81944,35.59361c-3.65907,5.42639 -11.29447,15.29782 -19.78798,17.76477c-9.82929,2.85493 -20.80783,-2.13161 -28.10273,-2.13161c-7.50573,0 -16.87123,5.50348 -25.31674,3.662c-8.39253,-1.82993 -15.87663,-10.98306 -19.7245,-17.84965c-4.55191,-8.12295 1.96995,-26.54518 1.96995,-37.03912c0,-8.66975 2.45833,-14.68282 8.27417,-19.65781c4.03802,-3.45419 11.01457,-6.14403 14.42741,-9.97181c7.71201,-8.6497 8.93284,-21.59715 20.36971,-21.59715c11.45036,0 14.21135,15.50854 21.92608,24.17635c2.20398,2.47629 10.33276,3.99985 12.84892,5.92449c6.9734,5.33403 8.29627,10.3433 8.29627,21.12596z" fill="#314d1e" stroke="#000000" stroke-width="5.5" stroke-linecap="butt"/><path d="M332.12332,277.729h61.29342" fill="none" stroke="#000000" stroke-width="5.5" stroke-linecap="round"/><path d="M497.19774,272.85339h64.07952" fill="none" stroke="#000000" stroke-width="5.5" stroke-linecap="round"/><path d="M241.47262,-77.25656c13.15008,-8.07086 26.89931,-8.5057 38.70716,-7.00185c13.02978,1.65943 29.79932,8.32012 36.16732,16.53776c6.36795,8.21763 -2.82547,26.48863 -2.82547,26.48863c0,0 22.96008,29.59585 -15.18682,39.90951c-21.09999,5.70473 -71.29504,2.53428 -67.45768,-31.78635c4.85134,-43.38952 -2.5546,-36.07683 10.59544,-44.14769z" fill="#c5b056" stroke="#000000" stroke-width="5.5" stroke-linecap="round"/><path d="M282.5852,-104.45154l34.87957,-9.88909l40.55765,43.44132l-40.15208,5.65092l6.08363,25.42907l-33.66284,-12.71451l-35.69074,3.88501l-37.31306,27.195l8.11154,-30.37361l-15.00634,-7.41679l10.54498,-21.54406l-5.67807,-9.88909l12.16732,-10.24226l6.8948,9.18269l5.27252,-25.42907h15.41189l-5.27252,21.1909l45.01899,-22.95681z" fill="#003f96" stroke="#000000" stroke-width="5.5" stroke-linecap="round"/><path d="M286.78219,-19.3067l-17.48934,9.11415l-9.85318,-10.59215l42.36859,-0.98531" fill="none" stroke="#000000" stroke-width="5.5" stroke-linecap="round"/><path d="M253.77409,-49.85142l16.9967,12.07014l-4.43393,7.14354" fill="none" stroke="#000000" stroke-width="5.5" stroke-linecap="round"/><path d="M288.01383,-31.37676l-4.92657,-9.85317l19.70631,-5.91188" fill="none" stroke="#000000" stroke-width="5.5" stroke-linecap="round"/><path d="M341.38166,-10.72436l21.36536,3.09234c0,0 -5.85094,9.1005 -7.98664,14.90191c-3.4697,9.4251 -10.84862,36.26247 -10.84862,36.26247l-35.70263,-3.09234c0,0 -3.49281,-10.82524 -2.65017,-16.19154c0.9293,-5.91823 7.99149,-17.82431 7.99149,-17.82431l23.61434,3.93571z" fill="#c5b056" stroke="#000000" stroke-width="5.5" stroke-linecap="round"/><path d="M259.95527,50.24739l-43.15238,21.0665l-22.42563,-23.78476l28.88149,-9.17412z" fill="#c5b056" stroke="#000000" stroke-width="5.5" stroke-linecap="round"/><path d="M289.9264,36.50558c-4.03566,5.41776 -13.95615,4.85693 -22.15802,-1.25261c-8.20187,-6.10958 -11.57925,-15.45427 -7.54359,-20.87203c4.03566,-5.41776 13.95615,-4.85693 22.15802,1.25261c8.20187,6.10958 11.57925,15.45427 7.54359,20.87203z" fill="#454545" stroke="#000000" stroke-width="5.5" stroke-linecap="butt"/><path d="M263.01329,32.91848l-25.14389,9.17412" fill="none" stroke="#000000" stroke-width="5.5" stroke-linecap="round"/><path d="M264.71222,36.99588l-18.68802,7.13544" fill="none" stroke="#000000" stroke-width="5.5" stroke-linecap="round"/><g fill="#1f001e" stroke="#000000" stroke-width="5.5" stroke-linecap="butt"><path d="M1507.51461,307.15468v-317.97026l108.26942,88.89492v321.38931z"/><path d="M1592.98142,222.25634c5.22405,5.50802 1.41583,19.66856 -2.37456,15.67213c-5.22405,-5.50802 -1.41583,-19.66856 2.37456,-15.67213z"/></g><path d="M184.91998,403.63676v-386.21308h225.81369v386.21309z" fill="none" stroke="none" stroke-width="0" stroke-linecap="butt"/><path d="M186.72613,366.79661v-397.16206h232.2154v397.16206z" fill="none" stroke="none" stroke-width="0" stroke-linecap="butt"/><path d="M196.3287,323.77186v-382.78816h223.81118v382.78816z" fill="none" stroke="none" stroke-width="0" stroke-linecap="butt"/><path d="M223.70174,450.77763v-392.95912h229.758v392.95912z" fill="none" stroke="none" stroke-width="0" stroke-linecap="butt"/><path d="M324.32352,343.37977l-7.01966,95.9358l-56.15719,1.89699l10.98727,-11.36522l13.73409,-91.25599z" fill="#ffea00" stroke="#000000" stroke-width="5" stroke-linecap="round"/><path d="M394.98697,338.43425l13.73409,91.25599l10.98729,11.36522l-56.15721,-1.89699l-7.01966,-95.9358z" data-paper-data="{&quot;index&quot;:null}" fill="#ffea00" stroke="#000000" stroke-width="5" stroke-linecap="round"/><path d="M373.5085,216.56968c0,0 11.26772,24.87174 17.69552,38.99268c7.51716,16.5141 24.65302,54.04097 24.65302,54.04097l19.67314,16.37243c0,0 -11.66611,16.73547 -18.14744,20.10431c-6.46772,3.36176 -20.69985,0.08751 -20.69985,0.08751l2.2189,-28.14264c0,0 -16.44657,-37.39388 -23.62622,-53.71792c-6.014,-13.6738 -16.57744,-37.69147 -16.57744,-37.69147z" data-paper-data="{&quot;index&quot;:null}" fill="#ffea00" stroke="#000000" stroke-width="5" stroke-linecap="round"/><path d="M294.91018,221.70923c0,0 -5.35724,26.0053 -8.40722,40.81071c-3.64114,17.67496 -11.98199,58.16347 -11.98199,58.16347l7.94482,26.87375c0,0 -13.01137,7.27024 -20.42163,5.48853c-6.4584,-1.55287 -21.57816,-15.58693 -21.57816,-15.58693l15.8042,-20.80163c0,0 8.98514,-40.78798 12.9161,-58.73131c3.36128,-15.34304 13.14586,-42.35411 13.14586,-42.35411z" fill="#ffea00" stroke="#000000" stroke-width="5" stroke-linecap="round"/><path d="M382.92233,295.13613l20.75375,46.12941l-51.88436,10.69666l-11.90288,-28.74731l6.71446,-0.33427l-11.29249,-0.66855l-5.49363,30.08441l-53.41039,-7.01971l7.63006,-48.13503z" fill="#65ff71" stroke="#000000" stroke-width="5" stroke-linecap="round"/><g stroke="#000000" stroke-width="5" stroke-linecap="round"><path d="M358.28208,190.43656l48.34529,51.93671l-33.35018,16.89745l-12.65188,-43.68338c0,0 3.27043,22.48192 6.86322,34.86064c3.883,13.37868 15.63177,42.64483 15.63177,42.64483c0,0 -32.26233,13.46858 -49.16165,14.28263c-16.84297,0.81134 -52.06576,-9.40645 -52.06576,-9.40645l10.07587,-81.09846l-5.37169,42.88996l-32.22099,-15.31042l40.87321,-53.50023z" fill="#98c8ff"/><path d="M348.00147,191.57054l-15.72209,19.93841l-26.89305,-19.48527z" fill="#ffea00"/></g><path d="M368.55453,110.75512c0,0 4.89414,35.03673 5.06245,40.50853c0.1683,5.4718 14.04003,9.63605 8.1164,28.54715c-12.9545,26.01264 -67.58322,13.7976 -78.69177,10.39742c-12.70787,-3.88971 -23.34284,-12.02718 -26.52928,-17.60964c-5.36644,-9.40171 -3.26729,-25.4328 -3.53475,-30.00157c-0.46426,-7.93074 29.68577,-32.61182 29.68577,-32.61182z" fill="#ffea00" stroke="#000000" stroke-width="5" stroke-linecap="round"/><path d="M270.73123,137.64281c0,0 -7.32946,-0.98211 -9.65599,-3.75842c-2.81354,-3.35751 -6.04363,-14.97637 -6.04363,-14.97637c0,0 1.25573,-10.97724 5.02897,-14.7988c3.46436,-3.50874 16.76305,-7.2723 16.76305,-7.2723c0,0 -5.19545,-8.12214 -5.8538,-12.40329c-0.58195,-3.78436 2.10464,-11.97759 2.10464,-11.97759c0,0 11.32236,-0.59997 15.57857,0.89688c4.25751,1.49731 9.96262,8.08555 9.96262,8.08555c0,0 4.87808,-12.70957 10.34948,-15.53214c5.30212,-2.73523 21.98705,-1.1495 21.98705,-1.1495c0,0 10.02752,-8.22231 15.80106,-9.42465c5.27212,-1.09792 17.47276,2.49535 17.47276,2.49535l-9.37291,12.83204c0,0 21.28535,0.11332 28.86823,1.8025c5.69285,1.26814 12.60688,7.43656 12.60688,7.43656c0,0 9.06057,11.89147 10.43638,19.42572c1.56726,8.58268 -1.53211,29.33601 -1.53211,29.33601l-9.60722,-11.29219c0,0 3.03414,14.0787 2.68028,20.53801c-0.34904,6.37153 -4.78918,17.9581 -4.78918,17.9581c0,0 -5.95451,-2.90757 -8.48706,-5.12656c-2.05208,-1.79804 -10.27832,-10.65318 -11.57709,-13.39142c-1.71064,-3.60662 -3.36814,-13.5621 -3.36814,-13.5621c0,0 -7.1792,10.50176 -13.08015,13.68775c-5.06074,2.73232 -20.19368,4.27708 -20.19368,4.27708c0,0 -8.46473,-3.70451 -11.0414,-7.54078c-2.41122,-3.58994 -3.95524,-14.78697 -3.95524,-14.78697c0,0 -17.01952,16.67917 -23.18135,20.45469c-3.71158,2.27416 -10.32679,0.07657 -10.32679,0.07657c0,0 0.84509,11.23179 -1.79646,16.56718c-3.24695,6.55816 -16.24639,19.87578 -16.24639,19.87578c0,0 -2.14638,-15.62996 -2.06215,-22.31996c0.06882,-5.46475 2.53079,-14.89294 2.53079,-14.89294" fill="#483100" stroke="#000000" stroke-width="5" stroke-linecap="round"/><path d="M312.07066,144.55348l21.65325,1.77867" fill="#ffffff" stroke="#000000" stroke-width="5" stroke-linecap="round"/><path d="M352.30961,146.72742l15.6986,1.3834" fill="#ffffff" stroke="#000000" stroke-width="5" stroke-linecap="round"/><path d="M353.21185,166.29277l-17.14215,-0.39525" fill="#ffffff" stroke="#000000" stroke-width="5" stroke-linecap="round"/></g></g></svg>