<svg version="1.1" xmlns="http://www.w3.org/2000/svg" xmlns:xlink="http://www.w3.org/1999/xlink" width="511.70162" height="288.50768" viewBox="0,0,511.70162,288.50768"><g transform="translate(-99.93858,-43.39289)"><g data-paper-data="{&quot;isPaintingLayer&quot;:true}" fill-rule="nonzero" stroke-linejoin="miter" stroke-miterlimit="10" stroke-dasharray="" stroke-dashoffset="0" style="mix-blend-mode: normal"><path d="M289.18588,330.8995l-65.12928,-89.85573l-70.87017,0.07069l-51.4373,-81.6003l383.49006,-0.63911l124.17437,171.3551z" fill="#724bba" stroke="#000000" stroke-width="2" stroke-linecap="butt"/><path d="M486.09491,158.56589v-112.09302l124.06325,170.91541c0,0 0.48204,102.99789 0.48204,111.99114c0,1.2578 -0.48204,0.10189 -0.48204,0.10189c0,0 -28.8889,-39.79871 -46.31557,-63.80653c-22.57848,-31.10519 -77.74768,-107.10889 -77.74768,-107.10889z" fill="#6d6381" stroke="#000000" stroke-width="2" stroke-linecap="butt"/><path d="M101.62796,158.64294v-112.09303h384.65116v112.09303z" fill="#9f90bb" stroke="#000000" stroke-width="2" stroke-linecap="butt"/><path d="M374.81482,168.95497l-0.21868,-110.06658c0,0 1.18169,-0.17781 1.83748,0.43617c1.54904,1.45029 7.59339,7.53274 7.59339,7.53274c0,0 0.03662,101.39641 0.00654,109.60714c-0.00387,1.05542 -0.40923,0.3101 -0.40923,0.3101z" data-paper-data="{&quot;index&quot;:null}" fill="#5327aa" stroke="#000000" stroke-width="2" stroke-linecap="butt"/><path d="M376.22259,58.83734l68.46747,-0.10542c0,0 7.09836,5.65689 8.42199,6.82941c0.54739,0.4849 -0.47499,0.21034 -0.47499,0.21034l-68.53865,0.40351z" data-paper-data="{&quot;index&quot;:null}" fill="#7c3bff" stroke="#000000" stroke-width="2" stroke-linecap="butt"/><path d="M431.66203,330.31796l0.75047,-52.47482c0,0 0.72416,-0.56286 2.28869,-0.56286c7.27423,0 61.45578,-0.56285 61.45578,-0.56285v53.60053z" data-paper-data="{&quot;index&quot;:null}" fill="#342255" stroke="#000000" stroke-width="2" stroke-linecap="butt"/><path d="M432.66782,277.53821c0,0 -0.83983,-0.14598 0.22411,-0.88038c4.97397,-3.43333 57.96834,-59.55916 57.96834,-59.55916c0,0 49.17064,-1.31145 54.7133,-1.31145c0.84204,0 -1.09614,1.70072 -1.09614,1.70072l-47.99993,59.82186z" data-paper-data="{&quot;index&quot;:null}" fill="#9966ff" stroke="#000000" stroke-width="2" stroke-linecap="butt"/><path d="M495.62295,329.97677c0,0 0.67946,0.64621 0.67946,-0.42881c0,-5.57141 -0.67946,-53.16429 -0.67946,-53.16429l49.6225,-60.55599c0,0 0.52206,-1.13274 0.52206,-0.08263c0,5.51497 -0.52206,53.67573 -0.52206,53.67573z" data-paper-data="{&quot;index&quot;:null}" fill="#493078" stroke="#000000" stroke-width="2" stroke-linecap="butt"/><path d="M340.45798,114.62257c0,0 11.88858,23.26119 13.48949,26.41766c0.36611,0.72187 0.08688,0.35061 0.08688,0.35061l-120.64944,0.19538l-12.70028,-26.96365l0.27554,-23.15767h119.99279z" fill="#46155a" stroke="#000000" stroke-width="2" stroke-linecap="round"/><path d="M221.32106,91.64532l-2.34572,-3.06748l117.28617,0.18044c0,0 3.58253,1.60474 4.44796,2.10403c0.54601,0.315 0.24349,0.60258 0.24349,0.60258z" fill="#46155a" stroke="#000000" stroke-width="2" stroke-linecap="round"/><path d="M218.07313,88.21698c0,0 -0.15724,-0.09311 0.1107,0.22507c0.51773,0.6148 2.77634,3.2033 2.77634,3.2033l-0.54132,23.63767l12.81126,26.16384c0,0 -0.37715,31.3102 -0.43723,35.25585c-0.01264,0.83043 -0.34748,0.93992 -0.34748,0.93992l-14.19183,-17.97131l-0.18044,-71.45435z" fill="#591a71" stroke="#000000" stroke-width="2" stroke-linecap="round"/><path d="M353.92409,177.35446h-120.87441v-36.08805l120.71454,0.36088z" fill="#8627ab" stroke="#000000" stroke-width="2" stroke-linecap="round"/><path d="M384.05333,176.70045v-110.31895h69.04316v110.31895z" fill="#7c3bff" stroke="#000000" stroke-width="2" stroke-linecap="butt"/><path d="M443.40788,98.04252v15.02347" fill="none" stroke="#000000" stroke-width="2" stroke-linecap="round"/><path d="M452.10845,155.476h-67.44914v-88.21297h68.47921z" fill="#98ffff" stroke="#000000" stroke-width="2" stroke-linecap="round"/><path d="M384.36619,155.42323l23.80953,-88.4602h7.99444l-24.50469,88.11262z" fill-opacity="0.43529" fill="#ffffff" stroke="none" stroke-width="0" stroke-linecap="butt"/><path d="M414.91363,155.38324l23.80953,-88.4602h7.99444l-24.5047,88.11262z" fill-opacity="0.54118" fill="#ffffff" stroke="none" stroke-width="0" stroke-linecap="butt"/><path d="M110.73685,172.34698l46.01407,-0.48848l30.87144,49.23798l-46.01407,0.48847z" fill="#e85d5d" stroke="#000000" stroke-width="2" stroke-linecap="butt"/><path d="M292.33588,115.24224h-71.83098" fill="none" stroke="#000000" stroke-width="2" stroke-linecap="round"/><path d="M306.1074,114.92925h17.99687" fill="none" stroke="#000000" stroke-width="2" stroke-linecap="round"/><path d="M464.7664,158.83147v-13.29835h9.22743v13.29835z" fill="#5327aa" stroke="#000000" stroke-width="2" stroke-linecap="butt"/><path d="M467.83718,156.607h3.36248" fill="none" stroke="#000000" stroke-width="2" stroke-linecap="round"/><path d="M467.25374,149.8473c0,-1.23171 0.99849,-2.23021 2.23021,-2.23021c1.23171,0 2.23021,0.9985 2.23021,2.23021c0,1.23171 -0.9985,2.23021 -2.23021,2.23021c-1.23171,0 -2.23021,-0.9985 -2.23021,-2.23021z" fill="#9966ff" stroke="#000000" stroke-width="2" stroke-linecap="butt"/><path d="M469.422,150.09509c0,0 6.59294,11.66312 7.31545,16.28818c0.25754,1.64862 -3.32425,-3.95426 -6.67007,-3.94509c-3.34583,0.00917 -9.55453,1.93416 -9.87802,1.59769c-5.56868,-5.79207 -7.05748,-19.88801 -7.05748,-19.88801" fill="none" stroke="#000000" stroke-width="2" stroke-linecap="round"/><path d="M353.21547,140.88163l-119.47387,0.18254l-13.14309,-24.50548l120.50395,-0.18254z" fill="#98ffff" stroke="#000000" stroke-width="2" stroke-linecap="round"/><path d="M452.35851,155.51953h-67.44914v-88.21297h68.47921z" fill="none" stroke="#000000" stroke-width="2" stroke-linecap="round"/><path d="M564.48166,280.9515l5.05683,28.23031l4.04545,3.51587l-20.67678,-0.58684l-2.5846,-29.67803z" data-paper-data="{&quot;index&quot;:null}" fill="#ffea00" stroke="#000000" stroke-width="2.5" stroke-linecap="round"/><path d="M543.69751,282.87487l-2.58461,29.67803l-20.67678,0.58684l4.04546,-3.51586l5.05683,-28.23032z" data-paper-data="{&quot;index&quot;:null}" fill="#ffea00" stroke="#000000" stroke-width="2.5" stroke-linecap="round"/><path d="M516.18178,260.7863l-9.10645,-1.61791l-8.49042,2.09161c0,0 -1.77441,-5.0336 -1.09689,-7.54228c0.67894,-2.51396 5.16625,-7.5257 5.16625,-7.5257l6.07745,6.41765l9.71985,2.32494z" data-paper-data="{&quot;index&quot;:null}" fill="#ffea00" stroke="#000000" stroke-width="2.5" stroke-linecap="round"/><path d="M565.1559,268.12894l6.08044,38.7697l-19.66542,2.17156l-5.29382,-33.18568c0,0 -1.8904,0.09224 -2.77784,0.0073c-0.9866,-0.09443 -2.87585,-0.54841 -2.87585,-0.54841l3.96808,0.85134l-0.78437,32.93561l-20.90265,-0.69218l5.84232,-40.92969z" data-paper-data="{&quot;index&quot;:null}" fill="#b50000" stroke="#000000" stroke-width="2.5" stroke-linecap="round"/><g data-paper-data="{&quot;index&quot;:null}" stroke="#000000" stroke-width="2.5" stroke-linecap="round"><path d="M561.02753,235.25515l2.70935,8.01864l3.15612,28.06659l-11.16471,-2.67795l-17.75358,5.31709l-11.46703,6.2773l1.73986,-14.08261l7.31625,-16.64093l-5.22012,10.94273l-23.65327,11.53222l3.72544,-21.48527l10.48247,-0.89168l9.31018,-9.02782l7.6107,-5.50709z" fill="#0078b5"/><path d="M557.29513,235.74543l-9.90188,6.02783l-5.78879,-6.16801z" fill="#ffea00"/></g><path d="M557.7301,207.51907c9.11807,2.55226 11.36888,9.77762 11.19795,12.23101c-0.09848,1.41336 0.67442,6.37263 -1.30147,9.28108c-1.17323,1.72695 -5.08896,4.2443 -9.76794,5.44759c-4.09011,1.05185 -24.20412,4.83062 -28.97389,-3.21647c-2.18105,-5.8502 2.92645,-7.13843 2.98842,-8.83115c0.06196,-1.69272 1.86397,-12.53143 1.86397,-12.53143c0,0 14.8749,-4.93289 23.99297,-2.38063z" data-paper-data="{&quot;index&quot;:null}" fill="#ffea00" stroke="#000000" stroke-width="2.5" stroke-linecap="round"/><path d="M562.67065,270.98458l-4.60102,7.35537c0,0 -5.69693,-4.16956 -6.80854,-6.32588c-1.27543,-2.47413 -0.42035,-7.69698 -0.42035,-7.69698l8.79634,0.54335c0,0 1.76319,-3.10289 6.65692,-5.88597c4.09923,-2.33125 -3.62336,12.01009 -3.62336,12.01009z" data-paper-data="{&quot;index&quot;:null}" fill="#ffea00" stroke="#000000" stroke-width="2.5" stroke-linecap="round"/><path d="M569.50273,283.93078l-11.69889,-24.52848l5.56866,-6.95859l-1.70296,-17.08105l2.12654,1.9264l7.66071,12.18069z" fill="#0078b5" stroke="#000000" stroke-width="2.5" stroke-linecap="butt"/><path d="M549.24591,208.70733l17.7045,0.87331l1.84529,4.12573l-21.2459,-0.71415l-15.35417,-3.57074l4.81288,-2.91707z" fill="#ffffff" stroke="#000000" stroke-width="2" stroke-linecap="round"/><path d="M548.1747,213.88491l-7.85563,0.98195l-17.31808,-4.10635l8.4805,-0.98195z" fill="#ffffff" stroke="#000000" stroke-width="2" stroke-linecap="round"/><path d="M559.78768,248.02282l0.29332,-11.81499l3.31348,2.67721l4.95346,9.2346z" fill="#0078b5" stroke="none" stroke-width="0" stroke-linecap="butt"/><path d="M535.79682,221.15987l5.20054,-1.62095l-0.54032,3.51205" fill="none" stroke="#000000" stroke-width="2.5" stroke-linecap="round"/><path d="M544.64449,223.72637l0.54032,-3.44451l5.53823,3.10681" fill="none" stroke="#000000" stroke-width="2.5" stroke-linecap="round"/><path d="M534.91881,227.50858l13.91313,1.41833" fill="none" stroke="#000000" stroke-width="2.5" stroke-linecap="round"/></g></g></svg>