<svg version="1.1" xmlns="http://www.w3.org/2000/svg" xmlns:xlink="http://www.w3.org/1999/xlink" width="543.68151" height="220.34588" viewBox="0,0,543.68151,220.34588"><defs><linearGradient x1="412.48841" y1="25.60194" x2="510.20145" y2="25.60194" gradientUnits="userSpaceOnUse" id="color-1"><stop offset="0" stop-color="#1d001c"/><stop offset="1" stop-color="#390036"/></linearGradient></defs><g transform="translate(-102.44922,32.32005)"><g data-paper-data="{&quot;isPaintingLayer&quot;:true}" fill-rule="nonzero" stroke="#000000" stroke-width="2" stroke-linejoin="miter" stroke-miterlimit="10" stroke-dasharray="" stroke-dashoffset="0" style="mix-blend-mode: normal"><path d="M547.71937,104.95009l-0.30012,-135.38643c0,0 0.77886,-0.89407 1.65457,-0.14041c6.99452,6.01964 94.11601,82.56263 94.11601,82.56263c0,0 0.30012,96.30151 0.30012,119.04636c0,7.45166 0,14.83947 0,14.83947z" fill="#9966ff" stroke-linecap="butt"/><path d="" fill="#9966ff" stroke-linecap="butt"/><path d="M200.27921,186.89376l-95.13248,-81.77147h443.15403l95.13248,81.77147z" fill="#5e3f9c" stroke-linecap="butt"/><path d="M105.21893,104.45961v-135.77965h442.94608v135.77965z" fill="#885ae2" stroke-linecap="butt"/><path d="M126.9941,116.69243v-37.67993c0,0 0.23794,-0.25118 1.24929,0.62068c4.37601,3.77242 35.5839,31.13208 35.5839,31.13208v37.67993z" fill="#390036" stroke-linecap="butt"/><path d="M164.67404,148.44518v-37.67993h150.29636v37.67993z" fill="#390036" stroke-linecap="butt"/><path d="M164.59357,110.68481l-35.8099,-30.65919c0,0 -1.9418,-1.23463 -0.42426,-1.23284c11.48229,0.0135 150.54406,1.4094 150.54406,1.4094c0,0 33.13579,27.02325 36.10439,29.53783c0.42923,0.36358 -0.11794,0.94481 -0.11794,0.94481z" fill="#9959d9" stroke-linecap="butt"/><path d="M412.49428,105.72404v-87.41259c0,0 -0.00862,-0.10207 0.60265,0.40733c2.19741,1.83118 15.71436,13.19019 15.71436,13.19019c0,0 0.762,79.58512 0.762,86.53348c0,0.96112 -0.762,0.8791 -0.762,0.8791z" fill="#1d001c" stroke-linecap="butt"/><path d="M429.1998,119.32155v-86.6765h80.80808c0,0 0.34758,-0.70131 0.34758,0.47598c0,7.58291 -0.34758,86.20052 -0.34758,86.20052z" fill="#390036" stroke-linecap="butt"/><path d="M429.57332,32.87196l-15.84114,-13.60999c0,0 -1.91728,-0.93006 -0.99095,-0.93006c6.53508,0 81.53535,0.93006 81.53535,0.93006c0,0 12.96845,10.44429 15.38427,12.51986c0.83027,0.71333 0.45687,1.09014 0.45687,1.09014z" fill="url(#color-1)" stroke-linecap="butt"/><path d="M470.25656,33.3269v85.33194" fill="none" stroke-linecap="round"/><path d="M464.34763,75.037c0,-0.38393 0.31124,-0.69517 0.69517,-0.69517c0.38393,0 0.69517,0.31124 0.69517,0.69517c0,0.38393 -0.31124,0.69517 -0.69517,0.69517c-0.38393,0 -0.69517,-0.31124 -0.69517,-0.69517z" fill="#9966ff" stroke-linecap="butt"/><path d="M475.29116,75.0015c0,-0.38393 0.31124,-0.69517 0.69517,-0.69517c0.38393,0 0.69517,0.31124 0.69517,0.69517c0,0.38393 -0.31124,0.69517 -0.69517,0.69517c-0.38393,0 -0.69517,-0.31123 -0.69517,-0.69517z" fill="#9966ff" stroke-linecap="butt"/><path d="M165.24674,105.70371c0,0 -13.96592,-8.15713 -17.78932,-12.52153c-3.84811,-4.39261 -5.22569,-13.75006 -5.22569,-13.75006l23.21673,-0.839c0,0 8.13309,4.19387 11.10174,7.58259c4.24011,4.84008 11.91326,18.68901 11.91326,18.68901z" fill="#6c3f99" stroke-linecap="butt"/><path d="M163.49378,99.82849l-16.06638,-17.47881" fill="none" stroke-linecap="round"/><path d="M279.46947,80.19245l35.78629,29.7379l4.28427,44.60685l-68.54839,1.26008l-7.8125,-5.29234l1.76411,-40.07056l-25.20161,-30.24194z" fill="#4c40ff" stroke-linecap="round"/><path d="M249.47955,147.98478l60.73589,-0.25202" fill="none" stroke-linecap="round"/><path d="M335.37764,36.27599l-9.02935,-6.20767h74.20993l9.02935,6.20767z" fill="#390036" stroke-linecap="butt"/><path d="M337.27383,78.80421l-9.02935,-6.20767h74.20994l9.02934,6.20767z" fill="#390036" stroke-linecap="butt"/><path d="M215.16797,59.21484l7.9133,-59.19148l48.16201,6.43877l-7.9133,59.19148z" fill="#8d7bb1" stroke-linecap="butt"/><path d="M215.13496,15.27886l-5.77812,-8.66719l24.09185,-16.06123l5.77813,8.66719z" fill-opacity="0.43529" fill="#f4ff00" stroke-linecap="butt"/><path d="M251.88684,69.24935l-4.51447,-6.7717l18.82303,-12.54868l4.51446,6.7717z" fill-opacity="0.43529" fill="#f4ff00" stroke-linecap="butt"/><path d="M545.15647,94.68684l-0.72307,18.07665c0,0 -3.34389,3.15228 -14.10112,2.94846c-7.74087,-0.14666 -13.49589,-3.18948 -13.49589,-3.18948l0.60255,-18.31767z" fill="#1d0029" stroke-linecap="round"/><path d="M544.90559,94.02172c0,1.94239 -6.16724,3.517 -13.77491,3.517c-7.60767,0 -13.77491,-1.57461 -13.77491,-3.517c0,-1.94239 6.16724,-3.517 13.77491,-3.517c7.60767,0 13.77491,1.57462 13.77491,3.517z" fill="#0e0000" stroke-linecap="butt"/><path d="M532.50282,67.45137l-0.12051,25.18679c0,0 -1.07959,1.18274 -1.68419,1.23771c-0.70542,0.06413 -2.29268,-0.87617 -2.29268,-0.87617l0.24103,-25.3073c0,0 1.24308,-1.05685 1.91973,-1.09914c0.59941,-0.03746 1.93662,0.85811 1.93662,0.85811z" fill="#220013" stroke-linecap="round"/><path d="M541.851,64.91139c0,3.19126 2.82668,7.06329 1.26914,9.37313c-0.96357,1.42897 -2.97426,4.02849 -5.21092,4.67813c-2.58842,0.75181 -5.47948,-0.56133 -7.4005,-0.56133c-1.97654,0 -4.44283,1.44927 -6.66685,0.96434c-2.21007,-0.48189 -4.18091,-2.89225 -5.1942,-4.70048c-1.19869,-2.13908 0.51876,-6.99034 0.51876,-9.75379c0,-2.28307 0.64737,-3.86654 2.1789,-5.17664c1.06336,-0.90962 2.90055,-1.61795 3.79928,-2.62595c2.03086,-2.27779 2.35235,-5.68734 5.36411,-5.68734c3.01531,0 3.74238,4.08398 5.77396,6.36654c0.58039,0.6521 2.721,1.05331 3.3836,1.56014c1.83636,1.40465 2.18472,2.72378 2.18472,5.56326z" fill="#314d1e" stroke-linecap="butt"/><path d="M254.872,111.4885h16.14086" fill="none" stroke-linecap="round"/><path d="M298.34229,110.20457h16.87454" fill="none" stroke-linecap="round"/><path d="M231.00027,18.00749c3.46291,-2.12536 7.0836,-2.23987 10.19305,-1.84385c3.43123,0.43699 7.84728,2.191 9.52421,4.35501c1.67692,2.16401 -0.74405,6.97545 -0.74405,6.97545c0,0 6.04625,7.7937 -3.99926,10.50967c-5.55642,1.50227 -18.77466,0.66737 -17.76414,-8.37054c1.27754,-11.42609 -0.67272,-9.50038 2.79018,-11.62574z" fill="#c5b056" stroke-linecap="round"/><path d="M241.82676,10.84603l9.1851,-2.60417l10.68035,11.43973l-10.57355,1.4881l1.60205,6.69643l-8.86469,-3.34821l-9.39871,1.02307l-9.82593,7.16146l2.13607,-7.99851l-3.95173,-1.95312l2.77689,-5.67336l-1.49525,-2.60417l3.20411,-2.69717l1.81566,2.41815l1.38845,-6.69643h4.05853l-1.38845,5.58036l11.85519,-6.04539z" fill="#003f96" stroke-linecap="round"/><path d="M242.93198,33.26785l-4.6056,2.4001l-2.59471,-2.78931l11.15724,-0.25947" fill="none" stroke-linecap="round"/><path d="M234.23971,25.22429l4.47587,3.17852l-1.16762,1.88116" fill="none" stroke-linecap="round"/><path d="M243.25632,30.08936l-1.29735,-2.59471l5.18941,-1.55682" fill="none" stroke-linecap="round"/><path d="M257.31007,35.5279l5.6263,0.81433c0,0 -1.54077,2.3965 -2.10318,3.92423c-0.9137,2.48198 -2.85685,9.54927 -2.85685,9.54927l-9.40184,-0.81433c0,0 -0.91979,-2.85069 -0.69789,-4.26384c0.24472,-1.55849 2.10446,-4.69381 2.10446,-4.69381l6.21854,1.03642z" fill="#c5b056" stroke-linecap="round"/><path d="M235.86745,51.58406l-11.36364,5.5476l-5.90551,-6.26342l7.60558,-2.41589z" fill="#c5b056" stroke-linecap="round"/><path d="M243.75997,47.96533c-1.06274,1.4267 -3.67518,1.27901 -5.83504,-0.32986c-2.15986,-1.60888 -3.04925,-4.06969 -1.98651,-5.49639c1.06274,-1.4267 3.67518,-1.27901 5.83504,0.32986c2.15986,1.60888 3.04925,4.06969 1.98651,5.49639z" fill="#454545" stroke-linecap="butt"/><path d="M230.05141,49.4366l6.62133,-2.41589" fill="none" stroke-linecap="round"/><path d="M237.12013,48.09444l-4.92126,1.87903" fill="none" stroke-linecap="round"/><g fill="#1f001e" stroke-linecap="butt"><path d="M564.39662,119.23739v-83.7335l28.5114,23.40937v84.63386z"/><path d="M586.90324,96.88047c1.37569,1.45047 0.37284,5.17947 -0.62531,4.12706c-1.37569,-1.45047 -0.37284,-5.17947 0.62531,-4.12706z"/></g></g></g></svg>