<svg version="1.1" xmlns="http://www.w3.org/2000/svg" xmlns:xlink="http://www.w3.org/1999/xlink" width="54.446" height="72.95373" viewBox="0,0,54.446,72.95373"><g transform="translate(-290.60856,-144.69599)"><g data-paper-data="{&quot;isPaintingLayer&quot;:true}" fill-rule="nonzero" stroke-width="4" stroke-linejoin="miter" stroke-miterlimit="10" stroke-dasharray="" stroke-dashoffset="0" style="mix-blend-mode: normal"><path d="M290.60856,217.64972v-72.95373h54.446v72.95373z" fill="none" stroke="none" stroke-linecap="butt"/><path d="M299.11826,179.33817c0,0 5.69163,-2.14809 9.29139,-2.24476c2.09122,-0.05616 6.61363,0.69306 10.49178,0.89954c4.86259,0.2589 10.05642,-1.24022 14.11929,-1.24298c3.88622,-0.00263 6.75044,1.49648 6.75044,1.49648l0.45003,28.38459c0,0 -13.71231,2.70258 -20.54957,2.72843c-6.9129,0.02613 -20.70339,-2.57247 -20.70339,-2.57247z" fill-opacity="0.74902" fill="#ff7b00" stroke="#ff7b00" stroke-linecap="round"/><path d="M297.94782,155.88603c0,0 3.45794,-4.25242 20.38119,-4.04796c19.50783,0.23569 21.91402,3.82882 21.91402,3.82882v51.2802c0,0 -6.92748,4.46989 -20.81888,4.38292c-16.84733,-0.10547 -21.47632,-4.38292 -21.47632,-4.38292v-51.06105z" fill-opacity="0.22745" fill="#00ffff" stroke="#ffffff" stroke-linecap="round"/></g></g></svg>