<svg version="1.1" xmlns="http://www.w3.org/2000/svg" xmlns:xlink="http://www.w3.org/1999/xlink" width="2058.92981" height="834.14685" viewBox="0,0,2058.92981,834.14685"><defs><linearGradient x1="930.65715" y1="-48.41732" x2="1301.71342" y2="-48.41732" gradientUnits="userSpaceOnUse" id="color-1"><stop offset="0" stop-color="#1d001c"/><stop offset="1" stop-color="#390036"/></linearGradient></defs><g transform="translate(243.86278,267.32331)"><g data-paper-data="{&quot;isPaintingLayer&quot;:true}" fill-rule="nonzero" stroke-linejoin="miter" stroke-miterlimit="10" stroke-dasharray="" stroke-dashoffset="0" style="mix-blend-mode: normal"><path d="M-160.42192,452.68201v-545.91932h962.34835v545.91932z" fill="#000000" stroke="#000000" stroke-width="2" stroke-linecap="butt"/><path d="" fill="#9966ff" stroke="#000000" stroke-width="5.5" stroke-linecap="butt"/><path d="M1444.18428,252.89999l-1.13967,-514.11753c0,0 2.95766,-3.39514 6.28308,-0.53319c26.56104,22.85903 357.3969,313.52399 357.3969,313.52399c0,0 1.13967,365.69614 1.13967,452.06761c0,28.29699 0,56.35152 0,56.35152z" fill="#9966ff" stroke="#000000" stroke-width="5.5" stroke-linecap="butt"/><path d="M124.81221,564.07354l-361.25685,-310.51964h1682.8367l361.25685,310.51964z" fill="#5e3f9c" stroke="#000000" stroke-width="5.5" stroke-linecap="butt"/><path d="M-236.17046,251.03743v-515.61074h1682.04702v515.61074z" fill="#885ae2" stroke="#000000" stroke-width="5.5" stroke-linecap="butt"/><path d="M-153.48129,297.49044v-143.08607c0,0 0.90356,-0.95383 4.74406,2.35698c16.61749,14.32542 135.12659,118.22121 135.12659,118.22121v143.08607z" fill="#390036" stroke="#000000" stroke-width="5.5" stroke-linecap="butt"/><path d="M-10.39516,418.06858v-143.08606h570.73662v143.08606z" fill="#390036" stroke="#000000" stroke-width="5.5" stroke-linecap="butt"/><path d="M-10.70069,274.67705l-135.9848,-116.42546c0,0 -7.37381,-4.68839 -1.61109,-4.68159c43.60294,0.05126 571.67723,5.35206 571.67723,5.35206c0,0 125.83012,102.61831 137.1031,112.1672c1.62996,1.38066 -0.44786,3.58783 -0.44786,3.58783z" fill="#9959d9" stroke="#000000" stroke-width="5.5" stroke-linecap="butt"/><path d="M930.67944,255.83898v-331.94128c0,0 -0.03274,-0.38761 2.2885,1.54679c8.34447,6.95374 59.67384,50.08854 59.67384,50.08854c0,0 2.89362,302.21718 2.89362,328.60293c0,3.64977 -2.89362,3.3383 -2.89362,3.3383z" fill="#1d001c" stroke="#000000" stroke-width="5.5" stroke-linecap="butt"/><path d="M994.11711,307.47425v-329.14605h306.86126c0,0 1.3199,-2.66315 1.3199,1.8075c0,28.79541 -1.3199,327.33855 -1.3199,327.33855z" fill="#390036" stroke="#000000" stroke-width="5.5" stroke-linecap="butt"/><path d="M995.53552,-20.8101l-60.15527,-51.68268c0,0 -7.2807,-3.53182 -3.76305,-3.53182c24.81637,0 309.62299,3.53182 309.62299,3.53182c0,0 49.2465,39.66123 58.42035,47.54301c3.15288,2.7088 1.73492,4.13971 1.73492,4.13971z" fill="url(#color-1)" stroke="#000000" stroke-width="5.5" stroke-linecap="butt"/><path d="M1150.02637,-19.0825v324.0402" fill="none" stroke="#000000" stroke-width="5.5" stroke-linecap="round"/><path d="M1127.58776,139.30781c0,-1.45794 1.18191,-2.63984 2.63984,-2.63984c1.45794,0 2.63984,1.18191 2.63984,2.63984c0,1.45794 -1.18191,2.63984 -2.63984,2.63984c-1.45794,0 -2.63984,-1.18191 -2.63984,-2.63984z" fill="#9966ff" stroke="#000000" stroke-width="5.5" stroke-linecap="butt"/><path d="M1169.1448,139.17299c0,-1.45794 1.18191,-2.63984 2.63984,-2.63984c1.45794,0 2.63984,1.18191 2.63984,2.63984c0,1.45794 -1.18191,2.63984 -2.63984,2.63984c-1.45794,0 -2.63984,-1.18187 -2.63984,-2.63984z" fill="#9966ff" stroke="#000000" stroke-width="5.5" stroke-linecap="butt"/><path d="M-8.22038,255.76179c0,0 -53.03429,-30.97595 -67.5533,-47.54936c-14.61285,-16.68054 -19.84408,-52.21459 -19.84408,-52.21459l88.1634,-3.18603c0,0 30.88466,15.92584 42.15784,28.79418c16.10143,18.37976 45.23951,70.9698 45.23951,70.9698z" fill="#6c3f99" stroke="#000000" stroke-width="5.5" stroke-linecap="butt"/><path d="M-14.87709,233.45117l-61.0106,-66.37417" fill="none" stroke="#000000" stroke-width="5.5" stroke-linecap="round"/><path d="M425.52994,158.88512l135.89515,112.92695l16.26912,169.3904l-260.30621,4.78504l-29.66725,-20.09717l6.69905,-152.16427l-95.70081,-114.84099z" fill="#4c40ff" stroke="#000000" stroke-width="5.5" stroke-linecap="round"/><path d="M542.28494,415.36324l-230.63896,0.95702" fill="none" stroke="#000000" stroke-width="5.5" stroke-linecap="round"/><path d="M637.83611,-7.8836l-34.28813,-23.57305h281.80538l34.28813,23.57305z" fill="#390036" stroke="#000000" stroke-width="5.5" stroke-linecap="butt"/><path d="M645.03667,153.61341l-34.28812,-23.57306h281.80542l34.2881,23.57306z" fill="#390036" stroke="#000000" stroke-width="5.5" stroke-linecap="butt"/><path d="M181.35091,79.22455l30.05003,-224.77421l182.8908,24.45064l-30.05003,224.77421z" fill="#8d7bb1" stroke="#000000" stroke-width="5.5" stroke-linecap="butt"/><path d="M181.22556,-87.61827l-21.94188,-32.91286l91.48658,-60.99104l21.94192,32.91286z" fill-opacity="0.43529" fill="#f4ff00" stroke="#000000" stroke-width="5.5" stroke-linecap="butt"/><path d="M320.78744,117.3297l-17.14328,-25.71491l71.47872,-47.65246l17.14325,25.71491z" fill-opacity="0.43529" fill="#f4ff00" stroke="#000000" stroke-width="5.5" stroke-linecap="butt"/><path d="M1434.4519,213.92623l-2.74579,68.64443c0,0 -12.69811,11.9705 -53.54771,11.1965c-29.39524,-0.55692 -51.24941,-12.11176 -51.24941,-12.11176l2.28813,-69.55967z" fill="#1d0029" stroke="#000000" stroke-width="5.5" stroke-linecap="round"/><path d="M1433.49925,211.40051c0,7.37605 -23.41953,13.35547 -52.30896,13.35547c-28.88943,0 -52.30896,-5.97943 -52.30896,-13.35547c0,-7.37605 23.41953,-13.35549 52.30896,-13.35549c28.88943,0 52.30896,5.97947 52.30896,13.35549z" fill="#0e0000" stroke="#000000" stroke-width="5.5" stroke-linecap="butt"/><path d="M1386.40083,110.50203l-0.45762,95.64451c0,0 -4.09965,4.49135 -6.39557,4.70009c-2.67877,0.24352 -8.70624,-3.32717 -8.70624,-3.32717l0.91529,-96.10215c0,0 4.72048,-4.01329 7.29,-4.17388c2.27621,-0.14225 7.35413,3.2586 7.35413,3.2586z" fill="#220013" stroke="#000000" stroke-width="5.5" stroke-linecap="round"/><path d="M1421.89969,100.8567c0,12.11851 10.73405,26.8222 4.81944,35.59361c-3.65907,5.42639 -11.29447,15.29782 -19.78798,17.76477c-9.82929,2.85493 -20.80783,-2.13161 -28.10273,-2.13161c-7.50573,0 -16.87123,5.50348 -25.31674,3.662c-8.39253,-1.82993 -15.87663,-10.98306 -19.7245,-17.84965c-4.55191,-8.12295 1.96995,-26.54518 1.96995,-37.03912c0,-8.66975 2.45833,-14.68282 8.27417,-19.65781c4.03802,-3.45419 11.01457,-6.14403 14.42741,-9.97181c7.71201,-8.6497 8.93284,-21.59715 20.36971,-21.59715c11.45036,0 14.21135,15.50854 21.92608,24.17635c2.20398,2.47629 10.33276,3.99985 12.84892,5.92449c6.9734,5.33403 8.29627,10.3433 8.29627,21.12596z" fill="#314d1e" stroke="#000000" stroke-width="5.5" stroke-linecap="butt"/><path d="M332.12332,277.729h61.29342" fill="none" stroke="#000000" stroke-width="5.5" stroke-linecap="round"/><path d="M497.19774,272.85339h64.07952" fill="none" stroke="#000000" stroke-width="5.5" stroke-linecap="round"/><path d="M241.47262,-77.25656c13.15008,-8.07086 26.89931,-8.5057 38.70716,-7.00185c13.02978,1.65943 29.79932,8.32012 36.16732,16.53776c6.36795,8.21763 -2.82547,26.48863 -2.82547,26.48863c0,0 22.96008,29.59585 -15.18682,39.90951c-21.09999,5.70473 -71.29504,2.53428 -67.45768,-31.78635c4.85134,-43.38952 -2.5546,-36.07683 10.59544,-44.14769z" fill="#c5b056" stroke="#000000" stroke-width="5.5" stroke-linecap="round"/><path d="M282.5852,-104.45154l34.87957,-9.88909l40.55765,43.44132l-40.15208,5.65092l6.08363,25.42907l-33.66284,-12.71451l-35.69074,3.88501l-37.31306,27.195l8.11154,-30.37361l-15.00634,-7.41679l10.54498,-21.54406l-5.67807,-9.88909l12.16732,-10.24226l6.8948,9.18269l5.27252,-25.42907h15.41189l-5.27252,21.1909l45.01899,-22.95681z" fill="#003f96" stroke="#000000" stroke-width="5.5" stroke-linecap="round"/><path d="M286.78219,-19.3067l-17.48934,9.11415l-9.85318,-10.59215l42.36859,-0.98531" fill="none" stroke="#000000" stroke-width="5.5" stroke-linecap="round"/><path d="M253.77409,-49.85142l16.9967,12.07014l-4.43393,7.14354" fill="none" stroke="#000000" stroke-width="5.5" stroke-linecap="round"/><path d="M288.01383,-31.37676l-4.92657,-9.85317l19.70631,-5.91188" fill="none" stroke="#000000" stroke-width="5.5" stroke-linecap="round"/><path d="M341.38166,-10.72436l21.36536,3.09234c0,0 -5.85094,9.1005 -7.98664,14.90191c-3.4697,9.4251 -10.84862,36.26247 -10.84862,36.26247l-35.70263,-3.09234c0,0 -3.49281,-10.82524 -2.65017,-16.19154c0.9293,-5.91823 7.99149,-17.82431 7.99149,-17.82431l23.61434,3.93571z" fill="#c5b056" stroke="#000000" stroke-width="5.5" stroke-linecap="round"/><path d="M259.95527,50.24739l-43.15238,21.0665l-22.42563,-23.78476l28.88149,-9.17412z" fill="#c5b056" stroke="#000000" stroke-width="5.5" stroke-linecap="round"/><path d="M289.9264,36.50558c-4.03566,5.41776 -13.95615,4.85693 -22.15802,-1.25261c-8.20187,-6.10958 -11.57925,-15.45427 -7.54359,-20.87203c4.03566,-5.41776 13.95615,-4.85693 22.15802,1.25261c8.20187,6.10958 11.57925,15.45427 7.54359,20.87203z" fill="#454545" stroke="#000000" stroke-width="5.5" stroke-linecap="butt"/><path d="M237.8694,42.0926l25.14389,-9.17412" fill="none" stroke="#000000" stroke-width="5.5" stroke-linecap="round"/><path d="M264.71222,36.99588l-18.68802,7.13544" fill="none" stroke="#000000" stroke-width="5.5" stroke-linecap="round"/><g fill="#1f001e" stroke="#000000" stroke-width="5.5" stroke-linecap="butt"><path d="M1507.51461,307.15468v-317.97026l108.26942,88.89492v321.38931z"/><path d="M1592.98142,222.25634c5.22405,5.50802 1.41583,19.66856 -2.37456,15.67213c-5.22405,-5.50802 -1.41583,-19.66856 2.37456,-15.67213z"/></g><path d="M184.91998,403.63676v-386.21308h225.81369v386.21309z" fill="none" stroke="none" stroke-width="0" stroke-linecap="butt"/><path d="M186.72613,366.79661v-397.16206h232.2154v397.16206z" fill="none" stroke="none" stroke-width="0" stroke-linecap="butt"/><path d="M196.3287,323.77186v-382.78816h223.81118v382.78816z" fill="none" stroke="none" stroke-width="0" stroke-linecap="butt"/><path d="M223.70174,450.77763v-392.95912h229.758v392.95912z" fill="none" stroke="none" stroke-width="0" stroke-linecap="butt"/><path d="M323.76028,346.31598l-7.4575,93.05653l-59.65992,1.84006l11.67259,-11.02412l14.59074,-88.51717z" fill="#ffea00" stroke="#000000" stroke-width="5" stroke-linecap="round"/><path d="M398.83126,341.51889l14.59074,88.51717l11.67261,11.02412l-59.65994,-1.84006l-7.4575,-93.05653z" data-paper-data="{&quot;index&quot;:null}" fill="#ffea00" stroke="#000000" stroke-width="5" stroke-linecap="round"/><path d="M376.0131,223.31177c0,0 11.97053,24.12528 18.79925,37.82241c7.98603,16.01847 26.19072,52.41907 26.19072,52.41907l20.90022,15.88105c0,0 -12.39377,16.2332 -19.27936,19.50093c-6.87114,3.26087 -21.99097,0.08488 -21.99097,0.08488l2.3573,-27.29801c0,0 -17.4724,-36.2716 -25.09987,-52.10571c-6.38911,-13.26342 -17.61143,-36.56026 -17.61143,-36.56026z" data-paper-data="{&quot;index&quot;:null}" fill="#ffea00" stroke="#000000" stroke-width="5" stroke-linecap="round"/><path d="M292.51232,228.29706c0,0 -5.69139,25.22482 -8.93161,39.58588c-3.86825,17.14449 -12.72935,56.41784 -12.72935,56.41784l8.44037,26.0672c0,0 -13.82294,7.05204 -21.6954,5.32381c-6.86123,-1.50626 -22.92407,-15.11913 -22.92407,-15.11913l16.78997,-20.17732c0,0 9.54558,-39.56383 13.72172,-56.96864c3.57093,-14.88256 13.96581,-41.08296 13.96581,-41.08296z" fill="#ffea00" stroke="#000000" stroke-width="5" stroke-linecap="round"/><path d="M386.01411,299.52025l22.04824,44.74495l-55.12058,10.37563l-12.64531,-27.88453l7.13326,-0.32424l-11.99684,-0.64849l-5.83629,29.1815l-56.74179,-6.80903l8.10597,-46.69038z" fill="#65ff71" stroke="#000000" stroke-width="5" stroke-linecap="round"/><g stroke="#000000" stroke-width="5" stroke-linecap="round"><path d="M359.83696,197.96297l51.36076,50.37796l-35.43035,16.39032l-13.44102,-42.37233c0,0 3.47442,21.80718 7.2913,33.81439c4.1252,12.97715 16.60678,41.36495 16.60678,41.36495c0,0 -34.27465,13.06435 -52.22804,13.85397c-17.89353,0.78699 -55.31329,-9.12414 -55.31329,-9.12414l10.70434,-78.66449l-5.70674,41.60273l-34.23073,-14.85092l43.42262,-51.89456z" fill="#98c8ff"/><path d="M348.91511,199.06291l-16.70273,19.34001l-28.57047,-18.90047z" fill="#ffea00"/></g><path d="M370.75014,120.67297c0,0 5.19941,33.98519 5.37821,39.29277c0.1788,5.30758 14.91576,9.34685 8.62265,27.69038c-13.76252,25.23194 -71.79863,13.3835 -83.60006,10.08537c-13.50051,-3.77297 -24.79882,-11.66621 -28.18401,-17.08113c-5.70116,-9.11954 -3.47108,-24.6695 -3.75522,-29.10115c-0.49322,-7.69272 31.53738,-31.63306 31.53738,-31.63306z" fill="#ffea00" stroke="#000000" stroke-width="5" stroke-linecap="round"/><path d="M266.82524,146.75369c0,0 -7.78663,-0.95263 -10.25827,-3.64562c-2.98903,-3.25674 -6.42059,-14.52689 -6.42059,-14.52689c0,0 1.33405,-10.64779 5.34264,-14.35465c3.68045,-3.40343 17.80862,-7.05404 17.80862,-7.05404c0,0 -5.51951,-7.87837 -6.21892,-12.03104c-0.61825,-3.67078 2.23591,-11.61811 2.23591,-11.61811c0,0 12.02858,-0.58196 16.55026,0.86996c4.52307,1.45237 10.58402,7.84288 10.58402,7.84288c0,0 5.18234,-12.32812 10.99501,-15.06598c5.63283,-2.65314 23.35846,-1.115 23.35846,-1.115c0,0 10.65297,-7.97554 16.78663,-9.14179c5.60096,-1.06497 18.5626,2.42046 18.5626,2.42046l-9.95753,12.44692c0,0 22.61299,0.10992 30.66885,1.7484c6.04793,1.23008 13.39322,7.21337 13.39322,7.21337c0,0 9.62571,11.53458 11.08733,18.84271c1.66502,8.32509 -1.62767,28.45556 -1.62767,28.45556l-10.20646,-10.95328c0,0 3.22339,13.65616 2.84746,19.92161c-0.37081,6.1803 -5.0879,17.41913 -5.0879,17.41913c0,0 -6.32591,-2.82031 -9.01643,-4.9727c-2.18008,-1.74408 -10.91942,-10.33345 -12.29919,-12.98951c-1.81734,-3.49838 -3.57822,-13.15507 -3.57822,-13.15507c0,0 -7.62699,10.18658 -13.89601,13.27695c-5.3764,2.65032 -21.45323,4.14871 -21.45323,4.14871c0,0 -8.99271,-3.59333 -11.73009,-7.31446c-2.56162,-3.4822 -4.20194,-14.34318 -4.20194,-14.34318c0,0 -18.08109,16.17859 -24.62726,19.84079c-3.94308,2.20591 -10.97091,0.07427 -10.97091,0.07427c0,0 0.8978,10.8947 -1.90851,16.06996c-3.44947,6.36133 -17.25974,19.27926 -17.25974,19.27926c0,0 -2.28026,-15.16087 -2.19077,-21.65008c0.07311,-5.30074 2.68864,-14.44597 2.68864,-14.44597" fill="#483100" stroke="#000000" stroke-width="5" stroke-linecap="round"/><path d="M310.74316,153.45696l23.00384,1.72529" fill="#ffffff" stroke="#000000" stroke-width="5" stroke-linecap="round"/><path d="M353.49196,155.56565l16.67778,1.34188" fill="#ffffff" stroke="#000000" stroke-width="5" stroke-linecap="round"/><path d="M354.45048,174.5438l-18.21137,-0.38339" fill="#ffffff" stroke="#000000" stroke-width="5" stroke-linecap="round"/></g></g></svg>