<svg version="1.1" xmlns="http://www.w3.org/2000/svg" xmlns:xlink="http://www.w3.org/1999/xlink" width="2058.92981" height="834.14685" viewBox="0,0,2058.92981,834.14685"><defs><linearGradient x1="930.65715" y1="-48.41732" x2="1301.71342" y2="-48.41732" gradientUnits="userSpaceOnUse" id="color-1"><stop offset="0" stop-color="#1d001c"/><stop offset="1" stop-color="#390036"/></linearGradient></defs><g transform="translate(243.86277,267.32331)"><g data-paper-data="{&quot;isPaintingLayer&quot;:true}" fill-rule="nonzero" stroke-linejoin="miter" stroke-miterlimit="10" stroke-dasharray="" stroke-dashoffset="0" style="mix-blend-mode: normal"><path d="M-160.42192,452.68201v-545.91932h962.34835v545.91932z" fill="#000000" stroke="#000000" stroke-width="2" stroke-linecap="butt"/><path d="" fill="#9966ff" stroke="#000000" stroke-width="5.5" stroke-linecap="butt"/><path d="M1444.18428,252.89999l-1.13967,-514.11753c0,0 2.95766,-3.39514 6.28308,-0.53319c26.56104,22.85903 357.3969,313.52399 357.3969,313.52399c0,0 1.13967,365.69614 1.13967,452.06761c0,28.29699 0,56.35152 0,56.35152z" fill="#9966ff" stroke="#000000" stroke-width="5.5" stroke-linecap="butt"/><path d="M124.81221,564.07354l-361.25685,-310.51964h1682.8367l361.25685,310.51964z" fill="#5e3f9c" stroke="#000000" stroke-width="5.5" stroke-linecap="butt"/><path d="M-236.17046,251.03743v-515.61074h1682.04702v515.61074z" fill="#885ae2" stroke="#000000" stroke-width="5.5" stroke-linecap="butt"/><path d="M-153.48128,297.49044v-143.08607c0,0 0.90356,-0.95383 4.74406,2.35698c16.61749,14.32542 135.12659,118.22121 135.12659,118.22121v143.08607z" fill="#390036" stroke="#000000" stroke-width="5.5" stroke-linecap="butt"/><path d="M-10.39516,418.06858v-143.08606h570.73662v143.08606z" fill="#390036" stroke="#000000" stroke-width="5.5" stroke-linecap="butt"/><path d="M-10.70069,274.67705l-135.9848,-116.42546c0,0 -7.37381,-4.68839 -1.61109,-4.68159c43.60294,0.05126 571.67723,5.35206 571.67723,5.35206c0,0 125.83012,102.61831 137.1031,112.1672c1.62996,1.38066 -0.44786,3.58783 -0.44786,3.58783z" fill="#9959d9" stroke="#000000" stroke-width="5.5" stroke-linecap="butt"/><path d="M930.67944,255.83898v-331.94128c0,0 -0.03274,-0.38761 2.2885,1.54679c8.34447,6.95374 59.67384,50.08854 59.67384,50.08854c0,0 2.89362,302.21718 2.89362,328.60293c0,3.64977 -2.89362,3.3383 -2.89362,3.3383z" fill="#1d001c" stroke="#000000" stroke-width="5.5" stroke-linecap="butt"/><path d="M994.11711,307.47425v-329.14605h306.86126c0,0 1.3199,-2.66315 1.3199,1.8075c0,28.79541 -1.3199,327.33855 -1.3199,327.33855z" fill="#390036" stroke="#000000" stroke-width="5.5" stroke-linecap="butt"/><path d="M995.53552,-20.8101l-60.15527,-51.68268c0,0 -7.2807,-3.53182 -3.76305,-3.53182c24.81637,0 309.62299,3.53182 309.62299,3.53182c0,0 49.2465,39.66123 58.42035,47.54301c3.15288,2.7088 1.73492,4.13971 1.73492,4.13971z" fill="url(#color-1)" stroke="#000000" stroke-width="5.5" stroke-linecap="butt"/><path d="M1150.02637,-19.0825v324.0402" fill="none" stroke="#000000" stroke-width="5.5" stroke-linecap="round"/><path d="M1127.58776,139.30781c0,-1.45794 1.18191,-2.63984 2.63984,-2.63984c1.45794,0 2.63984,1.18191 2.63984,2.63984c0,1.45794 -1.18191,2.63984 -2.63984,2.63984c-1.45794,0 -2.63984,-1.18191 -2.63984,-2.63984z" fill="#9966ff" stroke="#000000" stroke-width="5.5" stroke-linecap="butt"/><path d="M1169.1448,139.17299c0,-1.45794 1.18191,-2.63984 2.63984,-2.63984c1.45794,0 2.63984,1.18191 2.63984,2.63984c0,1.45794 -1.18191,2.63984 -2.63984,2.63984c-1.45794,0 -2.63984,-1.18187 -2.63984,-2.63984z" fill="#9966ff" stroke="#000000" stroke-width="5.5" stroke-linecap="butt"/><path d="M-8.22038,255.76179c0,0 -53.03429,-30.97595 -67.5533,-47.54936c-14.61285,-16.68054 -19.84408,-52.21459 -19.84408,-52.21459l88.1634,-3.18603c0,0 30.88466,15.92584 42.15784,28.79418c16.10143,18.37976 45.23951,70.9698 45.23951,70.9698z" fill="#6c3f99" stroke="#000000" stroke-width="5.5" stroke-linecap="butt"/><path d="M-14.87709,233.45117l-61.0106,-66.37417" fill="none" stroke="#000000" stroke-width="5.5" stroke-linecap="round"/><path d="M425.52994,158.88512l135.89515,112.92695l16.26912,169.3904l-260.30621,4.78504l-29.66725,-20.09717l6.69905,-152.16427l-95.70081,-114.84099z" fill="#4c40ff" stroke="#000000" stroke-width="5.5" stroke-linecap="round"/><path d="M542.28494,415.36324l-230.63896,0.95702" fill="none" stroke="#000000" stroke-width="5.5" stroke-linecap="round"/><path d="M637.83611,-7.8836l-34.28813,-23.57305h281.80538l34.28813,23.57305z" fill="#390036" stroke="#000000" stroke-width="5.5" stroke-linecap="butt"/><path d="M645.03667,153.61341l-34.28812,-23.57306h281.80542l34.2881,23.57306z" fill="#390036" stroke="#000000" stroke-width="5.5" stroke-linecap="butt"/><path d="M181.35091,79.22455l30.05003,-224.77421l182.8908,24.45064l-30.05003,224.77421z" fill="#8d7bb1" stroke="#000000" stroke-width="5.5" stroke-linecap="butt"/><path d="M181.22556,-87.61827l-21.94188,-32.91286l91.48658,-60.99104l21.94192,32.91286z" fill-opacity="0.43529" fill="#f4ff00" stroke="#000000" stroke-width="5.5" stroke-linecap="butt"/><path d="M320.78744,117.3297l-17.14328,-25.71491l71.47872,-47.65246l17.14325,25.71491z" fill-opacity="0.43529" fill="#f4ff00" stroke="#000000" stroke-width="5.5" stroke-linecap="butt"/><path d="M1434.4519,213.92623l-2.74579,68.64443c0,0 -12.69811,11.9705 -53.54771,11.1965c-29.39524,-0.55692 -51.24941,-12.11176 -51.24941,-12.11176l2.28813,-69.55967z" fill="#1d0029" stroke="#000000" stroke-width="5.5" stroke-linecap="round"/><path d="M1433.49925,211.40051c0,7.37605 -23.41953,13.35547 -52.30896,13.35547c-28.88943,0 -52.30896,-5.97943 -52.30896,-13.35547c0,-7.37605 23.41953,-13.35549 52.30896,-13.35549c28.88943,0 52.30896,5.97947 52.30896,13.35549z" fill="#0e0000" stroke="#000000" stroke-width="5.5" stroke-linecap="butt"/><path d="M1386.40083,110.50203l-0.45762,95.64451c0,0 -4.09965,4.49135 -6.39557,4.70009c-2.67877,0.24352 -8.70624,-3.32717 -8.70624,-3.32717l0.91529,-96.10215c0,0 4.72048,-4.01329 7.29,-4.17388c2.27621,-0.14225 7.35413,3.2586 7.35413,3.2586z" fill="#220013" stroke="#000000" stroke-width="5.5" stroke-linecap="round"/><path d="M1421.89969,100.8567c0,12.11851 10.73405,26.8222 4.81944,35.59361c-3.65907,5.42639 -11.29447,15.29782 -19.78798,17.76477c-9.82929,2.85493 -20.80783,-2.13161 -28.10273,-2.13161c-7.50573,0 -16.87123,5.50348 -25.31674,3.662c-8.39253,-1.82993 -15.87663,-10.98306 -19.7245,-17.84965c-4.55191,-8.12295 1.96995,-26.54518 1.96995,-37.03912c0,-8.66975 2.45833,-14.68282 8.27417,-19.65781c4.03802,-3.45419 11.01457,-6.14403 14.42741,-9.97181c7.71201,-8.6497 8.93284,-21.59715 20.36971,-21.59715c11.45036,0 14.21135,15.50854 21.92608,24.17635c2.20398,2.47629 10.33276,3.99985 12.84892,5.92449c6.9734,5.33403 8.29627,10.3433 8.29627,21.12596z" fill="#314d1e" stroke="#000000" stroke-width="5.5" stroke-linecap="butt"/><path d="M393.41674,277.729h-61.29342" fill="none" stroke="#000000" stroke-width="5.5" stroke-linecap="round"/><path d="M561.27726,272.85339h-64.07952" fill="none" stroke="#000000" stroke-width="5.5" stroke-linecap="round"/><path d="M241.47262,-77.25656c13.15008,-8.07086 26.89931,-8.5057 38.70716,-7.00185c13.02978,1.65943 29.79932,8.32012 36.16732,16.53776c6.36795,8.21763 -2.82547,26.48863 -2.82547,26.48863c0,0 22.96008,29.59585 -15.18682,39.90951c-21.09999,5.70473 -71.29504,2.53428 -67.45768,-31.78635c4.85134,-43.38952 -2.5546,-36.07683 10.59544,-44.14769z" fill="#c5b056" stroke="#000000" stroke-width="5.5" stroke-linecap="round"/><path d="M282.5852,-104.45154l34.87957,-9.88909l40.55765,43.44132l-40.15208,5.65092l6.08363,25.42907l-33.66284,-12.71451l-35.69074,3.88501l-37.31306,27.195l8.11154,-30.37361l-15.00634,-7.41679l10.54498,-21.54406l-5.67807,-9.88909l12.16732,-10.24226l6.8948,9.18269l5.27252,-25.42907h15.41189l-5.27252,21.1909l45.01899,-22.95681z" fill="#003f96" stroke="#000000" stroke-width="5.5" stroke-linecap="round"/><path d="M286.78219,-19.3067l-17.48934,9.11415l-9.85318,-10.59215l42.36859,-0.98531" fill="none" stroke="#000000" stroke-width="5.5" stroke-linecap="round"/><path d="M253.77409,-49.85142l16.9967,12.07014l-4.43393,7.14354" fill="none" stroke="#000000" stroke-width="5.5" stroke-linecap="round"/><path d="M288.01383,-31.37676l-4.92657,-9.85317l19.70631,-5.91188" fill="none" stroke="#000000" stroke-width="5.5" stroke-linecap="round"/><path d="M341.38166,-10.72436l21.36536,3.09234c0,0 -5.85094,9.1005 -7.98664,14.90191c-3.4697,9.4251 -10.84862,36.26247 -10.84862,36.26247l-35.70263,-3.09234c0,0 -3.49281,-10.82524 -2.65017,-16.19154c0.9293,-5.91823 7.99149,-17.82431 7.99149,-17.82431l23.61434,3.93571z" fill="#c5b056" stroke="#000000" stroke-width="5.5" stroke-linecap="round"/><path d="M259.95527,50.24739l-43.15238,21.0665l-22.42563,-23.78476l28.88149,-9.17412z" fill="#c5b056" stroke="#000000" stroke-width="5.5" stroke-linecap="round"/><path d="M289.9264,36.50558c-4.03566,5.41776 -13.95615,4.85693 -22.15802,-1.25261c-8.20187,-6.10958 -11.57925,-15.45427 -7.54359,-20.87203c4.03566,-5.41776 13.95615,-4.85693 22.15802,1.25261c8.20187,6.10958 11.57925,15.45427 7.54359,20.87203z" fill="#454545" stroke="#000000" stroke-width="5.5" stroke-linecap="butt"/><path d="M237.8694,42.0926l25.14389,-9.17412" fill="none" stroke="#000000" stroke-width="5.5" stroke-linecap="round"/><path d="M264.71222,36.99588l-18.68802,7.13544" fill="none" stroke="#000000" stroke-width="5.5" stroke-linecap="round"/><g fill="#1f001e" stroke="#000000" stroke-width="5.5" stroke-linecap="butt"><path d="M1507.51461,307.15468v-317.97026l108.26942,88.89492v321.38931z"/><path d="M1592.98142,222.25634c5.22405,5.50802 1.41583,19.66856 -2.37456,15.67213c-5.22405,-5.50802 -1.41583,-19.66856 2.37456,-15.67213z"/></g><path d="M184.91998,403.63676v-386.21308h225.81369v386.21309z" fill="none" stroke="none" stroke-width="0" stroke-linecap="butt"/><path d="M298.80313,294.37348l-28.08186,83.58008l5.06046,14.94649l-50.95783,-29.06405l36.36576,-84.23777z" data-paper-data="{&quot;index&quot;:null}" fill="#ffea00" stroke="#000000" stroke-width="5" stroke-linecap="round"/><path d="M361.70008,285.24608l14.34026,86.99758l11.47222,10.83486l-58.63574,-1.80847l-7.32947,-91.459z" data-paper-data="{&quot;index&quot;:null}" fill="#ffea00" stroke="#000000" stroke-width="5" stroke-linecap="round"/><path d="M344.44589,254.97605l30.13713,33.39255l-54.17431,10.19751l-20.89563,-16.82157l11.34703,-0.31867l-16.12712,-0.63736l10.77534,19.78977l-55.76769,-6.69214l-8.54462,-36.99806z" fill="#65ff71" stroke="#000000" stroke-width="5" stroke-linecap="round"/><path d="M352.97992,193.40902l20.67778,32.7534l29.75546,36.06795l34.83393,-11.98664c0,0 8.16151,22.6 2.48462,24.72109c-3.75341,1.40241 -29.87416,1.56563 -29.87416,1.56563l-23.94048,-0.51143l-34.24133,-40.273l-17.00222,-33.8986z" data-paper-data="{&quot;index&quot;:null}" fill="#ffea00" stroke="#000000" stroke-width="5" stroke-linecap="round"/><path d="M250.71143,195.861l-9.82411,34.28053l-34.37515,44.0072l-36.67576,2.0568c0,0 -25.90592,-0.47385 -26.70619,-0.61217c-7.54685,-1.3044 10.32095,-27.26812 10.32095,-27.26812l32.2082,14.60774l34.99288,-36.65049l15.36136,-35.57696z" fill="#ffea00" stroke="#000000" stroke-width="5" stroke-linecap="round"/><g stroke="#000000" stroke-width="5" stroke-linecap="round"><path d="M324.76354,169.59234l29.36451,20.63068l26.65472,32.69441l-38.97076,8.22513l-14.31031,-40.42387c0,0 3.82161,18.88456 8.01989,29.28254c4.53743,11.23794 18.26623,35.82116 18.26623,35.82116c0,0 -37.69959,11.31345 -57.44697,11.99724c-19.68155,0.68151 -60.84053,-7.9013 -60.84053,-7.9013l11.77398,-68.12176l-6.277,36.02708l-37.65128,-12.86058l47.76166,-44.93957z" fill="#98c8ff"/><path d="M312.75031,170.54486l-18.37177,16.74804l-31.4254,-16.3674z" fill="#ffea00"/></g><path d="M336.76724,102.66086c0,0 5.71897,29.43045 5.91563,34.0267c0.19666,4.59625 16.40623,8.09418 9.48427,23.97928c-15.13775,21.85033 -78.97317,11.58982 -91.95387,8.73372c-14.84955,-3.26731 -27.27687,-10.10269 -31.00033,-14.79189c-6.27085,-7.89733 -3.81793,-21.36325 -4.13046,-25.20097c-0.54251,-6.66172 34.68878,-27.39356 34.68878,-27.39356z" fill="#ffea00" stroke="#000000" stroke-width="5" stroke-linecap="round"/><path d="M222.45754,125.2462c0,0 -8.56472,-0.82496 -11.28334,-3.15702c-3.28771,-2.82025 -7.06217,-12.57997 -7.06217,-12.57997c0,0 1.46736,-9.22076 5.87651,-12.43082c4.04823,-2.9473 19.58816,-6.10866 19.58816,-6.10866c0,0 -6.07106,-6.82249 -6.84035,-10.41862c-0.68002,-3.17882 2.45932,-10.06103 2.45932,-10.06103c0,0 13.23055,-0.50397 18.20406,0.75337c4.97506,1.25772 11.64163,6.79176 11.64163,6.79176c0,0 5.7002,-10.67589 12.09371,-13.04682c6.19571,-2.29756 25.69258,-0.96557 25.69258,-0.96557c0,0 11.71749,-6.90664 18.46405,-7.91659c6.16063,-0.92224 20.41748,2.09607 20.41748,2.09607l-10.95255,10.77877c0,0 24.8726,0.0952 33.73346,1.51408c6.65227,1.06522 14.73156,6.24662 14.73156,6.24662c0,0 10.58756,9.98869 12.19525,16.31738c1.8314,7.20934 -1.79031,24.6419 -1.79031,24.6419l-11.22636,-9.48531c0,0 3.54548,11.82594 3.13199,17.25169c-0.40786,5.35201 -5.59631,15.08459 -5.59631,15.08459c0,0 -6.95803,-2.44233 -9.91741,-4.30625c-2.39792,-1.51033 -12.01055,-8.94854 -13.5282,-11.24863c-1.99893,-3.02953 -3.93578,-11.39201 -3.93578,-11.39201c0,0 -8.38911,8.82135 -15.28459,11.49756c-5.91363,2.29513 -23.59695,3.5927 -23.59695,3.5927c0,0 -9.89133,-3.11175 -12.90225,-6.33416c-2.8176,-3.01551 -4.62182,-12.42089 -4.62182,-12.42089c0,0 -19.88786,14.01032 -27.08818,17.18169c-4.33709,1.91027 -12.06718,0.06432 -12.06718,0.06432c0,0 0.98751,9.43458 -2.09922,13.91625c-3.79416,5.50878 -18.98443,16.69542 -18.98443,16.69542c0,0 -2.50811,-13.12899 -2.40967,-18.7485c0.08041,-4.59033 2.9573,-12.5099 2.9573,-12.5099" fill="#483100" stroke="#000000" stroke-width="5" stroke-linecap="round"/><path d="M270.764,131.05109l25.30252,1.49406" fill="#ffffff" stroke="#000000" stroke-width="5" stroke-linecap="round"/><path d="M317.78451,132.87716l18.34431,1.16204" fill="#ffffff" stroke="#000000" stroke-width="5" stroke-linecap="round"/><path d="M298.80766,148.97983l20.03116,0.33201" fill="#ffffff" stroke="#000000" stroke-width="5" stroke-linecap="round"/></g></g></svg>