<svg version="1.1" xmlns="http://www.w3.org/2000/svg" xmlns:xlink="http://www.w3.org/1999/xlink" width="2058.92981" height="834.14685" viewBox="0,0,2058.92981,834.14685"><defs><linearGradient x1="930.65714" y1="-48.41733" x2="1301.71341" y2="-48.41733" gradientUnits="userSpaceOnUse" id="color-1"><stop offset="0" stop-color="#1d001c"/><stop offset="1" stop-color="#390036"/></linearGradient></defs><g transform="translate(243.86278,267.32331)"><g data-paper-data="{&quot;isPaintingLayer&quot;:true}" fill-rule="nonzero" stroke-linejoin="miter" stroke-miterlimit="10" stroke-dasharray="" stroke-dashoffset="0" style="mix-blend-mode: normal"><path d="M-160.42192,452.68201v-545.91932h962.34835v545.91932z" fill="#000000" stroke="#000000" stroke-width="2" stroke-linecap="butt"/><path d="" fill="#9966ff" stroke="#000000" stroke-width="5.5" stroke-linecap="butt"/><path d="M1444.18427,252.89998l-1.13967,-514.11753c0,0 2.95766,-3.39514 6.28308,-0.53319c26.56104,22.85903 357.3969,313.52399 357.3969,313.52399c0,0 1.13967,365.69614 1.13967,452.06761c0,28.29699 0,56.35152 0,56.35152z" fill="#9966ff" stroke="#000000" stroke-width="5.5" stroke-linecap="butt"/><path d="M124.8122,564.07354l-361.25685,-310.51964h1682.8367l361.25685,310.51964z" fill="#5e3f9c" stroke="#000000" stroke-width="5.5" stroke-linecap="butt"/><path d="M-236.17047,251.03743v-515.61074h1682.04702v515.61074z" fill="#885ae2" stroke="#000000" stroke-width="5.5" stroke-linecap="butt"/><path d="M-153.48128,297.49044v-143.08607c0,0 0.90356,-0.95383 4.74406,2.35698c16.61749,14.32542 135.12659,118.22121 135.12659,118.22121v143.08607z" fill="#390036" stroke="#000000" stroke-width="5.5" stroke-linecap="butt"/><path d="M-10.39516,418.06858v-143.08606h570.73662v143.08606z" fill="#390036" stroke="#000000" stroke-width="5.5" stroke-linecap="butt"/><path d="M-10.7007,274.67704l-135.9848,-116.42546c0,0 -7.37381,-4.68839 -1.61109,-4.68159c43.60294,0.05126 571.67723,5.35206 571.67723,5.35206c0,0 125.83012,102.61831 137.1031,112.1672c1.62996,1.38066 -0.44786,3.58783 -0.44786,3.58783z" fill="#9959d9" stroke="#000000" stroke-width="5.5" stroke-linecap="butt"/><path d="M930.67943,255.83898v-331.94128c0,0 -0.03274,-0.38761 2.2885,1.54679c8.34447,6.95374 59.67384,50.08854 59.67384,50.08854c0,0 2.89362,302.21718 2.89362,328.60293c0,3.64977 -2.89362,3.3383 -2.89362,3.3383z" fill="#1d001c" stroke="#000000" stroke-width="5.5" stroke-linecap="butt"/><path d="M994.1171,307.47427v-329.14605h306.86126c0,0 1.3199,-2.66315 1.3199,1.8075c0,28.79541 -1.3199,327.33855 -1.3199,327.33855z" fill="#390036" stroke="#000000" stroke-width="5.5" stroke-linecap="butt"/><path d="M995.53551,-20.81011l-60.15527,-51.68268c0,0 -7.2807,-3.53182 -3.76305,-3.53182c24.81637,0 309.62299,3.53182 309.62299,3.53182c0,0 49.2465,39.66123 58.42035,47.54301c3.15288,2.7088 1.73492,4.13971 1.73492,4.13971z" fill="url(#color-1)" stroke="#000000" stroke-width="5.5" stroke-linecap="butt"/><path d="M1150.02637,304.95769v-324.0402" fill="none" stroke="#000000" stroke-width="5.5" stroke-linecap="round"/><path d="M1127.58775,139.3078c0,-1.45794 1.18191,-2.63984 2.63984,-2.63984c1.45794,0 2.63984,1.18191 2.63984,2.63984c0,1.45794 -1.18191,2.63984 -2.63984,2.63984c-1.45794,0 -2.63984,-1.18191 -2.63984,-2.63984z" fill="#9966ff" stroke="#000000" stroke-width="5.5" stroke-linecap="butt"/><path d="M1169.1448,139.17299c0,-1.45794 1.18191,-2.63984 2.63984,-2.63984c1.45794,0 2.63984,1.18191 2.63984,2.63984c0,1.45794 -1.18191,2.63984 -2.63984,2.63984c-1.45794,0 -2.63984,-1.18187 -2.63984,-2.63984z" fill="#9966ff" stroke="#000000" stroke-width="5.5" stroke-linecap="butt"/><path d="M-8.22039,255.76178c0,0 -53.03429,-30.97595 -67.5533,-47.54936c-14.61285,-16.68054 -19.84408,-52.21459 -19.84408,-52.21459l88.1634,-3.18603c0,0 30.88466,15.92584 42.15784,28.79418c16.10143,18.37976 45.23951,70.9698 45.23951,70.9698z" fill="#6c3f99" stroke="#000000" stroke-width="5.5" stroke-linecap="butt"/><path d="M-75.88769,167.07699l61.0106,66.37417" fill="none" stroke="#000000" stroke-width="5.5" stroke-linecap="round"/><path d="M425.52993,158.88511l135.89515,112.92695l16.26912,169.3904l-260.30621,4.78504l-29.66725,-20.09717l6.69905,-152.16427l-95.70081,-114.84099z" fill="#4c40ff" stroke="#000000" stroke-width="5.5" stroke-linecap="round"/><path d="M542.28493,415.36324l-230.63896,0.95702" fill="none" stroke="#000000" stroke-width="5.5" stroke-linecap="round"/><path d="M637.83611,-7.8836l-34.28813,-23.57305h281.80538l34.28813,23.57305z" fill="#390036" stroke="#000000" stroke-width="5.5" stroke-linecap="butt"/><path d="M645.03667,153.61341l-34.28812,-23.57306h281.80542l34.2881,23.57306z" fill="#390036" stroke="#000000" stroke-width="5.5" stroke-linecap="butt"/><path d="M181.3509,79.22455l30.05003,-224.77421l182.8908,24.45064l-30.05003,224.77421z" fill="#8d7bb1" stroke="#000000" stroke-width="5.5" stroke-linecap="butt"/><path d="M181.22555,-87.61828l-21.94188,-32.91286l91.48658,-60.99104l21.94192,32.91286z" fill-opacity="0.43529" fill="#f4ff00" stroke="#000000" stroke-width="5.5" stroke-linecap="butt"/><path d="M320.78743,117.3297l-17.14328,-25.71491l71.47872,-47.65246l17.14325,25.71491z" fill-opacity="0.43529" fill="#f4ff00" stroke="#000000" stroke-width="5.5" stroke-linecap="butt"/><path d="M1434.45189,213.92623l-2.74579,68.64443c0,0 -12.69811,11.9705 -53.54771,11.1965c-29.39524,-0.55692 -51.24941,-12.11176 -51.24941,-12.11176l2.28813,-69.55967z" fill="#1d0029" stroke="#000000" stroke-width="5.5" stroke-linecap="round"/><path d="M1433.49924,211.40051c0,7.37605 -23.41953,13.35547 -52.30896,13.35547c-28.88943,0 -52.30896,-5.97943 -52.30896,-13.35547c0,-7.37605 23.41953,-13.35549 52.30896,-13.35549c28.88943,0 52.30896,5.97947 52.30896,13.35549z" fill="#0e0000" stroke="#000000" stroke-width="5.5" stroke-linecap="butt"/><path d="M1386.40082,110.50203l-0.45762,95.64451c0,0 -4.09965,4.49135 -6.39557,4.70009c-2.67877,0.24352 -8.70624,-3.32717 -8.70624,-3.32717l0.91529,-96.10215c0,0 4.72048,-4.01329 7.29,-4.17388c2.27621,-0.14225 7.35413,3.2586 7.35413,3.2586z" fill="#220013" stroke="#000000" stroke-width="5.5" stroke-linecap="round"/><path d="M1421.89968,100.8567c0,12.11851 10.73405,26.8222 4.81944,35.59361c-3.65907,5.42639 -11.29447,15.29782 -19.78798,17.76477c-9.82929,2.85493 -20.80783,-2.13161 -28.10273,-2.13161c-7.50573,0 -16.87123,5.50348 -25.31674,3.662c-8.39253,-1.82993 -15.87663,-10.98306 -19.7245,-17.84965c-4.55191,-8.12295 1.96995,-26.54518 1.96995,-37.03912c0,-8.66975 2.45833,-14.68282 8.27417,-19.65781c4.03802,-3.45419 11.01457,-6.14403 14.42741,-9.97181c7.71201,-8.6497 8.93284,-21.59715 20.36971,-21.59715c11.45036,0 14.21135,15.50854 21.92608,24.17635c2.20398,2.47629 10.33276,3.99985 12.84892,5.92449c6.9734,5.33403 8.29627,10.3433 8.29627,21.12596z" fill="#314d1e" stroke="#000000" stroke-width="5.5" stroke-linecap="butt"/><path d="M393.41673,277.729h-61.29342" fill="none" stroke="#000000" stroke-width="5.5" stroke-linecap="round"/><path d="M497.19773,272.85338h64.07952" fill="none" stroke="#000000" stroke-width="5.5" stroke-linecap="round"/><path d="M241.47261,-77.25656c13.15008,-8.07086 26.89931,-8.5057 38.70716,-7.00185c13.02978,1.65943 29.79932,8.32012 36.16732,16.53776c6.36795,8.21763 -2.82547,26.48863 -2.82547,26.48863c0,0 22.96008,29.59585 -15.18682,39.90951c-21.09999,5.70473 -71.29504,2.53428 -67.45768,-31.78635c4.85134,-43.38952 -2.5546,-36.07683 10.59544,-44.14769z" fill="#c5b056" stroke="#000000" stroke-width="5.5" stroke-linecap="round"/><path d="M282.5852,-104.45155l34.87957,-9.88909l40.55765,43.44132l-40.15208,5.65092l6.08363,25.42907l-33.66284,-12.71451l-35.69074,3.88501l-37.31306,27.195l8.11154,-30.37361l-15.00634,-7.41679l10.54498,-21.54406l-5.67807,-9.88909l12.16732,-10.24226l6.8948,9.18269l5.27252,-25.42907h15.41189l-5.27252,21.1909l45.01899,-22.95681z" fill="#003f96" stroke="#000000" stroke-width="5.5" stroke-linecap="round"/><path d="M286.78218,-19.3067l-17.48934,9.11415l-9.85318,-10.59215l42.36859,-0.98531" fill="none" stroke="#000000" stroke-width="5.5" stroke-linecap="round"/><path d="M253.77408,-49.85143l16.9967,12.07014l-4.43393,7.14354" fill="none" stroke="#000000" stroke-width="5.5" stroke-linecap="round"/><path d="M288.01383,-31.37677l-4.92657,-9.85317l19.70631,-5.91188" fill="none" stroke="#000000" stroke-width="5.5" stroke-linecap="round"/><path d="M341.38165,-10.72437l21.36536,3.09234c0,0 -5.85094,9.1005 -7.98664,14.90191c-3.4697,9.4251 -10.84862,36.26247 -10.84862,36.26247l-35.70263,-3.09234c0,0 -3.49281,-10.82524 -2.65017,-16.19154c0.9293,-5.91823 7.99149,-17.82431 7.99149,-17.82431l23.61434,3.93571z" fill="#c5b056" stroke="#000000" stroke-width="5.5" stroke-linecap="round"/><path d="M259.95527,50.24739l-43.15238,21.0665l-22.42563,-23.78476l28.88149,-9.17412z" fill="#c5b056" stroke="#000000" stroke-width="5.5" stroke-linecap="round"/><path d="M289.92639,36.50558c-4.03566,5.41776 -13.95615,4.85693 -22.15802,-1.25261c-8.20187,-6.10958 -11.57925,-15.45427 -7.54359,-20.87203c4.03566,-5.41776 13.95615,-4.85693 22.15802,1.25261c8.20187,6.10958 11.57925,15.45427 7.54359,20.87203z" fill="#454545" stroke="#000000" stroke-width="5.5" stroke-linecap="butt"/><path d="M263.01328,32.91848l-25.14389,9.17412" fill="none" stroke="#000000" stroke-width="5.5" stroke-linecap="round"/><path d="M264.71221,36.99588l-18.68802,7.13544" fill="none" stroke="#000000" stroke-width="5.5" stroke-linecap="round"/><g fill="#1f001e" stroke="#000000" stroke-width="5.5" stroke-linecap="butt"><path d="M1507.5146,307.15468v-317.97026l108.26942,88.89492v321.38931z"/><path d="M1592.98141,222.25633c5.22405,5.50802 1.41583,19.66856 -2.37456,15.67213c-5.22405,-5.50802 -1.41583,-19.66856 2.37456,-15.67213z"/></g><path d="M184.91997,403.63676v-386.21308h225.81369v386.21309z" fill="none" stroke="none" stroke-width="0" stroke-linecap="butt"/><path d="M298.80312,294.37347l-28.08186,83.58008l5.06046,14.94649l-50.95783,-29.06405l36.36576,-84.23777z" data-paper-data="{&quot;index&quot;:null}" fill="#ffea00" stroke="#000000" stroke-width="5" stroke-linecap="round"/><path d="M361.70007,285.24607l14.34026,86.99758l11.47222,10.83486l-58.63574,-1.80847l-7.32947,-91.459z" data-paper-data="{&quot;index&quot;:null}" fill="#ffea00" stroke="#000000" stroke-width="5" stroke-linecap="round"/><path d="M343.93071,182.19271l18.47652,37.1731l26.58783,40.93492l31.12567,-13.60411c0,0 7.29267,25.64961 2.22012,28.05692c-3.35384,1.59165 -26.69389,1.7769 -26.69389,1.7769l-21.39189,-0.58044l-30.59615,-45.70739l-15.19224,-38.47284z" data-paper-data="{&quot;index&quot;:null}" fill="#ffea00" stroke="#000000" stroke-width="5" stroke-linecap="round"/><path d="M252.54926,184.97558l-8.77828,38.9063l-30.71573,49.94549l-32.77143,2.33434c0,0 -23.1481,-0.53779 -23.86317,-0.69477c-6.74345,-1.48041 9.22223,-30.94764 9.22223,-30.94764l28.77946,16.57889l31.2677,-41.59607l13.72606,-40.37768z" fill="#ffea00" stroke="#000000" stroke-width="5" stroke-linecap="round"/><path d="M344.44588,254.97605l30.13713,33.39255l-54.17431,10.19751l-20.89563,-16.82157l11.34703,-0.31867l-16.12712,-0.63736l10.77534,19.78977l-55.76769,-6.69214l-8.54462,-36.99806z" fill="#65ff71" stroke="#000000" stroke-width="5" stroke-linecap="round"/><g stroke="#000000" stroke-width="5" stroke-linecap="round"><path d="M318.71812,155.16223l26.2385,23.41456l23.81718,37.10616l-34.82211,9.33502l-12.7869,-45.87862c0,0 3.41478,21.43282 7.16613,33.2339c4.05439,12.75437 16.32169,40.65482 16.32169,40.65482c0,0 -33.68626,12.84008 -51.33143,13.61613c-17.58634,0.77348 -54.36372,-8.9675 -54.36372,-8.9675l10.52058,-77.31404l-5.60877,40.88853l-33.64309,-14.59597l42.67717,-51.00367z" fill="#98c8ff"/><path d="M307.98377,156.24328l-16.416,19.008l-28.07999,-18.576z" fill="#ffea00"/></g><path d="M329.44396,79.1991c0,0 5.11015,33.40176 5.28588,38.61822c0.17572,5.21646 14.6597,9.1864 8.47462,27.21501c-13.52625,24.79878 -70.56604,13.15374 -82.16488,9.91223c-13.26874,-3.7082 -24.3731,-11.46593 -27.70017,-16.78789c-5.60328,-8.96298 -3.41149,-24.24599 -3.69075,-28.60156c-0.48475,-7.56065 30.99597,-31.09001 30.99597,-31.09001z" fill="#ffea00" stroke="#000000" stroke-width="5" stroke-linecap="round"/><path d="M227.30316,104.83207c0,0 -7.65296,-0.93628 -10.08216,-3.58303c-2.93772,-3.20082 -6.31036,-14.2775 -6.31036,-14.2775c0,0 1.31115,-10.465 5.25092,-14.10822c3.61727,-3.34501 17.50289,-6.93295 17.50289,-6.93295c0,0 -5.42476,-7.74311 -6.11216,-11.8245c-0.60763,-3.60777 2.19752,-11.41866 2.19752,-11.41866c0,0 11.82208,-0.57197 16.26614,0.85503c4.44543,1.42744 10.40232,7.70824 10.40232,7.70824c0,0 5.09338,-12.11648 10.80626,-14.80734c5.53614,-2.60759 22.95746,-1.09586 22.95746,-1.09586c0,0 10.4701,-7.83862 16.49845,-8.98485c5.5048,-1.04669 18.24393,2.37891 18.24393,2.37891l-9.78659,12.23324c0,0 22.22478,0.10804 30.14235,1.71839c5.9441,1.20896 13.1633,7.08953 13.1633,7.08953c0,0 9.46046,11.33656 10.897,18.51923c1.63644,8.18217 -1.59972,27.96705 -1.59972,27.96705l-10.03125,-10.76524c0,0 3.16805,13.42172 2.79857,19.57961c-0.36444,6.0742 -5.00055,17.12009 -5.00055,17.12009c0,0 -6.21731,-2.77189 -8.86165,-4.88733c-2.14265,-1.71413 -10.73196,-10.15604 -12.08805,-12.76651c-1.78614,-3.43833 -3.51679,-12.92924 -3.51679,-12.92924c0,0 -7.49605,10.0117 -13.65746,13.04903c-5.28409,2.60483 -21.08493,4.07749 -21.08493,4.07749c0,0 -8.83834,-3.53164 -11.52873,-7.18889c-2.51765,-3.42243 -4.1298,-14.09695 -4.1298,-14.09695c0,0 -17.77069,15.90085 -24.20449,19.50017c-3.87539,2.16804 -10.78256,0.073 -10.78256,0.073c0,0 0.88238,10.70767 -1.87575,15.79409c-3.39025,6.25213 -16.96344,18.94829 -16.96344,18.94829c0,0 -2.24111,-14.9006 -2.15315,-21.27841c0.07185,-5.20974 2.64248,-14.19797 2.64248,-14.19797" fill="#483100" stroke="#000000" stroke-width="5" stroke-linecap="round"/><path d="M270.46713,111.42028l22.60893,1.69567" fill="#ffffff" stroke="#000000" stroke-width="5" stroke-linecap="round"/><path d="M328.87351,114.81159l-16.39146,-1.31884" fill="#ffffff" stroke="#000000" stroke-width="5" stroke-linecap="round"/><path d="M295.52539,131.7683l17.89873,0.37681" fill="#ffffff" stroke="#000000" stroke-width="5" stroke-linecap="round"/></g></g></svg>