<svg version="1.1" xmlns="http://www.w3.org/2000/svg" xmlns:xlink="http://www.w3.org/1999/xlink" width="2058.92981" height="834.14685" viewBox="0,0,2058.92981,834.14685"><defs><linearGradient x1="930.65715" y1="-48.41732" x2="1301.71342" y2="-48.41732" gradientUnits="userSpaceOnUse" id="color-1"><stop offset="0" stop-color="#1d001c"/><stop offset="1" stop-color="#390036"/></linearGradient></defs><g transform="translate(243.86277,267.32331)"><g data-paper-data="{&quot;isPaintingLayer&quot;:true}" fill-rule="nonzero" stroke-linejoin="miter" stroke-miterlimit="10" stroke-dasharray="" stroke-dashoffset="0" style="mix-blend-mode: normal"><path d="M-160.42192,452.68201v-545.91932h962.34835v545.91932z" fill="#000000" stroke="#000000" stroke-width="2" stroke-linecap="butt"/><path d="" fill="#9966ff" stroke="#000000" stroke-width="5.5" stroke-linecap="butt"/><path d="M1444.18428,252.89999l-1.13967,-514.11753c0,0 2.95766,-3.39514 6.28308,-0.53319c26.56104,22.85903 357.3969,313.52399 357.3969,313.52399c0,0 1.13967,365.69614 1.13967,452.06761c0,28.29699 0,56.35152 0,56.35152z" fill="#9966ff" stroke="#000000" stroke-width="5.5" stroke-linecap="butt"/><path d="M124.81221,564.07354l-361.25685,-310.51964h1682.8367l361.25685,310.51964z" fill="#5e3f9c" stroke="#000000" stroke-width="5.5" stroke-linecap="butt"/><path d="M-236.17046,251.03743v-515.61074h1682.04702v515.61074z" fill="#885ae2" stroke="#000000" stroke-width="5.5" stroke-linecap="butt"/><path d="M-153.48129,297.49044v-143.08607c0,0 0.90356,-0.95383 4.74406,2.35698c16.61749,14.32542 135.12659,118.22121 135.12659,118.22121v143.08607z" fill="#390036" stroke="#000000" stroke-width="5.5" stroke-linecap="butt"/><path d="M-10.39516,418.06858v-143.08606h570.73662v143.08606z" fill="#390036" stroke="#000000" stroke-width="5.5" stroke-linecap="butt"/><path d="M-10.70069,274.67705l-135.9848,-116.42546c0,0 -7.37381,-4.68839 -1.61109,-4.68159c43.60294,0.05126 571.67723,5.35206 571.67723,5.35206c0,0 125.83012,102.61831 137.1031,112.1672c1.62996,1.38066 -0.44786,3.58783 -0.44786,3.58783z" fill="#9959d9" stroke="#000000" stroke-width="5.5" stroke-linecap="butt"/><path d="M930.67944,255.83898v-331.94128c0,0 -0.03274,-0.38761 2.2885,1.54679c8.34447,6.95374 59.67384,50.08854 59.67384,50.08854c0,0 2.89362,302.21718 2.89362,328.60293c0,3.64977 -2.89362,3.3383 -2.89362,3.3383z" fill="#1d001c" stroke="#000000" stroke-width="5.5" stroke-linecap="butt"/><path d="M994.11711,307.47425v-329.14605h306.86126c0,0 1.3199,-2.66315 1.3199,1.8075c0,28.79541 -1.3199,327.33855 -1.3199,327.33855z" fill="#390036" stroke="#000000" stroke-width="5.5" stroke-linecap="butt"/><path d="M995.53552,-20.8101l-60.15527,-51.68268c0,0 -7.2807,-3.53182 -3.76305,-3.53182c24.81637,0 309.62299,3.53182 309.62299,3.53182c0,0 49.2465,39.66123 58.42035,47.54301c3.15288,2.7088 1.73492,4.13971 1.73492,4.13971z" fill="url(#color-1)" stroke="#000000" stroke-width="5.5" stroke-linecap="butt"/><path d="M1150.02637,-19.0825v324.0402" fill="none" stroke="#000000" stroke-width="5.5" stroke-linecap="round"/><path d="M1127.58776,139.30781c0,-1.45794 1.18191,-2.63984 2.63984,-2.63984c1.45794,0 2.63984,1.18191 2.63984,2.63984c0,1.45794 -1.18191,2.63984 -2.63984,2.63984c-1.45794,0 -2.63984,-1.18191 -2.63984,-2.63984z" fill="#9966ff" stroke="#000000" stroke-width="5.5" stroke-linecap="butt"/><path d="M1169.1448,139.17299c0,-1.45794 1.18191,-2.63984 2.63984,-2.63984c1.45794,0 2.63984,1.18191 2.63984,2.63984c0,1.45794 -1.18191,2.63984 -2.63984,2.63984c-1.45794,0 -2.63984,-1.18187 -2.63984,-2.63984z" fill="#9966ff" stroke="#000000" stroke-width="5.5" stroke-linecap="butt"/><path d="M-8.22038,255.76179c0,0 -53.03429,-30.97595 -67.5533,-47.54936c-14.61285,-16.68054 -19.84408,-52.21459 -19.84408,-52.21459l88.1634,-3.18603c0,0 30.88466,15.92584 42.15784,28.79418c16.10143,18.37976 45.23951,70.9698 45.23951,70.9698z" fill="#6c3f99" stroke="#000000" stroke-width="5.5" stroke-linecap="butt"/><path d="M-14.87709,233.45117l-61.0106,-66.37417" fill="none" stroke="#000000" stroke-width="5.5" stroke-linecap="round"/><path d="M425.52994,158.88512l135.89515,112.92695l16.26912,169.3904l-260.30621,4.78504l-29.66725,-20.09717l6.69905,-152.16427l-95.70081,-114.84099z" fill="#4c40ff" stroke="#000000" stroke-width="5.5" stroke-linecap="round"/><path d="M542.28494,415.36324l-230.63896,0.95702" fill="none" stroke="#000000" stroke-width="5.5" stroke-linecap="round"/><path d="M637.83611,-7.8836l-34.28813,-23.57305h281.80538l34.28813,23.57305z" fill="#390036" stroke="#000000" stroke-width="5.5" stroke-linecap="butt"/><path d="M645.03667,153.61341l-34.28812,-23.57306h281.80542l34.2881,23.57306z" fill="#390036" stroke="#000000" stroke-width="5.5" stroke-linecap="butt"/><path d="M181.35091,79.22455l30.05003,-224.77421l182.8908,24.45064l-30.05003,224.77421z" fill="#8d7bb1" stroke="#000000" stroke-width="5.5" stroke-linecap="butt"/><path d="M181.22556,-87.61827l-21.94188,-32.91286l91.48658,-60.99104l21.94192,32.91286z" fill-opacity="0.43529" fill="#f4ff00" stroke="#000000" stroke-width="5.5" stroke-linecap="butt"/><path d="M320.78744,117.3297l-17.14328,-25.71491l71.47872,-47.65246l17.14325,25.71491z" fill-opacity="0.43529" fill="#f4ff00" stroke="#000000" stroke-width="5.5" stroke-linecap="butt"/><path d="M1434.4519,213.92623l-2.74579,68.64443c0,0 -12.69811,11.9705 -53.54771,11.1965c-29.39524,-0.55692 -51.24941,-12.11176 -51.24941,-12.11176l2.28813,-69.55967z" fill="#1d0029" stroke="#000000" stroke-width="5.5" stroke-linecap="round"/><path d="M1433.49925,211.40051c0,7.37605 -23.41953,13.35547 -52.30896,13.35547c-28.88943,0 -52.30896,-5.97943 -52.30896,-13.35547c0,-7.37605 23.41953,-13.35549 52.30896,-13.35549c28.88943,0 52.30896,5.97947 52.30896,13.35549z" fill="#0e0000" stroke="#000000" stroke-width="5.5" stroke-linecap="butt"/><path d="M1386.40083,110.50203l-0.45762,95.64451c0,0 -4.09965,4.49135 -6.39557,4.70009c-2.67877,0.24352 -8.70624,-3.32717 -8.70624,-3.32717l0.91529,-96.10215c0,0 4.72048,-4.01329 7.29,-4.17388c2.27621,-0.14225 7.35413,3.2586 7.35413,3.2586z" fill="#220013" stroke="#000000" stroke-width="5.5" stroke-linecap="round"/><path d="M1421.89969,100.8567c0,12.11851 10.73405,26.8222 4.81944,35.59361c-3.65907,5.42639 -11.29447,15.29782 -19.78798,17.76477c-9.82929,2.85493 -20.80783,-2.13161 -28.10273,-2.13161c-7.50573,0 -16.87123,5.50348 -25.31674,3.662c-8.39253,-1.82993 -15.87663,-10.98306 -19.7245,-17.84965c-4.55191,-8.12295 1.96995,-26.54518 1.96995,-37.03912c0,-8.66975 2.45833,-14.68282 8.27417,-19.65781c4.03802,-3.45419 11.01457,-6.14403 14.42741,-9.97181c7.71201,-8.6497 8.93284,-21.59715 20.36971,-21.59715c11.45036,0 14.21135,15.50854 21.92608,24.17635c2.20398,2.47629 10.33276,3.99985 12.84892,5.92449c6.9734,5.33403 8.29627,10.3433 8.29627,21.12596z" fill="#314d1e" stroke="#000000" stroke-width="5.5" stroke-linecap="butt"/><path d="M393.41674,277.729h-61.29342" fill="none" stroke="#000000" stroke-width="5.5" stroke-linecap="round"/><path d="M561.27726,272.85339h-64.07952" fill="none" stroke="#000000" stroke-width="5.5" stroke-linecap="round"/><path d="M241.47262,-77.25656c13.15008,-8.07086 26.89931,-8.5057 38.70716,-7.00185c13.02978,1.65943 29.79932,8.32012 36.16732,16.53776c6.36795,8.21763 -2.82547,26.48863 -2.82547,26.48863c0,0 22.96008,29.59585 -15.18682,39.90951c-21.09999,5.70473 -71.29504,2.53428 -67.45768,-31.78635c4.85134,-43.38952 -2.5546,-36.07683 10.59544,-44.14769z" fill="#c5b056" stroke="#000000" stroke-width="5.5" stroke-linecap="round"/><path d="M282.5852,-104.45154l34.87957,-9.88909l40.55765,43.44132l-40.15208,5.65092l6.08363,25.42907l-33.66284,-12.71451l-35.69074,3.88501l-37.31306,27.195l8.11154,-30.37361l-15.00634,-7.41679l10.54498,-21.54406l-5.67807,-9.88909l12.16732,-10.24226l6.8948,9.18269l5.27252,-25.42907h15.41189l-5.27252,21.1909l45.01899,-22.95681z" fill="#003f96" stroke="#000000" stroke-width="5.5" stroke-linecap="round"/><path d="M286.78219,-19.3067l-17.48934,9.11415l-9.85318,-10.59215l42.36859,-0.98531" fill="none" stroke="#000000" stroke-width="5.5" stroke-linecap="round"/><path d="M253.77409,-49.85142l16.9967,12.07014l-4.43393,7.14354" fill="none" stroke="#000000" stroke-width="5.5" stroke-linecap="round"/><path d="M288.01383,-31.37676l-4.92657,-9.85317l19.70631,-5.91188" fill="none" stroke="#000000" stroke-width="5.5" stroke-linecap="round"/><path d="M341.38166,-10.72436l21.36536,3.09234c0,0 -5.85094,9.1005 -7.98664,14.90191c-3.4697,9.4251 -10.84862,36.26247 -10.84862,36.26247l-35.70263,-3.09234c0,0 -3.49281,-10.82524 -2.65017,-16.19154c0.9293,-5.91823 7.99149,-17.82431 7.99149,-17.82431l23.61434,3.93571z" fill="#c5b056" stroke="#000000" stroke-width="5.5" stroke-linecap="round"/><path d="M259.95527,50.24739l-43.15238,21.0665l-22.42563,-23.78476l28.88149,-9.17412z" fill="#c5b056" stroke="#000000" stroke-width="5.5" stroke-linecap="round"/><path d="M289.9264,36.50558c-4.03566,5.41776 -13.95615,4.85693 -22.15802,-1.25261c-8.20187,-6.10958 -11.57925,-15.45427 -7.54359,-20.87203c4.03566,-5.41776 13.95615,-4.85693 22.15802,1.25261c8.20187,6.10958 11.57925,15.45427 7.54359,20.87203z" fill="#454545" stroke="#000000" stroke-width="5.5" stroke-linecap="butt"/><path d="M263.01329,32.91848l-25.14389,9.17412" fill="none" stroke="#000000" stroke-width="5.5" stroke-linecap="round"/><path d="M264.71222,36.99588l-18.68802,7.13544" fill="none" stroke="#000000" stroke-width="5.5" stroke-linecap="round"/><g fill="#1f001e" stroke="#000000" stroke-width="5.5" stroke-linecap="butt"><path d="M1507.51461,307.15468v-317.97026l108.26942,88.89492v321.38931z"/><path d="M1592.98142,222.25634c5.22405,5.50802 1.41583,19.66856 -2.37456,15.67213c-5.22405,-5.50802 -1.41583,-19.66856 2.37456,-15.67213z"/></g><path d="M184.91998,403.63676v-386.21308h225.81369v386.21309z" fill="none" stroke="none" stroke-width="0" stroke-linecap="butt"/><path d="M186.72613,366.79661v-397.16206h232.2154v397.16206z" fill="none" stroke="none" stroke-width="0" stroke-linecap="butt"/><path d="M196.3287,323.77186v-382.78816h223.81118v382.78816z" fill="none" stroke="none" stroke-width="0" stroke-linecap="butt"/><path d="M315.54845,277.25284l-6.80578,95.1489l-54.44623,1.88143l10.65252,-11.27199l13.31565,-90.50747z" fill="#ffea00" stroke="#000000" stroke-width="5" stroke-linecap="round"/><path d="M384.05896,272.3479l13.31565,90.50747l10.65253,11.27199l-54.44623,-1.88143l-6.80578,-95.1489z" data-paper-data="{&quot;index&quot;:null}" fill="#ffea00" stroke="#000000" stroke-width="5" stroke-linecap="round"/><path d="M363.23488,151.48288c0,0 10.92442,24.66774 17.15638,38.67284c7.28813,16.37865 23.9019,53.5977 23.9019,53.5977l19.07374,16.23813c0,0 -11.31067,16.59821 -17.59453,19.93941c-6.27067,3.33419 -20.06917,0.08679 -20.06917,0.08679l2.15129,-27.91181c0,0 -15.94548,-37.08717 -22.90638,-53.2773c-5.83076,-13.56164 -16.07236,-37.38231 -16.07236,-37.38231z" data-paper-data="{&quot;index&quot;:null}" fill="#ffea00" stroke="#000000" stroke-width="5" stroke-linecap="round"/><path d="M287.03125,156.58028c0,0 -5.19402,25.79199 -8.15108,40.47596c-3.5302,17.52998 -11.61693,57.68639 -11.61693,57.68639l7.70277,26.65332c0,0 -12.61495,7.2106 -19.79943,5.44351c-6.26162,-1.54013 -20.92073,-15.45908 -20.92073,-15.45908l15.32268,-20.631c0,0 8.71139,-40.45342 12.52257,-58.24957c3.25887,-15.21719 12.74534,-42.00671 12.74534,-42.00671z" fill="#ffea00" stroke="#000000" stroke-width="5" stroke-linecap="round"/><path d="M372.36189,229.40492l20.12143,45.75103l-50.30357,10.60893l-11.54023,-28.51151l6.50988,-0.33152l-10.94844,-0.66307l-5.32626,29.83764l-51.7831,-6.96213l7.39758,-47.74021z" fill="#65ff71" stroke="#000000" stroke-width="5" stroke-linecap="round"/><g stroke="#000000" stroke-width="5" stroke-linecap="round"><path d="M348.47237,125.56412l46.87233,51.5107l-32.33408,16.75886l-12.26641,-43.32507c0,0 3.1708,22.29752 6.65411,34.57471c3.7647,13.26894 15.15551,42.29504 15.15551,42.29504c0,0 -31.27938,13.35811 -47.66381,14.16548c-16.32981,0.80469 -50.47945,-9.3293 -50.47945,-9.3293l9.76888,-80.43325l-5.20802,42.53816l-31.2393,-15.18484l39.6279,-53.0614z" fill="#98c8ff"/><path d="M338.50499,126.68881l-15.24308,19.77488l-26.07369,-19.32545z" fill="#ffea00"/></g><path d="M358.43185,46.53627c0,0 4.74504,34.74934 4.9082,40.17627c0.16317,5.42692 13.61226,9.55702 7.86911,28.313c-12.5598,25.79929 -65.52412,13.68442 -76.29422,10.31214c-12.3207,-3.8578 -22.63165,-11.92852 -25.721,-17.4652c-5.20293,-9.32459 -3.16774,-25.22419 -3.42705,-29.75549c-0.45011,-7.86569 28.78132,-32.34433 28.78132,-32.34433z" fill="#ffea00" stroke="#000000" stroke-width="5" stroke-linecap="round"/><path d="M263.58898,73.20341c0,0 -7.10615,-0.97405 -9.36179,-3.72759c-2.72782,-3.32996 -5.85949,-14.85353 -5.85949,-14.85353c0,0 1.21747,-10.8872 4.87575,-14.67741c3.35882,-3.47996 16.25232,-7.21265 16.25232,-7.21265c0,0 -5.03716,-8.05551 -5.67544,-12.30156c-0.56422,-3.75332 2.04051,-11.87934 2.04051,-11.87934c0,0 10.97739,-0.59505 15.10393,0.88953c4.1278,1.48503 9.65908,8.01922 9.65908,8.01922c0,0 4.72946,-12.60533 10.03416,-15.40474c5.14058,-2.7128 21.31716,-1.14007 21.31716,-1.14007c0,0 9.722,-8.15487 15.31964,-9.34735c5.11149,-1.08891 16.9404,2.47489 16.9404,2.47489l-9.08734,12.72678c0,0 20.63683,0.11239 27.98869,1.78772c5.5194,1.25775 12.22278,7.37557 12.22278,7.37557c0,0 8.78451,11.79393 10.11841,19.26638c1.51951,8.51228 -1.48543,29.09539 -1.48543,29.09539l-9.31452,-11.19957c0,0 2.9417,13.96322 2.59862,20.36955c-0.3384,6.31926 -4.64327,17.8108 -4.64327,17.8108c0,0 -5.77309,-2.88372 -8.22848,-5.08452c-1.98956,-1.78329 -9.96517,-10.5658 -11.22436,-13.28158c-1.65853,-3.57704 -3.26551,-13.45086 -3.26551,-13.45086c0,0 -6.96046,10.41562 -12.68163,13.57549c-4.90655,2.70991 -19.57843,4.24199 -19.57843,4.24199c0,0 -8.20683,-3.67412 -10.70499,-7.47893c-2.33776,-3.5605 -3.83473,-14.66568 -3.83473,-14.66568c0,0 -16.50098,16.54236 -22.47508,20.28691c-3.59849,2.25551 -10.01216,0.07594 -10.01216,0.07594c0,0 0.81934,11.13966 -1.74172,16.43129c-3.14801,6.50436 -15.75141,19.71276 -15.75141,19.71276c0,0 -2.08099,-15.50176 -1.99931,-22.13688c0.06672,-5.41993 2.45368,-14.77079 2.45368,-14.77079" fill="#483100" stroke="#000000" stroke-width="5" stroke-linecap="round"/><path d="M303.66889,80.0574l20.99353,1.76408" fill="#ffffff" stroke="#000000" stroke-width="5" stroke-linecap="round"/><path d="M342.68187,82.2135l15.2203,1.37205" fill="#ffffff" stroke="#000000" stroke-width="5" stroke-linecap="round"/><path d="M326.93675,101.22636l16.61987,0.39201" fill="#ffffff" stroke="#000000" stroke-width="5" stroke-linecap="round"/></g></g></svg>