<svg version="1.1" xmlns="http://www.w3.org/2000/svg" xmlns:xlink="http://www.w3.org/1999/xlink" width="153.55317" height="241.67044" viewBox="0,0,153.55317,241.67044"><g transform="translate(-243.64612,-121.89662)"><g data-paper-data="{&quot;isPaintingLayer&quot;:true}" fill-rule="nonzero" stroke-linejoin="miter" stroke-miterlimit="10" stroke-dasharray="" stroke-dashoffset="0" style="mix-blend-mode: normal"><path d="M243.64612,363.56706v-241.67044h153.55317v241.67044z" fill="none" stroke="none" stroke-width="0" stroke-linecap="butt"/><path d="M310.51781,299.32299l-4.98404,57.22991l-39.87226,1.13164l7.80109,-6.77985l9.75137,-54.43819z" fill="#ffea00" stroke="#000000" stroke-width="5" stroke-linecap="round"/><path d="M360.68968,296.37277l9.75137,54.43819l7.8011,6.77985l-39.87227,-1.13164l-4.98404,-57.22991z" data-paper-data="{&quot;index&quot;:null}" fill="#ffea00" stroke="#000000" stroke-width="5" stroke-linecap="round"/><path d="M346.85728,222.3865c0,0 8.27609,14.68498 12.99652,23.02198c5.52044,9.74992 18.10333,31.90506 18.10333,31.90506l14.14823,9.50413c0,0 -8.09506,10.13649 -12.65851,12.2318c-4.55388,2.09091 -14.69359,0.32685 -14.69359,0.32685l1.26143,-16.81483c0,0 -12.09208,-22.08497 -17.37081,-31.72601c-4.4217,-8.0758 -12.1883,-22.26072 -12.1883,-22.26072z" data-paper-data="{&quot;index&quot;:null}" fill="#ffea00" stroke="#000000" stroke-width="5" stroke-linecap="round"/><path d="M288.85158,227.17961c0,0 -4.14725,15.42501 -6.50836,24.20682c-2.81875,10.48388 -9.27572,34.49958 -9.27572,34.49958l5.28353,16.15267c0,0 -9.33225,4.1308 -14.56872,2.95137c-4.56384,-1.02795 -15.11049,-9.6362 -15.11049,-9.6362l11.49396,-12.15685c0,0 6.91829,-24.18415 9.94631,-34.82352c2.58921,-9.09755 9.89246,-25.05259 9.89246,-25.05259z" fill="#ffea00" stroke="#000000" stroke-width="5" stroke-linecap="round"/><path d="M352.12364,270.54355l14.7354,27.51821l-36.8385,6.38103l-8.45119,-17.14902l4.76734,-0.19941l-8.0178,-0.39882l-3.90054,17.94667l-37.92199,-4.18756l5.41743,-28.71465z" fill="#65ff71" stroke="#000000" stroke-width="5" stroke-linecap="round"/><g stroke="#000000" stroke-width="5" stroke-linecap="round"><path d="M334.62878,208.08567l34.32572,30.98252l-23.67901,10.08007l-8.98298,-26.05905c0,0 2.32205,13.41145 4.87296,20.7959c2.75698,7.98097 11.09874,25.4395 11.09874,25.4395c0,0 -22.90663,8.0346 -34.90534,8.52021c-11.9587,0.484 -36.96729,-5.61136 -36.96729,-5.61136l7.15398,-48.37878l-3.81396,25.58574l-22.87728,-9.13334l29.02045,-31.91523z" fill="#98c8ff"/><path d="M327.32943,208.76214l-11.16287,11.89414l-19.09438,-11.62382z" fill="#ffea00"/></g><path d="M341.92234,160.5522c0,0 3.4749,20.90094 3.59439,24.16511c0.11949,3.26417 9.96858,5.74833 5.76274,17.02962c-9.19784,15.51768 -47.98486,8.23087 -55.87207,6.20252c-9.02274,-2.32038 -16.57369,-7.17474 -18.8361,-10.50492c-3.81023,-5.60853 -2.31981,-15.17178 -2.50971,-17.89725c-0.32963,-4.73103 21.07724,-19.45438 21.07724,-19.45438z" fill="#ffea00" stroke="#000000" stroke-width="5" stroke-linecap="round"/><path d="M272.46666,176.59188c0,0 -5.20401,-0.58587 -6.85586,-2.24206c-1.99765,-2.0029 -4.29104,-8.93406 -4.29104,-8.93406c0,0 0.89158,-6.54841 3.57062,-8.82813c2.45974,-2.09312 11.90195,-4.33825 11.90195,-4.33825c0,0 -3.68883,-4.84521 -4.15626,-7.39911c-0.41319,-2.25754 1.49432,-7.14515 1.49432,-7.14515c0,0 8.03901,-0.35791 11.06097,0.53503c3.02289,0.89321 7.07357,4.82338 7.07357,4.82338c0,0 3.46349,-7.58181 7.34825,-9.2656c3.76457,-1.63168 15.61106,-0.68572 15.61106,-0.68572c0,0 7.11966,-4.90497 11.21893,-5.62222c3.74326,-0.65496 12.40586,1.48859 12.40586,1.48859l-6.65487,7.65487c0,0 15.11284,0.0676 20.49678,1.07527c4.04199,0.7565 8.95103,4.43623 8.95103,4.43623c0,0 6.43311,7.09378 7.40995,11.58829c1.11277,5.11994 -1.08781,17.50021 -1.08781,17.50021l-6.82124,-6.73629c0,0 2.15428,8.39856 1.90303,12.25182c-0.24782,3.80089 -3.40038,10.71279 -3.40038,10.71279c0,0 -4.22777,-1.73449 -6.02591,-3.05822c-1.457,-1.07261 -7.29773,-6.35508 -8.21986,-7.98857c-1.21458,-2.15151 -2.39142,-8.09039 -2.39142,-8.09039c0,0 -5.09731,6.26476 -9.28706,8.16535c-3.59318,1.62995 -14.33774,2.55146 -14.33774,2.55146c0,0 -6.01006,-2.2099 -7.83952,-4.4984c-1.712,-2.14156 -2.80826,-8.82108 -2.80826,-8.82108c0,0 -12.08406,9.94986 -16.45903,12.20211c-2.63526,1.35664 -7.33214,0.04568 -7.33214,0.04568c0,0 0.60002,6.70026 -1.27551,9.88305c-2.30537,3.91223 -11.53513,11.85678 -11.53513,11.85678c0,0 -1.52396,-9.32396 -1.46414,-13.31483c0.04886,-3.25996 1.79689,-8.88429 1.79689,-8.88429" fill="#483100" stroke="#000000" stroke-width="5" stroke-linecap="round"/><path d="M301.81813,180.71441l15.37406,1.06106" fill="#ffffff" stroke="#000000" stroke-width="5" stroke-linecap="round"/><path d="M341.53445,182.83651l-11.14619,-0.82526" fill="#ffffff" stroke="#000000" stroke-width="5" stroke-linecap="round"/><path d="M318.85773,193.44706l12.17113,0.23579" fill="#ffffff" stroke="#000000" stroke-width="5" stroke-linecap="round"/></g></g></svg>