<svg version="1.1" xmlns="http://www.w3.org/2000/svg" xmlns:xlink="http://www.w3.org/1999/xlink" width="2058.92981" height="834.14685" viewBox="0,0,2058.92981,834.14685"><defs><linearGradient x1="930.65715" y1="-48.41732" x2="1301.71342" y2="-48.41732" gradientUnits="userSpaceOnUse" id="color-1"><stop offset="0" stop-color="#1d001c"/><stop offset="1" stop-color="#390036"/></linearGradient></defs><g transform="translate(243.86277,267.32331)"><g data-paper-data="{&quot;isPaintingLayer&quot;:true}" fill-rule="nonzero" stroke-linejoin="miter" stroke-miterlimit="10" stroke-dasharray="" stroke-dashoffset="0" style="mix-blend-mode: normal"><path d="M-160.42192,452.68201v-545.91932h962.34835v545.91932z" fill="#000000" stroke="#000000" stroke-width="2" stroke-linecap="butt"/><path d="" fill="#9966ff" stroke="#000000" stroke-width="5.5" stroke-linecap="butt"/><path d="M1444.18428,252.89999l-1.13967,-514.11753c0,0 2.95766,-3.39514 6.28308,-0.53319c26.56104,22.85903 357.3969,313.52399 357.3969,313.52399c0,0 1.13967,365.69614 1.13967,452.06761c0,28.29699 0,56.35152 0,56.35152z" fill="#9966ff" stroke="#000000" stroke-width="5.5" stroke-linecap="butt"/><path d="M124.81221,564.07354l-361.25685,-310.51964h1682.8367l361.25685,310.51964z" fill="#5e3f9c" stroke="#000000" stroke-width="5.5" stroke-linecap="butt"/><path d="M-236.17046,251.03743v-515.61074h1682.04702v515.61074z" fill="#885ae2" stroke="#000000" stroke-width="5.5" stroke-linecap="butt"/><path d="M-153.48129,297.49044v-143.08607c0,0 0.90356,-0.95383 4.74406,2.35698c16.61749,14.32542 135.12659,118.22121 135.12659,118.22121v143.08607z" fill="#390036" stroke="#000000" stroke-width="5.5" stroke-linecap="butt"/><path d="M-10.39516,418.06858v-143.08606h570.73662v143.08606z" fill="#390036" stroke="#000000" stroke-width="5.5" stroke-linecap="butt"/><path d="M-10.70069,274.67705l-135.9848,-116.42546c0,0 -7.37381,-4.68839 -1.61109,-4.68159c43.60294,0.05126 571.67723,5.35206 571.67723,5.35206c0,0 125.83012,102.61831 137.1031,112.1672c1.62996,1.38066 -0.44786,3.58783 -0.44786,3.58783z" fill="#9959d9" stroke="#000000" stroke-width="5.5" stroke-linecap="butt"/><path d="M930.67944,255.83898v-331.94128c0,0 -0.03274,-0.38761 2.2885,1.54679c8.34447,6.95374 59.67384,50.08854 59.67384,50.08854c0,0 2.89362,302.21718 2.89362,328.60293c0,3.64977 -2.89362,3.3383 -2.89362,3.3383z" fill="#1d001c" stroke="#000000" stroke-width="5.5" stroke-linecap="butt"/><path d="M994.11711,307.47425v-329.14605h306.86126c0,0 1.3199,-2.66315 1.3199,1.8075c0,28.79541 -1.3199,327.33855 -1.3199,327.33855z" fill="#390036" stroke="#000000" stroke-width="5.5" stroke-linecap="butt"/><path d="M995.53552,-20.8101l-60.15527,-51.68268c0,0 -7.2807,-3.53182 -3.76305,-3.53182c24.81637,0 309.62299,3.53182 309.62299,3.53182c0,0 49.2465,39.66123 58.42035,47.54301c3.15288,2.7088 1.73492,4.13971 1.73492,4.13971z" fill="url(#color-1)" stroke="#000000" stroke-width="5.5" stroke-linecap="butt"/><path d="M1150.02637,-19.0825v324.0402" fill="none" stroke="#000000" stroke-width="5.5" stroke-linecap="round"/><path d="M1127.58776,139.30781c0,-1.45794 1.18191,-2.63984 2.63984,-2.63984c1.45794,0 2.63984,1.18191 2.63984,2.63984c0,1.45794 -1.18191,2.63984 -2.63984,2.63984c-1.45794,0 -2.63984,-1.18191 -2.63984,-2.63984z" fill="#9966ff" stroke="#000000" stroke-width="5.5" stroke-linecap="butt"/><path d="M1169.1448,139.17299c0,-1.45794 1.18191,-2.63984 2.63984,-2.63984c1.45794,0 2.63984,1.18191 2.63984,2.63984c0,1.45794 -1.18191,2.63984 -2.63984,2.63984c-1.45794,0 -2.63984,-1.18187 -2.63984,-2.63984z" fill="#9966ff" stroke="#000000" stroke-width="5.5" stroke-linecap="butt"/><path d="M-8.22038,255.76179c0,0 -53.03429,-30.97595 -67.5533,-47.54936c-14.61285,-16.68054 -19.84408,-52.21459 -19.84408,-52.21459l88.1634,-3.18603c0,0 30.88466,15.92584 42.15784,28.79418c16.10143,18.37976 45.23951,70.9698 45.23951,70.9698z" fill="#6c3f99" stroke="#000000" stroke-width="5.5" stroke-linecap="butt"/><path d="M-14.87709,233.45117l-61.0106,-66.37417" fill="none" stroke="#000000" stroke-width="5.5" stroke-linecap="round"/><path d="M425.52994,158.88512l135.89515,112.92695l16.26912,169.3904l-260.30621,4.78504l-29.66725,-20.09717l6.69905,-152.16427l-95.70081,-114.84099z" fill="#4c40ff" stroke="#000000" stroke-width="5.5" stroke-linecap="round"/><path d="M542.28494,415.36324l-230.63896,0.95702" fill="none" stroke="#000000" stroke-width="5.5" stroke-linecap="round"/><path d="M637.83611,-7.8836l-34.28813,-23.57305h281.80538l34.28813,23.57305z" fill="#390036" stroke="#000000" stroke-width="5.5" stroke-linecap="butt"/><path d="M645.03667,153.61341l-34.28812,-23.57306h281.80542l34.2881,23.57306z" fill="#390036" stroke="#000000" stroke-width="5.5" stroke-linecap="butt"/><path d="M181.35091,79.22455l30.05003,-224.77421l182.8908,24.45064l-30.05003,224.77421z" fill="#8d7bb1" stroke="#000000" stroke-width="5.5" stroke-linecap="butt"/><path d="M181.22556,-87.61827l-21.94188,-32.91286l91.48658,-60.99104l21.94192,32.91286z" fill-opacity="0.43529" fill="#f4ff00" stroke="#000000" stroke-width="5.5" stroke-linecap="butt"/><path d="M320.78744,117.3297l-17.14328,-25.71491l71.47872,-47.65246l17.14325,25.71491z" fill-opacity="0.43529" fill="#f4ff00" stroke="#000000" stroke-width="5.5" stroke-linecap="butt"/><path d="M1434.4519,213.92623l-2.74579,68.64443c0,0 -12.69811,11.9705 -53.54771,11.1965c-29.39524,-0.55692 -51.24941,-12.11176 -51.24941,-12.11176l2.28813,-69.55967z" fill="#1d0029" stroke="#000000" stroke-width="5.5" stroke-linecap="round"/><path d="M1433.49925,211.40051c0,7.37605 -23.41953,13.35547 -52.30896,13.35547c-28.88943,0 -52.30896,-5.97943 -52.30896,-13.35547c0,-7.37605 23.41953,-13.35549 52.30896,-13.35549c28.88943,0 52.30896,5.97947 52.30896,13.35549z" fill="#0e0000" stroke="#000000" stroke-width="5.5" stroke-linecap="butt"/><path d="M1386.40083,110.50203l-0.45762,95.64451c0,0 -4.09965,4.49135 -6.39557,4.70009c-2.67877,0.24352 -8.70624,-3.32717 -8.70624,-3.32717l0.91529,-96.10215c0,0 4.72048,-4.01329 7.29,-4.17388c2.27621,-0.14225 7.35413,3.2586 7.35413,3.2586z" fill="#220013" stroke="#000000" stroke-width="5.5" stroke-linecap="round"/><path d="M1421.89969,100.8567c0,12.11851 10.73405,26.8222 4.81944,35.59361c-3.65907,5.42639 -11.29447,15.29782 -19.78798,17.76477c-9.82929,2.85493 -20.80783,-2.13161 -28.10273,-2.13161c-7.50573,0 -16.87123,5.50348 -25.31674,3.662c-8.39253,-1.82993 -15.87663,-10.98306 -19.7245,-17.84965c-4.55191,-8.12295 1.96995,-26.54518 1.96995,-37.03912c0,-8.66975 2.45833,-14.68282 8.27417,-19.65781c4.03802,-3.45419 11.01457,-6.14403 14.42741,-9.97181c7.71201,-8.6497 8.93284,-21.59715 20.36971,-21.59715c11.45036,0 14.21135,15.50854 21.92608,24.17635c2.20398,2.47629 10.33276,3.99985 12.84892,5.92449c6.9734,5.33403 8.29627,10.3433 8.29627,21.12596z" fill="#314d1e" stroke="#000000" stroke-width="5.5" stroke-linecap="butt"/><path d="M332.12332,277.729h61.29342" fill="none" stroke="#000000" stroke-width="5.5" stroke-linecap="round"/><path d="M497.19774,272.85339h64.07952" fill="none" stroke="#000000" stroke-width="5.5" stroke-linecap="round"/><path d="M241.47262,-77.25656c13.15008,-8.07086 26.89931,-8.5057 38.70716,-7.00185c13.02978,1.65943 29.79932,8.32012 36.16732,16.53776c6.36795,8.21763 -2.82547,26.48863 -2.82547,26.48863c0,0 22.96008,29.59585 -15.18682,39.90951c-21.09999,5.70473 -71.29504,2.53428 -67.45768,-31.78635c4.85134,-43.38952 -2.5546,-36.07683 10.59544,-44.14769z" fill="#c5b056" stroke="#000000" stroke-width="5.5" stroke-linecap="round"/><path d="M282.5852,-104.45154l34.87957,-9.88909l40.55765,43.44132l-40.15208,5.65092l6.08363,25.42907l-33.66284,-12.71451l-35.69074,3.88501l-37.31306,27.195l8.11154,-30.37361l-15.00634,-7.41679l10.54498,-21.54406l-5.67807,-9.88909l12.16732,-10.24226l6.8948,9.18269l5.27252,-25.42907h15.41189l-5.27252,21.1909l45.01899,-22.95681z" fill="#003f96" stroke="#000000" stroke-width="5.5" stroke-linecap="round"/><path d="M286.78219,-19.3067l-17.48934,9.11415l-9.85318,-10.59215l42.36859,-0.98531" fill="none" stroke="#000000" stroke-width="5.5" stroke-linecap="round"/><path d="M253.77409,-49.85142l16.9967,12.07014l-4.43393,7.14354" fill="none" stroke="#000000" stroke-width="5.5" stroke-linecap="round"/><path d="M288.01383,-31.37676l-4.92657,-9.85317l19.70631,-5.91188" fill="none" stroke="#000000" stroke-width="5.5" stroke-linecap="round"/><path d="M341.38166,-10.72436l21.36536,3.09234c0,0 -5.85094,9.1005 -7.98664,14.90191c-3.4697,9.4251 -10.84862,36.26247 -10.84862,36.26247l-35.70263,-3.09234c0,0 -3.49281,-10.82524 -2.65017,-16.19154c0.9293,-5.91823 7.99149,-17.82431 7.99149,-17.82431l23.61434,3.93571z" fill="#c5b056" stroke="#000000" stroke-width="5.5" stroke-linecap="round"/><path d="M259.95527,50.24739l-43.15238,21.0665l-22.42563,-23.78476l28.88149,-9.17412z" fill="#c5b056" stroke="#000000" stroke-width="5.5" stroke-linecap="round"/><path d="M289.9264,36.50558c-4.03566,5.41776 -13.95615,4.85693 -22.15802,-1.25261c-8.20187,-6.10958 -11.57925,-15.45427 -7.54359,-20.87203c4.03566,-5.41776 13.95615,-4.85693 22.15802,1.25261c8.20187,6.10958 11.57925,15.45427 7.54359,20.87203z" fill="#454545" stroke="#000000" stroke-width="5.5" stroke-linecap="butt"/><path d="M237.8694,42.0926l25.14389,-9.17412" fill="none" stroke="#000000" stroke-width="5.5" stroke-linecap="round"/><path d="M264.71222,36.99588l-18.68802,7.13544" fill="none" stroke="#000000" stroke-width="5.5" stroke-linecap="round"/><g fill="#1f001e" stroke="#000000" stroke-width="5.5" stroke-linecap="butt"><path d="M1507.51461,307.15468v-317.97026l108.26942,88.89492v321.38931z"/><path d="M1592.98142,222.25634c5.22405,5.50802 1.41583,19.66856 -2.37456,15.67213c-5.22405,-5.50802 -1.41583,-19.66856 2.37456,-15.67213z"/></g><path d="M184.91998,403.63676v-386.21308h225.81369v386.21309z" fill="none" stroke="none" stroke-width="0" stroke-linecap="butt"/><path d="M186.72613,366.79661v-397.16206h232.2154v397.16206z" fill="none" stroke="none" stroke-width="0" stroke-linecap="butt"/><path d="M196.3287,323.77186v-382.78816h223.81118v382.78816z" fill="none" stroke="none" stroke-width="0" stroke-linecap="butt"/><path d="M316.13959,354.24651l-8.62161,83.52272l-68.97284,1.65154l13.49468,-9.89467l16.86835,-79.44843z" fill="#ffea00" stroke="#000000" stroke-width="5" stroke-linecap="round"/><path d="M402.92915,349.94091l16.86835,79.44843l13.49469,9.89467l-68.97284,-1.65154l-8.62161,-83.52272z" data-paper-data="{&quot;index&quot;:null}" fill="#ffea00" stroke="#000000" stroke-width="5" stroke-linecap="round"/><path d="M376.54907,243.8443c0,0 13.83913,21.65361 21.73381,33.94743c9.23265,14.37735 30.27908,47.04863 30.27908,47.04863l24.16274,14.254c0,0 -14.32843,14.57009 -22.28886,17.50303c-7.94373,2.92679 -25.42375,0.07619 -25.42375,0.07619l2.72527,-24.50129c0,0 -20.19984,-32.55551 -29.01795,-46.76738c-7.38644,-11.90455 -20.36057,-32.81459 -20.36057,-32.81459z" data-paper-data="{&quot;index&quot;:null}" fill="#ffea00" stroke="#000000" stroke-width="5" stroke-linecap="round"/><path d="M280.01382,248.31885c0,0 -6.57982,22.64048 -10.32584,35.53023c-4.47208,15.388 -14.7164,50.63773 -14.7164,50.63773l9.75792,23.39657c0,0 -15.9807,6.32954 -25.08205,4.77837c-7.93226,-1.35194 -26.50252,-13.57015 -26.50252,-13.57015l19.41087,-18.11011c0,0 11.03565,-35.51044 15.86367,-51.1321c4.12836,-13.35781 16.14588,-36.87394 16.14588,-36.87394z" fill="#ffea00" stroke="#000000" stroke-width="5" stroke-linecap="round"/><path d="M388.11122,312.2451l25.48996,40.16074l-63.72489,9.31263l-14.61924,-25.02771l8.24676,-0.29101l-13.86955,-0.58205l-6.74734,26.1918l-65.59916,-6.11143l9.3713,-41.90687z" fill="#65ff71" stroke="#000000" stroke-width="5" stroke-linecap="round"/><g stroke="#000000" stroke-width="5" stroke-linecap="round"><path d="M357.84782,221.09254l59.37817,45.21664l-40.96102,14.71111l-15.53917,-38.03121c0,0 4.01679,19.573 8.42947,30.35005c4.76915,11.64762 19.1991,37.12704 19.1991,37.12704c0,0 -39.62492,11.72589 -60.38082,12.43461c-20.68671,0.70637 -63.94769,-8.18936 -63.94769,-8.18936l12.37528,-70.60517l-6.59755,37.34045l-39.57415,-13.32941l50.20088,-46.57786z" fill="#98c8ff"/><path d="M345.22108,222.0798l-19.31003,17.3586l-33.03032,-16.96409z" fill="#ffea00"/></g><path d="M370.46456,151.72104c0,0 6.01105,30.50334 6.21774,35.26716c0.2067,4.76381 17.2441,8.38925 9.96864,24.85345c-15.91084,22.64689 -83.00638,12.01233 -96.65001,9.05211c-15.60794,-3.38642 -28.66992,-10.47098 -32.58353,-15.33114c-6.59111,-8.18522 -4.01291,-22.14206 -4.34141,-26.11969c-0.5702,-6.90459 36.46036,-28.3922 36.46036,-28.3922z" fill="#ffea00" stroke="#000000" stroke-width="5" stroke-linecap="round"/><path d="M250.317,175.12975c0,0 -9.00212,-0.85503 -11.85958,-3.27212c-3.45562,-2.92307 -7.42284,-13.03859 -7.42284,-13.03859c0,0 1.5423,-9.5569 6.17663,-12.88399c4.25497,-3.05475 20.58854,-6.33134 20.58854,-6.33134c0,0 -6.38111,-7.07121 -7.18968,-10.79844c-0.71476,-3.2947 2.58493,-10.42781 2.58493,-10.42781c0,0 13.90623,-0.52234 19.13376,0.78084c5.22912,1.30358 12.23618,7.03936 12.23618,7.03936c0,0 5.99131,-11.06509 12.71134,-13.52245c6.51212,-2.38132 27.00472,-1.00077 27.00472,-1.00077c0,0 12.31589,-7.15843 19.40702,-8.2052c6.47527,-0.95586 21.46021,2.17248 21.46021,2.17248l-11.5119,11.1717c0,0 26.14287,0.09866 35.45625,1.56928c6.99201,1.10407 15.4839,6.47435 15.4839,6.47435c0,0 11.12827,10.35284 12.81807,16.91223c1.92493,7.47217 -1.88175,25.54024 -1.88175,25.54024l-11.79969,-9.8311c0,0 3.72656,12.25706 3.29195,17.88061c-0.42869,5.54711 -5.88212,15.63451 -5.88212,15.63451c0,0 -7.31339,-2.53136 -10.42389,-4.46325c-2.52039,-1.56539 -12.62394,-9.27477 -14.21909,-11.65871c-2.10104,-3.13996 -4.13677,-11.80731 -4.13677,-11.80731c0,0 -8.81756,9.14294 -16.06517,11.91671c-6.21565,2.37879 -24.80208,3.72366 -24.80208,3.72366c0,0 -10.39647,-3.22518 -13.56115,-6.56508c-2.96149,-3.12544 -4.85786,-12.87369 -4.85786,-12.87369c0,0 -20.90355,14.52106 -28.47158,17.80807c-4.55859,1.97991 -12.68347,0.06666 -12.68347,0.06666c0,0 1.03795,9.77851 -2.20642,14.42356c-3.98792,5.7096 -19.95399,17.30407 -19.95399,17.30407c0,0 -2.63621,-13.60761 -2.53274,-19.43199c0.08452,-4.75767 3.10834,-12.96596 3.10834,-12.96596" fill="#483100" stroke="#000000" stroke-width="5" stroke-linecap="round"/><path d="M327.68523,182.69478l-26.59474,-1.54853" fill="#ffffff" stroke="#000000" stroke-width="5" stroke-linecap="round"/><path d="M369.79355,184.2433l-19.28117,-1.2044" fill="#ffffff" stroke="#000000" stroke-width="5" stroke-linecap="round"/><path d="M330.56636,199.72859l21.05416,0.34411" fill="#ffffff" stroke="#000000" stroke-width="5" stroke-linecap="round"/></g></g></svg>