<svg version="1.1" xmlns="http://www.w3.org/2000/svg" xmlns:xlink="http://www.w3.org/1999/xlink" width="53.30304" height="38.46947" viewBox="0,0,53.30304,38.46947"><g transform="translate(-293.34848,-160.76531)"><g data-paper-data="{&quot;isPaintingLayer&quot;:true}" fill-rule="nonzero" stroke-linejoin="miter" stroke-miterlimit="10" stroke-dasharray="" stroke-dashoffset="0" style="mix-blend-mode: normal"><path d="M314.47792,181.67688l9.28176,4.54789l-18.38132,0.00993" fill="none" stroke="#000000" stroke-width="3" stroke-linecap="round"/><path d="M293.34848,199.23478v-38.46947h53.30304v38.46947z" fill="none" stroke="none" stroke-width="2" stroke-linecap="butt"/><path d="M329.23415,188.56452v4.69114h-19.77886v-4.69114z" fill="#b59400" stroke="#000000" stroke-width="2" stroke-linecap="butt"/><path d="M315.88489,188.57451v-13.69815h6.69017v13.69815z" fill="#b59400" stroke="#000000" stroke-width="2" stroke-linecap="butt"/><path d="M300.96676,174.27668v-7.44935c0,0 0.04704,-0.04966 0.24698,0.12271c0.86514,0.74581 7.03497,6.15484 7.03497,6.15484v7.44935z" fill="#b59400" stroke="#000000" stroke-width="2" stroke-linecap="butt"/><path d="M308.41612,180.55423v-7.44935h29.71371v7.44935z" fill="#b59400" stroke="#000000" stroke-width="2" stroke-linecap="butt"/><path d="M308.40021,173.08897l-7.07965,-6.06135c0,0 -0.38389,-0.24409 -0.08387,-0.24373c2.27006,0.00267 29.76268,0.27864 29.76268,0.27864c0,0 6.55097,5.34252 7.13787,5.83965c0.08486,0.07188 -0.02332,0.18679 -0.02332,0.18679z" fill="#b59400" stroke="#000000" stroke-width="2" stroke-linecap="butt"/><path d="M308.52934,172.10421c0,0 -2.76107,-1.61267 -3.51696,-2.47552c-0.76078,-0.86842 -1.03313,-2.7184 -1.03313,-2.7184l4.58997,-0.16587c0,0 1.60792,0.82913 2.19483,1.49908c0.83828,0.95689 2.35526,3.69483 2.35526,3.69483z" fill="#b59400" stroke="#000000" stroke-width="2" stroke-linecap="butt"/><path d="M305.00645,167.48709l3.17633,3.45558" fill="#b59400" stroke="#000000" stroke-width="2" stroke-linecap="round"/><path d="M331.11126,167.06061l7.07497,5.8792l0.847,8.81881l-13.55207,0.24911l-1.54453,-1.0463l0.34876,-7.92198l-4.98238,-5.97886z" fill="#b59400" stroke="#000000" stroke-width="2" stroke-linecap="round"/><path d="M325.18223,180.4632l12.00753,-0.04982" fill="#b59400" stroke="#000000" stroke-width="2" stroke-linecap="round"/><path d="M329.43938,173.24786h-3.19106" fill="#b59400" stroke="#000000" stroke-width="2" stroke-linecap="round"/><path d="M307.96667,192.9385l-3.59602,-1.46376v-4.22855c0,0 -0.3515,-1.16354 -0.0476,-1.10275c0.63405,0.12681 3.65734,1.8247 3.65734,1.8247z" fill="#b59400" stroke="#000000" stroke-width="2" stroke-linecap="round"/></g></g></svg>