<svg version="1.1" xmlns="http://www.w3.org/2000/svg" xmlns:xlink="http://www.w3.org/1999/xlink" width="511.70162" height="288.50768" viewBox="0,0,511.70162,288.50768"><g transform="translate(-99.93858,-43.39288)"><g data-paper-data="{&quot;isPaintingLayer&quot;:true}" fill-rule="nonzero" stroke-linejoin="miter" stroke-miterlimit="10" stroke-dasharray="" stroke-dashoffset="0" style="mix-blend-mode: normal"><path d="M289.18588,330.8995l-65.12928,-89.85573l-70.87017,0.07069l-51.4373,-81.6003l383.49006,-0.63911l124.17437,171.3551z" fill="#724bba" stroke="#000000" stroke-width="2" stroke-linecap="butt"/><path d="M486.09491,158.56588v-112.09302l124.06325,170.91541c0,0 0.48204,102.99789 0.48204,111.99114c0,1.2578 -0.48204,0.10189 -0.48204,0.10189c0,0 -28.8889,-39.79871 -46.31557,-63.80653c-22.57848,-31.10519 -77.74768,-107.10889 -77.74768,-107.10889z" fill="#6d6381" stroke="#000000" stroke-width="2" stroke-linecap="butt"/><path d="M101.62796,158.64293v-112.09303h384.65116v112.09303z" fill="#9f90bb" stroke="#000000" stroke-width="2" stroke-linecap="butt"/><path d="M374.81482,168.95496l-0.21868,-110.06658c0,0 1.18169,-0.17781 1.83748,0.43617c1.54904,1.45029 7.59339,7.53274 7.59339,7.53274c0,0 0.03662,101.39641 0.00654,109.60714c-0.00387,1.05542 -0.40923,0.3101 -0.40923,0.3101z" data-paper-data="{&quot;index&quot;:null}" fill="#5327aa" stroke="#000000" stroke-width="2" stroke-linecap="butt"/><path d="M376.22259,58.83733l68.46747,-0.10542c0,0 7.09836,5.65689 8.42199,6.82941c0.54739,0.4849 -0.47499,0.21034 -0.47499,0.21034l-68.53865,0.40351z" data-paper-data="{&quot;index&quot;:null}" fill="#7c3bff" stroke="#000000" stroke-width="2" stroke-linecap="butt"/><path d="M431.66203,330.31795l0.75047,-52.47482c0,0 0.72416,-0.56286 2.28869,-0.56286c7.27423,0 61.45578,-0.56285 61.45578,-0.56285v53.60053z" data-paper-data="{&quot;index&quot;:null}" fill="#342255" stroke="#000000" stroke-width="2" stroke-linecap="butt"/><path d="M432.66782,277.53821c0,0 -0.83983,-0.14598 0.22411,-0.88038c4.97397,-3.43333 57.96834,-59.55916 57.96834,-59.55916c0,0 49.17064,-1.31145 54.7133,-1.31145c0.84204,0 -1.09614,1.70072 -1.09614,1.70072l-47.99993,59.82186z" data-paper-data="{&quot;index&quot;:null}" fill="#9966ff" stroke="#000000" stroke-width="2" stroke-linecap="butt"/><path d="M495.62295,329.97677c0,0 0.67946,0.64621 0.67946,-0.42881c0,-5.57141 -0.67946,-53.16429 -0.67946,-53.16429l49.6225,-60.55599c0,0 0.52206,-1.13274 0.52206,-0.08263c0,5.51497 -0.52206,53.67573 -0.52206,53.67573z" data-paper-data="{&quot;index&quot;:null}" fill="#493078" stroke="#000000" stroke-width="2" stroke-linecap="butt"/><path d="M340.45798,114.62256c0,0 11.88858,23.26119 13.48949,26.41766c0.36611,0.72187 0.08688,0.35061 0.08688,0.35061l-120.64944,0.19538l-12.70028,-26.96365l0.27554,-23.15767h119.99279z" fill="#46155a" stroke="#000000" stroke-width="2" stroke-linecap="round"/><path d="M221.32106,91.64531l-2.34572,-3.06748l117.28617,0.18044c0,0 3.58253,1.60474 4.44796,2.10403c0.54601,0.315 0.24349,0.60258 0.24349,0.60258z" fill="#46155a" stroke="#000000" stroke-width="2" stroke-linecap="round"/><path d="M218.07313,88.21697c0,0 -0.15724,-0.09311 0.1107,0.22507c0.51773,0.6148 2.77634,3.2033 2.77634,3.2033l-0.54132,23.63767l12.81126,26.16384c0,0 -0.37715,31.3102 -0.43723,35.25585c-0.01264,0.83043 -0.34748,0.93992 -0.34748,0.93992l-14.19183,-17.97131l-0.18044,-71.45435z" fill="#591a71" stroke="#000000" stroke-width="2" stroke-linecap="round"/><path d="M353.92409,177.35445h-120.87441v-36.08805l120.71454,0.36088z" fill="#8627ab" stroke="#000000" stroke-width="2" stroke-linecap="round"/><path d="M384.05333,176.70044v-110.31895h69.04316v110.31895z" fill="#7c3bff" stroke="#000000" stroke-width="2" stroke-linecap="butt"/><path d="M443.40788,113.06598v-15.02347" fill="none" stroke="#000000" stroke-width="2" stroke-linecap="round"/><path d="M452.10845,155.476h-67.44914v-88.21297h68.47921z" fill="#98ffff" stroke="#000000" stroke-width="2" stroke-linecap="round"/><path d="M384.36619,155.42322l23.80953,-88.4602h7.99444l-24.50469,88.11262z" fill-opacity="0.43529" fill="#ffffff" stroke="none" stroke-width="0" stroke-linecap="butt"/><path d="M414.91363,155.38324l23.80953,-88.4602h7.99444l-24.5047,88.11262z" fill-opacity="0.54118" fill="#ffffff" stroke="none" stroke-width="0" stroke-linecap="butt"/><path d="M110.73685,172.34697l46.01407,-0.48848l30.87144,49.23798l-46.01407,0.48847z" fill="#e85d5d" stroke="#000000" stroke-width="2" stroke-linecap="butt"/><path d="M220.5049,115.24223h71.83098" fill="none" stroke="#000000" stroke-width="2" stroke-linecap="round"/><path d="M306.1074,114.92924h17.99687" fill="none" stroke="#000000" stroke-width="2" stroke-linecap="round"/><path d="M464.7664,158.83146v-13.29835h9.22743v13.29835z" fill="#5327aa" stroke="#000000" stroke-width="2" stroke-linecap="butt"/><path d="M471.19966,156.607h-3.36248" fill="none" stroke="#000000" stroke-width="2" stroke-linecap="round"/><path d="M467.25374,149.84729c0,-1.23171 0.99849,-2.23021 2.23021,-2.23021c1.23171,0 2.23021,0.9985 2.23021,2.23021c0,1.23171 -0.9985,2.23021 -2.23021,2.23021c-1.23171,0 -2.23021,-0.9985 -2.23021,-2.23021z" fill="#9966ff" stroke="#000000" stroke-width="2" stroke-linecap="butt"/><path d="M469.422,150.09509c0,0 6.59294,11.66312 7.31545,16.28818c0.25754,1.64862 -3.32425,-3.95426 -6.67007,-3.94509c-3.34583,0.00917 -9.55453,1.93416 -9.87802,1.59769c-5.56868,-5.79207 -7.05748,-19.88801 -7.05748,-19.88801" fill="none" stroke="#000000" stroke-width="2" stroke-linecap="round"/><path d="M353.21547,140.88162l-119.47387,0.18254l-13.14309,-24.50548l120.50395,-0.18254z" fill="#98ffff" stroke="#000000" stroke-width="2" stroke-linecap="round"/><path d="M564.48166,280.9515l5.05683,28.23031l4.04545,3.51587l-20.67678,-0.58684l-2.5846,-29.67803z" data-paper-data="{&quot;index&quot;:null}" fill="#ffea00" stroke="#000000" stroke-width="2.5" stroke-linecap="round"/><path d="M543.69751,282.87487l-2.58461,29.67803l-20.67678,0.58684l4.04546,-3.51586l5.05683,-28.23032z" data-paper-data="{&quot;index&quot;:null}" fill="#ffea00" stroke="#000000" stroke-width="2.5" stroke-linecap="round"/><path d="M565.1559,268.12894l6.08044,38.7697l-19.66542,2.17156l-5.29382,-33.18568c0,0 -1.8904,0.09224 -2.77784,0.0073c-0.9866,-0.09443 -2.87585,-0.54841 -2.87585,-0.54841l3.96808,0.85134l-0.78437,32.93561l-20.90265,-0.69218l5.84232,-40.92969z" data-paper-data="{&quot;index&quot;:null}" fill="#b50000" stroke="#000000" stroke-width="2.5" stroke-linecap="round"/><g><path d="M515.62598,261.10483l-9.29555,-1.59564l-8.66672,2.06282c0,0 -1.81126,-4.96433 -1.11967,-7.43848c0.69304,-2.47936 5.27353,-7.42213 5.27353,-7.42213l6.20365,6.32933l9.92168,2.29294z" data-paper-data="{&quot;index&quot;:null}" fill="#ffea00" stroke="#000000" stroke-width="2.5" stroke-linecap="round"/><g data-paper-data="{&quot;index&quot;:null}" stroke="#000000" stroke-width="2.5" stroke-linecap="round"><path d="M561.40295,235.92505l2.76561,7.90828l3.22166,27.68033l-11.39654,-2.64109l-18.12223,5.24391l-11.70514,6.19091l1.77599,-13.8888l7.46817,-16.41191l-5.32852,10.79213l-24.14443,11.37351l3.8028,-21.18958l10.70014,-0.87941l9.50351,-8.90358l7.76874,-5.4313z" fill="#0078b5"/><path d="M557.59305,236.40858l-10.10749,5.94487l-5.90899,-6.08312z" fill="#ffea00"/></g><path d="M558.03705,208.57068c9.30741,2.51713 11.60495,9.64306 11.43047,12.06268c-0.10052,1.39391 0.68842,6.28493 -1.32849,9.15335c-1.19759,1.70318 -5.19463,4.18589 -9.97077,5.37262c-4.17504,1.03737 -24.70672,4.76414 -29.57553,-3.1722c-2.22634,-5.76969 2.98722,-7.04019 3.05047,-8.70961c0.06325,-1.66942 1.90268,-12.35897 1.90268,-12.35897c0,0 15.18378,-4.865 24.49118,-2.34787z" data-paper-data="{&quot;index&quot;:null}" fill="#ffea00" stroke="#000000" stroke-width="2.5" stroke-linecap="round"/><path d="M563.08019,271.16275l-4.69656,7.25414c0,0 -5.81523,-4.11218 -6.94992,-6.23882c-1.30191,-2.44008 -0.42908,-7.59105 -0.42908,-7.59105l8.979,0.53587c0,0 1.7998,-3.06019 6.79515,-5.80496c4.18435,-2.29917 -3.6986,11.8448 -3.6986,11.8448z" data-paper-data="{&quot;index&quot;:null}" fill="#ffea00" stroke="#000000" stroke-width="2.5" stroke-linecap="round"/><path d="M570.05414,283.93078l-11.94182,-24.19091l5.68429,-6.86282l-1.73832,-16.84597l2.1707,1.89989l7.81978,12.01305z" fill="#0078b5" stroke="#000000" stroke-width="2.5" stroke-linecap="butt"/><path d="M549.37669,209.74259l18.07213,0.86129l1.88361,4.06895l-21.68707,-0.70432l-15.673,-3.5216l4.91282,-2.87692z" fill="#ffffff" stroke="#000000" stroke-width="2" stroke-linecap="round"/><path d="M548.28323,214.84891l-8.01875,0.96844l-17.67769,-4.04984l8.6566,-0.96844z" fill="#ffffff" stroke="#000000" stroke-width="2" stroke-linecap="round"/><path d="M560.13736,248.517l0.29941,-11.65239l3.38228,2.64037l5.05632,9.10751z" fill="#0078b5" stroke="none" stroke-width="0" stroke-linecap="butt"/><path d="M535.64833,222.02375l5.30853,-1.59864l-0.55154,3.46372" fill="none" stroke="#000000" stroke-width="2.5" stroke-linecap="round"/><path d="M544.67972,224.55493l0.55154,-3.39711l5.65323,3.06405" fill="none" stroke="#000000" stroke-width="2.5" stroke-linecap="round"/><path d="M534.75208,228.28509l14.20204,1.39881" fill="none" stroke="#000000" stroke-width="2.5" stroke-linecap="round"/></g><path d="M452.35851,155.51953h-67.44914v-88.21297h68.47921z" fill="none" stroke="#000000" stroke-width="2" stroke-linecap="round"/></g></g></svg>