<svg version="1.1" xmlns="http://www.w3.org/2000/svg" xmlns:xlink="http://www.w3.org/1999/xlink" width="281.8139" height="406.27485" viewBox="0,0,281.8139,406.27485"><g transform="translate(-360.53693,-190.10487)"><g data-paper-data="{&quot;isPaintingLayer&quot;:true}" fill-rule="nonzero" stroke="#000000" stroke-width="7" stroke-linecap="round" stroke-linejoin="miter" stroke-miterlimit="10" stroke-dasharray="" stroke-dashoffset="0" style="mix-blend-mode: normal"><path d="M531.09419,453.62459l-3.62304,131.96289c0,0 -1.63973,7.94458 -21.61478,7.24911c-22.8085,-0.79412 -22.06938,-6.82482 -22.06938,-6.82482l7.7562,-134.25103z" data-paper-data="{&quot;index&quot;:null}" fill="#824b00"/><path d="M605.05686,451.58409c0,0 -50.79955,15.08676 -78.26773,16.0117c-28.99396,0.97631 -91.36624,-10.29959 -91.36624,-10.29959l41.424,-28.31468c0,0 -23.73502,4.12445 -37.55775,5.15414c-19.1123,1.42373 -66.47955,2.59585 -66.47955,2.59585c0,0 47.40992,-30.82528 65.82956,-47.01512c15.82016,-13.90503 38.08081,-44.3163 38.08081,-44.3163l-72.10864,0.64829c0,0 58.64448,-48.56031 80.31607,-74.26866c19.44717,-23.06959 43.76431,-72.92415 43.76431,-72.92415c0,0 23.40326,60.63405 40.79653,86.64053c17.22593,25.75626 63.06595,68.65494 63.06595,68.65494l-73.11616,-6.42582c0,0 14.74522,29.22988 26.2895,41.91156c11.75198,12.90985 43.61043,34.87527 43.61043,34.87527c0,0 -23.236,6.10436 -33.52892,6.2096c-9.98155,0.10205 -27.32318,-5.58744 -27.32318,-5.58744z" data-paper-data="{&quot;index&quot;:null}" fill="#005f0c"/></g></g></svg>