<svg version="1.1" xmlns="http://www.w3.org/2000/svg" xmlns:xlink="http://www.w3.org/1999/xlink" width="20.91284" height="44.80464" viewBox="0,0,20.91284,44.80464"><g transform="translate(-312.98041,-150.12105)"><g data-paper-data="{&quot;isPaintingLayer&quot;:true}" fill="#b59400" fill-rule="nonzero" stroke="#000000" stroke-width="2" stroke-linejoin="miter" stroke-miterlimit="10" stroke-dasharray="" stroke-dashoffset="0" style="mix-blend-mode: normal"><path d="M332.85316,179.92291l-0.48135,12.03367c0,0 -2.22604,2.09848 -9.38715,1.9628c-5.15312,-0.09763 -8.98425,-2.12324 -8.98425,-2.12324l0.40112,-12.19412z" stroke-linecap="round"/><path d="M332.68616,179.48014c0,1.29305 -4.10555,2.34128 -9.16999,2.34128c-5.06444,0 -9.16999,-1.04822 -9.16999,-2.34128c0,-1.29305 4.10555,-2.34128 9.16999,-2.34128c5.06444,0 9.16999,1.04823 9.16999,2.34128z" stroke-linecap="butt"/><path d="M324.4296,161.79219l-0.08022,16.76691c0,0 -0.71869,0.78735 -1.12117,0.82395c-0.4696,0.04269 -1.52624,-0.58327 -1.52624,-0.58327l0.16045,-16.84713c0,0 0.82752,-0.70355 1.27797,-0.7317c0.39903,-0.02494 1.28921,0.57125 1.28921,0.57125z" stroke-linecap="round"/><path d="M330.6527,160.10132c0,2.12443 1.88173,4.70205 0.84487,6.23971c-0.64145,0.95127 -1.97997,2.68178 -3.46892,3.11424c-1.72312,0.50048 -3.6477,-0.37368 -4.92653,-0.37368c-1.31579,0 -2.9576,0.96478 -4.43814,0.64196c-1.47125,-0.3208 -2.78324,-1.92538 -3.45779,-3.12912c-0.79797,-1.42399 0.34534,-4.65349 0.34534,-6.49312c0,-1.51985 0.43096,-2.57396 1.4505,-3.4461c0.70788,-0.60554 1.9309,-1.07707 2.52919,-1.7481c1.35195,-1.51633 1.56596,-3.78608 3.5709,-3.78608c2.0073,0 2.49131,2.71872 3.84374,4.23822c0.38637,0.4341 1.81138,0.70119 2.25247,1.03859c1.22247,0.93508 1.45437,1.81323 1.45437,3.70348z" stroke-linecap="butt"/></g></g></svg>