<svg version="1.1" xmlns="http://www.w3.org/2000/svg" xmlns:xlink="http://www.w3.org/1999/xlink" width="153.52719" height="252.23537" viewBox="0,0,153.52719,252.23537"><g transform="translate(-236.19026,-111.35064)"><g data-paper-data="{&quot;isPaintingLayer&quot;:true}" fill-rule="nonzero" stroke-linejoin="miter" stroke-miterlimit="10" stroke-dasharray="" stroke-dashoffset="0" style="mix-blend-mode: normal"><path d="M245.38054,363.58601l-9.19028,-246.86194l144.33691,-5.37343l9.19028,246.86194z" fill="none" stroke="none" stroke-width="0" stroke-linecap="butt"/><path d="M305.79552,295.62177l-2.50855,58.63371l-37.43609,2.55124l7.07505,-7.19848l7.09591,-55.94886z" fill="#ffea00" stroke="#000000" stroke-width="5" stroke-linecap="round"/><path d="M352.84387,290.85246l11.23627,55.26638l7.59071,6.6525l-37.52217,0.23934l-6.86124,-58.28489z" data-paper-data="{&quot;index&quot;:null}" fill="#ffea00" stroke="#000000" stroke-width="5" stroke-linecap="round"/><path d="M335.74466,217.12689c0,0 8.08427,14.87585 12.6945,23.32086c5.39155,9.87624 17.67929,32.3178 17.67929,32.3178l13.5012,9.48788c0,0 -7.40627,10.48776 -11.65546,12.70163c-4.24028,2.20922 -13.81302,0.56763 -13.81302,0.56763l0.84246,-17.20409c0,0 -11.82468,-22.37765 -16.98667,-32.14645c-4.32392,-8.18282 -11.91877,-22.55573 -11.91877,-22.55573z" data-paper-data="{&quot;index&quot;:null}" fill="#ffea00" stroke="#000000" stroke-width="5" stroke-linecap="round"/><path d="M283.40499,222.21159c0,0 -2.98546,15.97966 -4.68514,25.07724c-2.02912,10.86086 -6.67728,35.74011 -6.67728,35.74011l5.91199,16.17835c0,0 -8.51882,4.75346 -13.50482,3.85188c-4.34554,-0.78579 -14.75479,-8.9619 -14.75479,-8.9619l10.07578,-13.06832c0,0 5.07136,-25.07775 7.28781,-36.10934c1.89524,-9.43293 7.81268,-26.13546 7.81268,-26.13546z" fill="#ffea00" stroke="#000000" stroke-width="5" stroke-linecap="round"/><path d="M343.80974,264.76814l14.89745,27.5937l-34.38479,7.80723l-8.59609,-17.22167l4.47362,-0.37052l-7.55174,-0.12681l-2.98395,18.46869l-35.80516,-2.95048l4.00031,-29.52107z" fill="#65ff71" stroke="#000000" stroke-width="5" stroke-linecap="round"/><g stroke="#000000" stroke-width="5" stroke-linecap="round"><path d="M324.98975,201.58077l33.4437,30.44688l-21.87447,11.12523l-9.4348,-26.30449c0,0 2.69269,13.61829 5.37132,21.07211c2.89501,8.05593 11.40001,25.5976 11.40001,25.5976c0,0 -21.22623,9.00879 -32.48631,9.92472c-11.22254,0.91288 -34.96191,-4.43827 -34.96191,-4.43827l4.88485,-49.66838l-2.61207,26.26883l-21.85151,-8.52897l26.06497,-33.61637z" fill="#98c8ff"/><path d="M318.15424,202.52721l-10.04056,12.54028l-18.39037,-11.20533z" fill="#ffea00"/></g><path d="M330.03795,152.77098c0,0 4.06116,21.22833 4.29761,24.55844c0.23645,3.33011 9.58887,5.52297 6.06446,17.19379c-8.05568,16.1729 -44.79181,10.08687 -52.28276,8.29095c-8.56943,-2.05449 -15.85178,-6.74888 -18.10504,-10.07144c-3.79482,-5.59568 -2.75753,-15.41651 -3.03967,-18.19389c-0.48976,-4.82113 19.07237,-20.60987 19.07237,-20.60987z" fill="#ffea00" stroke="#000000" stroke-width="5" stroke-linecap="round"/><path d="M265.36096,171.58575c0,0 -4.91394,-0.41635 -6.52964,-2.05031c-1.95392,-1.97602 -4.37324,-8.97582 -4.37324,-8.97582c0,0 0.58905,-6.72028 3.0206,-9.14272c2.23251,-2.22415 11.02262,-4.84794 11.02262,-4.84794c0,0 -3.65168,-4.8202 -4.18818,-7.41261c-0.47424,-2.29157 1.13291,-7.35094 1.13291,-7.35094c0,0 7.54289,-0.64691 10.41743,0.15945c2.87542,0.80662 6.83244,4.67946 6.83244,4.67946c0,0 2.96729,-7.86589 6.55485,-9.72179c3.47657,-1.79847 14.64801,-1.24675 14.64801,-1.24675c0,0 6.50581,-5.25948 10.33177,-6.13559c3.49369,-0.80002 11.71787,1.08644 11.71787,1.08644l-5.96435,8.05219c0,0 14.20834,-0.45981 19.30745,0.38111c3.82816,0.63131 8.58249,4.2183 8.58249,4.2183c0,0 6.31675,7.02105 7.40589,11.57793c1.24069,5.19099 -0.35702,17.91421 -0.35702,17.91421l-6.668,-6.64229c0,0 2.34436,8.50359 2.25472,12.44842c-0.08841,3.89121 -2.7889,11.06191 -2.7889,11.06191c0,0 -4.03998,-1.62381 -5.78053,-2.91305c-1.41034,-1.04466 -7.10139,-6.23623 -8.0303,-7.87253c-1.2235,-2.15522 -2.55555,-8.1805 -2.55555,-8.1805c0,0 -4.55313,6.57771 -8.41914,8.66574c-3.31554,1.79071 -13.38017,3.10801 -13.38017,3.10801c0,0 -5.73338,-2.04706 -7.54006,-4.3207c-1.69068,-2.12765 -2.97516,-8.9123 -2.97516,-8.9123c0,0 -10.9804,10.58647 -15.00714,13.0402c-2.4255,1.478 -6.89033,0.30324 -6.89033,0.30324c0,0 0.81881,6.82319 -0.82312,10.13999c-2.01822,4.07695 -10.3919,12.51514 -10.3919,12.51514c0,0 -1.78706,-9.47092 -1.8826,-13.54962c-0.07804,-3.3317 1.35119,-9.13802 1.35119,-9.13802" fill="#483100" stroke="#000000" stroke-width="5" stroke-linecap="round"/><path d="M293.10753,174.7697l14.49166,0.54585" fill="#ffffff" stroke="#000000" stroke-width="5" stroke-linecap="round"/><path d="M320.01219,175.09462l10.50858,0.45294" fill="#ffffff" stroke="#000000" stroke-width="5" stroke-linecap="round"/><path d="M309.60861,187.17959l11.44958,-0.18506" fill="#ffffff" stroke="#000000" stroke-width="5" stroke-linecap="round"/></g></g></svg>