<svg version="1.1" xmlns="http://www.w3.org/2000/svg" xmlns:xlink="http://www.w3.org/1999/xlink" width="2058.92981" height="834.14685" viewBox="0,0,2058.92981,834.14685"><defs><linearGradient x1="930.65715" y1="-48.41732" x2="1301.71342" y2="-48.41732" gradientUnits="userSpaceOnUse" id="color-1"><stop offset="0" stop-color="#1d001c"/><stop offset="1" stop-color="#390036"/></linearGradient></defs><g transform="translate(243.86277,267.32331)"><g data-paper-data="{&quot;isPaintingLayer&quot;:true}" fill-rule="nonzero" stroke-linejoin="miter" stroke-miterlimit="10" stroke-dasharray="" stroke-dashoffset="0" style="mix-blend-mode: normal"><path d="M-160.42192,452.68201v-545.91932h962.34835v545.91932z" fill="#000000" stroke="#000000" stroke-width="2" stroke-linecap="butt"/><path d="" fill="#9966ff" stroke="#000000" stroke-width="5.5" stroke-linecap="butt"/><path d="M1444.18428,252.89999l-1.13967,-514.11753c0,0 2.95766,-3.39514 6.28308,-0.53319c26.56104,22.85903 357.3969,313.52399 357.3969,313.52399c0,0 1.13967,365.69614 1.13967,452.06761c0,28.29699 0,56.35152 0,56.35152z" fill="#9966ff" stroke="#000000" stroke-width="5.5" stroke-linecap="butt"/><path d="M124.81221,564.07354l-361.25685,-310.51964h1682.8367l361.25685,310.51964z" fill="#5e3f9c" stroke="#000000" stroke-width="5.5" stroke-linecap="butt"/><path d="M-236.17046,251.03743v-515.61074h1682.04702v515.61074z" fill="#885ae2" stroke="#000000" stroke-width="5.5" stroke-linecap="butt"/><path d="M-153.48128,297.49044v-143.08607c0,0 0.90356,-0.95383 4.74406,2.35698c16.61749,14.32542 135.12659,118.22121 135.12659,118.22121v143.08607z" fill="#390036" stroke="#000000" stroke-width="5.5" stroke-linecap="butt"/><path d="M-10.39516,418.06858v-143.08606h570.73662v143.08606z" fill="#390036" stroke="#000000" stroke-width="5.5" stroke-linecap="butt"/><path d="M-10.70069,274.67705l-135.9848,-116.42546c0,0 -7.37381,-4.68839 -1.61109,-4.68159c43.60294,0.05126 571.67723,5.35206 571.67723,5.35206c0,0 125.83012,102.61831 137.1031,112.1672c1.62996,1.38066 -0.44786,3.58783 -0.44786,3.58783z" fill="#9959d9" stroke="#000000" stroke-width="5.5" stroke-linecap="butt"/><path d="M930.67944,255.83898v-331.94128c0,0 -0.03274,-0.38761 2.2885,1.54679c8.34447,6.95374 59.67384,50.08854 59.67384,50.08854c0,0 2.89362,302.21718 2.89362,328.60293c0,3.64977 -2.89362,3.3383 -2.89362,3.3383z" fill="#1d001c" stroke="#000000" stroke-width="5.5" stroke-linecap="butt"/><path d="M994.11711,307.47425v-329.14605h306.86126c0,0 1.3199,-2.66315 1.3199,1.8075c0,28.79541 -1.3199,327.33855 -1.3199,327.33855z" fill="#390036" stroke="#000000" stroke-width="5.5" stroke-linecap="butt"/><path d="M995.53552,-20.8101l-60.15527,-51.68268c0,0 -7.2807,-3.53182 -3.76305,-3.53182c24.81637,0 309.62299,3.53182 309.62299,3.53182c0,0 49.2465,39.66123 58.42035,47.54301c3.15288,2.7088 1.73492,4.13971 1.73492,4.13971z" fill="url(#color-1)" stroke="#000000" stroke-width="5.5" stroke-linecap="butt"/><path d="M1150.02637,-19.0825v324.0402" fill="none" stroke="#000000" stroke-width="5.5" stroke-linecap="round"/><path d="M1127.58776,139.30781c0,-1.45794 1.18191,-2.63984 2.63984,-2.63984c1.45794,0 2.63984,1.18191 2.63984,2.63984c0,1.45794 -1.18191,2.63984 -2.63984,2.63984c-1.45794,0 -2.63984,-1.18191 -2.63984,-2.63984z" fill="#9966ff" stroke="#000000" stroke-width="5.5" stroke-linecap="butt"/><path d="M1169.1448,139.17299c0,-1.45794 1.18191,-2.63984 2.63984,-2.63984c1.45794,0 2.63984,1.18191 2.63984,2.63984c0,1.45794 -1.18191,2.63984 -2.63984,2.63984c-1.45794,0 -2.63984,-1.18187 -2.63984,-2.63984z" fill="#9966ff" stroke="#000000" stroke-width="5.5" stroke-linecap="butt"/><path d="M-8.22038,255.76179c0,0 -53.03429,-30.97595 -67.5533,-47.54936c-14.61285,-16.68054 -19.84408,-52.21459 -19.84408,-52.21459l88.1634,-3.18603c0,0 30.88466,15.92584 42.15784,28.79418c16.10143,18.37976 45.23951,70.9698 45.23951,70.9698z" fill="#6c3f99" stroke="#000000" stroke-width="5.5" stroke-linecap="butt"/><path d="M-14.87709,233.45117l-61.0106,-66.37417" fill="none" stroke="#000000" stroke-width="5.5" stroke-linecap="round"/><path d="M425.52994,158.88512l135.89515,112.92695l16.26912,169.3904l-260.30621,4.78504l-29.66725,-20.09717l6.69905,-152.16427l-95.70081,-114.84099z" fill="#4c40ff" stroke="#000000" stroke-width="5.5" stroke-linecap="round"/><path d="M542.28494,415.36324l-230.63896,0.95702" fill="none" stroke="#000000" stroke-width="5.5" stroke-linecap="round"/><path d="M637.83611,-7.8836l-34.28813,-23.57305h281.80538l34.28813,23.57305z" fill="#390036" stroke="#000000" stroke-width="5.5" stroke-linecap="butt"/><path d="M645.03667,153.61341l-34.28812,-23.57306h281.80542l34.2881,23.57306z" fill="#390036" stroke="#000000" stroke-width="5.5" stroke-linecap="butt"/><path d="M181.35091,79.22455l30.05003,-224.77421l182.8908,24.45064l-30.05003,224.77421z" fill="#8d7bb1" stroke="#000000" stroke-width="5.5" stroke-linecap="butt"/><path d="M181.22556,-87.61827l-21.94188,-32.91286l91.48658,-60.99104l21.94192,32.91286z" fill-opacity="0.43529" fill="#f4ff00" stroke="#000000" stroke-width="5.5" stroke-linecap="butt"/><path d="M320.78744,117.3297l-17.14328,-25.71491l71.47872,-47.65246l17.14325,25.71491z" fill-opacity="0.43529" fill="#f4ff00" stroke="#000000" stroke-width="5.5" stroke-linecap="butt"/><path d="M1434.4519,213.92623l-2.74579,68.64443c0,0 -12.69811,11.9705 -53.54771,11.1965c-29.39524,-0.55692 -51.24941,-12.11176 -51.24941,-12.11176l2.28813,-69.55967z" fill="#1d0029" stroke="#000000" stroke-width="5.5" stroke-linecap="round"/><path d="M1433.49925,211.40051c0,7.37605 -23.41953,13.35547 -52.30896,13.35547c-28.88943,0 -52.30896,-5.97943 -52.30896,-13.35547c0,-7.37605 23.41953,-13.35549 52.30896,-13.35549c28.88943,0 52.30896,5.97947 52.30896,13.35549z" fill="#0e0000" stroke="#000000" stroke-width="5.5" stroke-linecap="butt"/><path d="M1386.40083,110.50203l-0.45762,95.64451c0,0 -4.09965,4.49135 -6.39557,4.70009c-2.67877,0.24352 -8.70624,-3.32717 -8.70624,-3.32717l0.91529,-96.10215c0,0 4.72048,-4.01329 7.29,-4.17388c2.27621,-0.14225 7.35413,3.2586 7.35413,3.2586z" fill="#220013" stroke="#000000" stroke-width="5.5" stroke-linecap="round"/><path d="M1421.89969,100.8567c0,12.11851 10.73405,26.8222 4.81944,35.59361c-3.65907,5.42639 -11.29447,15.29782 -19.78798,17.76477c-9.82929,2.85493 -20.80783,-2.13161 -28.10273,-2.13161c-7.50573,0 -16.87123,5.50348 -25.31674,3.662c-8.39253,-1.82993 -15.87663,-10.98306 -19.7245,-17.84965c-4.55191,-8.12295 1.96995,-26.54518 1.96995,-37.03912c0,-8.66975 2.45833,-14.68282 8.27417,-19.65781c4.03802,-3.45419 11.01457,-6.14403 14.42741,-9.97181c7.71201,-8.6497 8.93284,-21.59715 20.36971,-21.59715c11.45036,0 14.21135,15.50854 21.92608,24.17635c2.20398,2.47629 10.33276,3.99985 12.84892,5.92449c6.9734,5.33403 8.29627,10.3433 8.29627,21.12596z" fill="#314d1e" stroke="#000000" stroke-width="5.5" stroke-linecap="butt"/><path d="M393.41674,277.729h-61.29342" fill="none" stroke="#000000" stroke-width="5.5" stroke-linecap="round"/><path d="M561.27726,272.85339h-64.07952" fill="none" stroke="#000000" stroke-width="5.5" stroke-linecap="round"/><path d="M241.47262,-77.25656c13.15008,-8.07086 26.89931,-8.5057 38.70716,-7.00185c13.02978,1.65943 29.79932,8.32012 36.16732,16.53776c6.36795,8.21763 -2.82547,26.48863 -2.82547,26.48863c0,0 22.96008,29.59585 -15.18682,39.90951c-21.09999,5.70473 -71.29504,2.53428 -67.45768,-31.78635c4.85134,-43.38952 -2.5546,-36.07683 10.59544,-44.14769z" fill="#c5b056" stroke="#000000" stroke-width="5.5" stroke-linecap="round"/><path d="M282.5852,-104.45154l34.87957,-9.88909l40.55765,43.44132l-40.15208,5.65092l6.08363,25.42907l-33.66284,-12.71451l-35.69074,3.88501l-37.31306,27.195l8.11154,-30.37361l-15.00634,-7.41679l10.54498,-21.54406l-5.67807,-9.88909l12.16732,-10.24226l6.8948,9.18269l5.27252,-25.42907h15.41189l-5.27252,21.1909l45.01899,-22.95681z" fill="#003f96" stroke="#000000" stroke-width="5.5" stroke-linecap="round"/><path d="M286.78219,-19.3067l-17.48934,9.11415l-9.85318,-10.59215l42.36859,-0.98531" fill="none" stroke="#000000" stroke-width="5.5" stroke-linecap="round"/><path d="M253.77409,-49.85142l16.9967,12.07014l-4.43393,7.14354" fill="none" stroke="#000000" stroke-width="5.5" stroke-linecap="round"/><path d="M288.01383,-31.37676l-4.92657,-9.85317l19.70631,-5.91188" fill="none" stroke="#000000" stroke-width="5.5" stroke-linecap="round"/><path d="M341.38166,-10.72436l21.36536,3.09234c0,0 -5.85094,9.1005 -7.98664,14.90191c-3.4697,9.4251 -10.84862,36.26247 -10.84862,36.26247l-35.70263,-3.09234c0,0 -3.49281,-10.82524 -2.65017,-16.19154c0.9293,-5.91823 7.99149,-17.82431 7.99149,-17.82431l23.61434,3.93571z" fill="#c5b056" stroke="#000000" stroke-width="5.5" stroke-linecap="round"/><path d="M259.95527,50.24739l-43.15238,21.0665l-22.42563,-23.78476l28.88149,-9.17412z" fill="#c5b056" stroke="#000000" stroke-width="5.5" stroke-linecap="round"/><path d="M289.9264,36.50558c-4.03566,5.41776 -13.95615,4.85693 -22.15802,-1.25261c-8.20187,-6.10958 -11.57925,-15.45427 -7.54359,-20.87203c4.03566,-5.41776 13.95615,-4.85693 22.15802,1.25261c8.20187,6.10958 11.57925,15.45427 7.54359,20.87203z" fill="#454545" stroke="#000000" stroke-width="5.5" stroke-linecap="butt"/><path d="M237.8694,42.0926l25.14389,-9.17412" fill="none" stroke="#000000" stroke-width="5.5" stroke-linecap="round"/><path d="M264.71222,36.99588l-18.68802,7.13544" fill="none" stroke="#000000" stroke-width="5.5" stroke-linecap="round"/><g fill="#1f001e" stroke="#000000" stroke-width="5.5" stroke-linecap="butt"><path d="M1507.51461,307.15468v-317.97026l108.26942,88.89492v321.38931z"/><path d="M1592.98142,222.25634c5.22405,5.50802 1.41583,19.66856 -2.37456,15.67213c-5.22405,-5.50802 -1.41583,-19.66856 2.37456,-15.67213z"/></g><path d="M184.91998,403.63676v-386.21308h225.81369v386.21309z" fill="none" stroke="none" stroke-width="0" stroke-linecap="butt"/><path d="M186.72613,366.79661v-397.16206h232.2154v397.16206z" fill="none" stroke="none" stroke-width="0" stroke-linecap="butt"/><path d="M288.79427,242.68717l1.0213,94.34783l-59.88104,7.3192l10.73862,-12.16578l6.57451,-90.4325z" fill="#ffea00" stroke="#000000" stroke-width="5" stroke-linecap="round"/><path d="M367.46017,242.87896l-1.61955,90.6567l9.59602,13.08591l-58.97534,-12.69731l9.53794,-93.87004z" data-paper-data="{&quot;index&quot;:null}" fill="#ffea00" stroke="#000000" stroke-width="5" stroke-linecap="round"/><path d="M348.8081,119.04106c0,0 16.50104,21.64803 25.9017,33.93248c10.99386,14.36638 36.03315,47.00179 36.03315,47.00179l23.78323,11.75597c0,0 -9.18937,18.48374 -15.39643,23.04565c-6.19404,4.55234 -21.80699,4.29715 -21.80699,4.29715l-2.8903,-27.54142c0,0 -24.28788,-32.64769 -34.8906,-46.8998c-8.88132,-11.93827 -24.48114,-32.90751 -24.48114,-32.90751z" data-paper-data="{&quot;index&quot;:null}" fill="#ffea00" stroke="#000000" stroke-width="5" stroke-linecap="round"/><path d="M260.94689,127.99989c0,0 -14.9903,21.40922 -23.52461,33.59797c-10.18842,14.55115 -33.52731,47.88387 -33.52731,47.88387l-2.09699,27.61315c0,0 -15.63011,1.29736 -22.33016,-3.3361c-5.8394,-4.03831 -15.64426,-22.92544 -15.64426,-22.92544l23.4353,-12.43511c0,0 24.09035,-33.34204 34.66648,-48.01865c9.04346,-12.54972 28.80641,-33.06866 28.80641,-33.06866z" fill="#ffea00" stroke="#000000" stroke-width="5" stroke-linecap="round"/><path d="M352.51264,198.27833l22.28406,45.22352l-55.71012,10.48661l-12.78056,-28.18276l7.20956,-0.32771l-12.12516,-0.65542l-5.89871,29.49361l-57.34868,-6.88185l8.19266,-47.18976z" fill="#65ff71" stroke="#000000" stroke-width="5" stroke-linecap="round"/><g stroke="#000000" stroke-width="5" stroke-linecap="round"><path d="M326.05552,95.63482l51.9101,50.91678l-35.8093,16.56562l-13.58478,-42.82553c0,0 3.51158,22.04042 7.36928,34.17606c4.16932,13.11595 16.7844,41.80737 16.7844,41.80737c0,0 -34.64124,13.20409 -52.78665,14.00215c-18.08491,0.79541 -55.90491,-9.22172 -55.90491,-9.22172l10.81883,-79.50585l-5.76777,42.04769l-34.59685,-15.00976l43.88705,-52.4496z" fill="#98c8ff"/><path d="M315.01685,96.74655l-16.88138,19.54686l-28.87605,-19.10262z" fill="#ffea00"/></g><path d="M337.08542,17.51817c0,0 5.25502,34.34868 5.43573,39.71303c0.18071,5.36435 15.07529,9.44682 8.71487,27.98654c-13.90972,25.50181 -72.56656,13.52665 -84.49422,10.19325c-13.64491,-3.81332 -25.06407,-11.79099 -28.48546,-17.26383c-5.76213,-9.21708 -3.50821,-24.93335 -3.79538,-29.4124c-0.49849,-7.77499 31.87469,-31.9714 31.87469,-31.9714z" fill="#ffea00" stroke="#000000" stroke-width="5" stroke-linecap="round"/><path d="M232.04898,44.45721c0,0 -7.86992,-0.96282 -10.36799,-3.68461c-3.021,-3.29157 -6.48926,-14.68227 -6.48926,-14.68227c0,0 1.34832,-10.76167 5.39978,-14.50818c3.71982,-3.43983 17.99909,-7.12949 17.99909,-7.12949c0,0 -5.57855,-7.96263 -6.28543,-12.15972c-0.62486,-3.71004 2.25983,-11.74237 2.25983,-11.74237c0,0 12.15723,-0.58819 16.72728,0.87927c4.57145,1.4679 10.69722,7.92676 10.69722,7.92676c0,0 5.23778,-12.45998 11.11261,-15.22712c5.69308,-2.68151 23.60829,-1.12692 23.60829,-1.12692c0,0 10.76692,-8.06085 16.96617,-9.23957c5.66086,-1.07636 18.76114,2.44635 18.76114,2.44635l-10.06403,12.58005c0,0 22.85485,0.11109 30.99687,1.7671c6.11262,1.24324 13.53647,7.29052 13.53647,7.29052c0,0 9.72866,11.65795 11.20592,19.04424c1.68282,8.41413 -1.64508,28.75991 -1.64508,28.75991l-10.31562,-11.07043c0,0 3.25787,13.80222 2.87792,20.13468c-0.37478,6.2464 -5.14233,17.60544 -5.14233,17.60544c0,0 -6.39356,-2.85047 -9.11286,-5.02589c-2.20339,-1.76273 -11.03621,-10.44397 -12.43074,-13.12844c-1.83678,-3.5358 -3.61649,-13.29578 -3.61649,-13.29578c0,0 -7.70856,10.29553 -14.04463,13.41896c-5.4339,2.67867 -21.68269,4.19308 -21.68269,4.19308c0,0 -9.08889,-3.63176 -11.85556,-7.39269c-2.58902,-3.51945 -4.24688,-14.49659 -4.24688,-14.49659c0,0 -18.27448,16.35163 -24.89067,20.053c-3.98526,2.2295 -11.08825,0.07506 -11.08825,0.07506c0,0 0.9074,11.01122 -1.92892,16.24184c-3.48636,6.42937 -17.44434,19.48547 -17.44434,19.48547c0,0 -2.30465,-15.32302 -2.2142,-21.88164c0.07389,-5.35743 2.7174,-14.60048 2.7174,-14.60048" fill="#483100" stroke="#000000" stroke-width="5" stroke-linecap="round"/><path d="M276.43662,51.23217l23.24989,1.74374" fill="#ffffff" stroke="#000000" stroke-width="5" stroke-linecap="round"/><path d="M336.49882,54.71964l-16.85616,-1.35623" fill="#ffffff" stroke="#000000" stroke-width="5" stroke-linecap="round"/><path d="M320.61142,71.96518l-18.40615,-0.38749" fill="#ffffff" stroke="#000000" stroke-width="5" stroke-linecap="round"/></g></g></svg>