<svg version="1.1" xmlns="http://www.w3.org/2000/svg" xmlns:xlink="http://www.w3.org/1999/xlink" width="543.88286" height="176.86418" viewBox="0,0,543.88286,176.86418"><defs><radialGradient cx="396.9429" cy="144.58504" r="269.14325" gradientUnits="userSpaceOnUse" id="color-1"><stop offset="0" stop-color="#4d4d4d"/><stop offset="1" stop-color="#6f6f6f"/></radialGradient><linearGradient x1="423.43007" y1="100.92193" x2="646.23763" y2="100.92193" gradientUnits="userSpaceOnUse" id="color-2"><stop offset="0" stop-color="#00f3ff" stop-opacity="0.2902"/><stop offset="1" stop-color="#00f3ff" stop-opacity="0"/></linearGradient></defs><g transform="translate(-102.35477,-12.48984)"><g data-paper-data="{&quot;isPaintingLayer&quot;:true}" fill-rule="nonzero" stroke-linejoin="miter" stroke-miterlimit="10" stroke-dasharray="" stroke-dashoffset="0" style="mix-blend-mode: normal"><path d="" fill="#9966ff" stroke="#000000" stroke-width="2" stroke-linecap="butt"/><path d="M200.18475,186.89377l-95.13248,-81.77147h443.15403l95.13248,81.77147z" fill="url(#color-1)" stroke="#000000" stroke-width="2" stroke-linecap="butt"/><path d="M306.08128,130.96623v-33.35815h6.80506v33.35815c0,0 -2.3037,1.46777 -3.46925,1.46777c-1.09888,0 -3.33581,-1.46777 -3.33581,-1.46777z" fill="#32000c" stroke="#000000" stroke-width="2" stroke-linecap="butt"/><path d="M428.77319,131.06094v-33.35815h6.80506v33.35816c0,0 -2.3037,1.46776 -3.46925,1.46776c-1.09888,0 -3.33582,-1.46776 -3.33582,-1.46776z" fill="#32000c" stroke="#000000" stroke-width="2" stroke-linecap="butt"/><path d="M347.82889,122.44857l-44.70355,-25.20876h134.7829l44.70355,25.20877z" fill="#32000c" stroke="#000000" stroke-width="2" stroke-linecap="butt"/><path d="M347.2063,158.74953v-35.27516h7.19613v35.27517c0,0 -2.43609,1.55211 -3.66861,1.55211c-1.16204,0 -3.52752,-1.55211 -3.52752,-1.55211z" fill="#32000c" stroke="#000000" stroke-width="2" stroke-linecap="butt"/><path d="M476.93619,158.8625v-35.27516h7.19613v35.27517c0,0 -2.43609,1.55211 -3.66861,1.55211c-1.16204,0 -3.52751,-1.55211 -3.52751,-1.55211z" fill="#32000c" stroke="#000000" stroke-width="2" stroke-linecap="butt"/><path d="M528.30605,144.86631c0,0 -16.70932,-14.21915 -19.87957,-20.58729c-1.76467,-3.54472 -11.13337,-4.68407 -11.13337,-4.68407c0,0 25.02411,0.36088 35.77101,0.36088c9.80674,0 26.14849,-0.36088 26.14849,-0.36088c0,0 17.48892,14.98653 23.34776,15.9378c3.67831,0.59723 7.66517,9.33356 7.66517,9.33356c0,0 -29.96929,-1.62396 -41.28269,-1.62396c-8.52977,0 -20.63682,1.62396 -20.63682,1.62396z" fill="#9c4a3e" stroke="#000000" stroke-width="2" stroke-linecap="butt"/><g stroke="#000000" stroke-width="2"><path d="M429.62252,80.46184v24.22817h-39.76692v-24.84155z" fill="#737373" stroke-linecap="round"/><path d="M424.75507,83.21609v17.93757h-29.44184v-18.39168z" fill="#b9ffff" stroke-linecap="round"/><path d="M405.19969,90.48324c0,-1.50193 1.21756,-2.71949 2.71949,-2.71949c1.50193,0 2.71949,1.21756 2.71949,2.71949c0,0.60093 0.74728,1.4133 0.41722,1.86341c-0.49486,0.67487 -2.2357,0.85608 -3.13671,0.85608c-1.50193,0 -2.71949,-1.21756 -2.71949,-2.71949z" fill="none" stroke-linecap="butt"/><path d="M403.57228,100.61172l2.91221,-7.02356l3.21199,3.16917l3.12634,-2.14133" fill="none" stroke-linecap="round"/><path d="M406.35601,93.67382l-6.98073,4.58244" fill="none" stroke-linecap="round"/><path d="M416.84851,100.99716l1.15632,-6.33833l3.16916,-0.25696l1.24197,6.33833" fill="none" stroke-linecap="round"/><path d="M424.55729,88.89866c0,2.96838 -1.38943,5.54604 -3.79015,5.54604c-1.20918,0 -4.10176,-0.13937 -4.88972,-1.12462c-0.77647,-0.97089 -1.47002,-1.40637 -1.47002,-2.87966c0,-2.96838 3.40227,-6.91649 5.803,-6.91649c2.40072,0 4.3469,2.40635 4.3469,5.37473z" fill="none" stroke-linecap="butt"/><path d="M379.74517,84.40081l8.31936,-3.99845l0.12898,24.11969l-9.54469,-2.06372z" fill="#737373" stroke-linecap="round"/><path d="M416.45484,72.9986l-1.535,-1.535l-7.94788,7.94788l-4.67322,-4.67322" fill="none" stroke-linecap="round"/></g><path d="M546.41564,106.53842l-12.51969,22.10126l2.62322,1.99664c0,0 -5.09285,2.39048 -6.6475,1.65269c-1.55791,-0.73934 -4.78007,-1.90438 -4.78007,-1.90438l4.72882,-3.77453l13.03525,-22.2764z" data-paper-data="{&quot;index&quot;:null}" fill="#b7b7b7" stroke="#000000" stroke-width="2" stroke-linecap="round"/><path d="M558.91535,101.56695l0.78854,5.68872l2.42193,17.7984c0,0 -8.46649,2.24246 -12.51502,2.0644c-4.06208,-0.17866 -11.81696,-3.13456 -11.81696,-3.13456c0,0 2.82405,-6.42294 3.75741,-9.35911c0.8636,-2.71671 1.64971,-7.65074 1.64971,-7.65074l0.56324,-5.51976z" fill="#5d5d5d" stroke="#000000" stroke-width="2" stroke-linecap="round"/><path d="M539.60403,128.28799l-3.9995,-6.97534l2.29138,10.71404l-15.27263,0.41757l1.3135,-2.50155c0,0 4.67004,-17.2807 5.94919,-21.28581c0.47382,-1.48356 2.4369,-1.79573 2.4369,-1.79573c0,0 1.45014,0.15503 1.9099,0.92375c1.80845,3.02372 12.02449,20.70424 12.02449,20.70424z" data-paper-data="{&quot;index&quot;:null}" fill="#b7b7b7" stroke="#000000" stroke-width="2" stroke-linecap="round"/><path d="M559.6476,130.55574l-13.5674,2.38359l-16.2512,2.85509l-3.47843,-13.04924l3.03003,2.00381l15.80107,-0.52616l12.52997,-1.62481c0,0 3.10528,1.45331 3.24616,2.65744c0.199,1.70088 -1.31021,5.30028 -1.31021,5.30028z" data-paper-data="{&quot;index&quot;:null}" fill="#b7b7b7" stroke="#000000" stroke-width="2" stroke-linecap="round"/><path d="M560.10244,101.89338l8.0778,27.26211l3.79885,4.56526c0,0 -3.63433,3.08 -5.18673,3.42081c-1.7812,0.39103 -4.90874,-1.20454 -4.90874,-1.20454l1.90969,-5.89789l-6.71425,-26.79876z" data-paper-data="{&quot;index&quot;:null}" fill="#b7b7b7" stroke="#000000" stroke-width="2" stroke-linecap="round"/><g><path d="M556.99944,83.25256c4.21886,1.07607 7.23114,7.55311 7.10811,9.1622c-0.07088,0.92697 0.48542,4.17953 -0.93675,6.08706c-0.84444,1.13264 -3.66282,2.78366 -7.03055,3.57285c-2.94389,0.68986 -17.4211,3.16819 -20.85418,-2.10955c-1.56983,-3.8369 2.10633,-4.68178 2.15094,-5.79197c0.0446,-1.11017 -1.53774,-7.75527 4.50386,-10.44618c6.04159,-2.69092 10.83971,-1.55047 15.05857,-0.4744z" data-paper-data="{&quot;index&quot;:null}" fill="#b7b7b7" stroke="#000000" stroke-width="2" stroke-linecap="round"/><path d="M538.02251,92.21582c0,-1.02115 0.98722,-1.84895 2.20503,-1.84895c1.2178,0 2.20503,0.8278 2.20503,1.84895c0,1.02115 -0.98722,1.84895 -2.20503,1.84895c-1.2178,0 -2.20503,-0.8278 -2.20503,-1.84895z" fill="#000000" stroke="none" stroke-width="0.5" stroke-linecap="butt"/><path d="M543.52644,92.67732c0,-1.02115 0.98722,-1.84895 2.20503,-1.84895c1.2178,0 2.20503,0.8278 2.20503,1.84895c0,1.02115 -0.98722,1.84895 -2.20503,1.84895c-1.2178,0 -2.20503,-0.8278 -2.20503,-1.84895z" fill="#000000" stroke="none" stroke-width="0.5" stroke-linecap="butt"/></g><path d="M406.72425,83.57753l202.67884,-71.08769l36.83454,176.86418l-238.56492,-88.94868z" fill="url(#color-2)" stroke="none" stroke-width="0" stroke-linecap="round"/></g></g></svg>