<svg version="1.1" xmlns="http://www.w3.org/2000/svg" xmlns:xlink="http://www.w3.org/1999/xlink" width="735.51196" height="362.89355" viewBox="0,0,735.51196,362.89355"><defs><linearGradient x1="706.49557" y1="136.71191" x2="706.49557" y2="193.45407" gradientUnits="userSpaceOnUse" id="color-1"><stop offset="0" stop-color="#390036"/><stop offset="1" stop-color="#2a0028"/></linearGradient></defs><g transform="translate(-47.5663,37.55786)"><g data-paper-data="{&quot;isPaintingLayer&quot;:true}" fill-rule="nonzero" stroke="#000000" stroke-width="2" stroke-linejoin="miter" stroke-miterlimit="10" stroke-dasharray="" stroke-dashoffset="0" style="mix-blend-mode: normal"><path d="M493.18787,83.47191l-0.30012,-119.03506c0,0 0.77886,-0.78609 1.65457,-0.12345c6.99452,5.29262 285.84763,241.16622 285.84763,241.16622l0.30012,117.7157z" data-paper-data="{&quot;index&quot;:null}" fill="#e27f5a" stroke-linecap="butt"/><path d="M337.94773,324.09394l-287.63215,-241.1459h443.15403l286.8641,240.47061z" data-paper-data="{&quot;index&quot;:null}" fill="#97543c" stroke-linecap="butt"/><path d="M49.42129,82.14765l-0.76805,-118.7055h442.94608l0.76805,118.7055z" data-paper-data="{&quot;index&quot;:null}" fill="#ff8e66" stroke-linecap="butt"/><path d="M204.11237,34.48765v-53.23745h141.33025v53.23745z" data-paper-data="{&quot;index&quot;:null}" fill="#5f3526" stroke-linecap="butt"/><path d="M209.36685,30.13401v-44.28551h131.69899v44.28552z" data-paper-data="{&quot;index&quot;:null}" fill="#3b5093" stroke-linecap="butt"/><path d="M50.27643,82.76711v-39.2968l16.90948,9.82029v42.87176z" data-paper-data="{&quot;index&quot;:null}" fill="#1d001c" stroke-linecap="butt"/><path d="M67.7467,96.16236l-0.04906,-42.38329l442.69516,0.04314v42.34015z" data-paper-data="{&quot;index&quot;:null}" fill="#2f002d" stroke-linecap="butt"/><path d="M68.11929,53.74007c0,0 -18.941,-10.45786 -17.6039,-10.45786c9.43303,0 441.59099,0.6717 441.59099,0.6717c0,0 14.88344,7.79007 18.37054,9.28907c1.19845,0.51517 -442.35763,0.49709 -442.35763,0.49709z" data-paper-data="{&quot;index&quot;:null}" fill="#390036" stroke-linecap="butt"/><path d="M596.34647,147.66265v44.5065c0,0 0.21832,4.29182 -10.73181,4.67346c-12.87944,0.21514 -14.24306,-4.23135 -14.24306,-4.23135v-46.56972z" data-paper-data="{&quot;index&quot;:null}" fill="#260024" stroke-linecap="round"/><path d="M553.59381,157.98629l-115.21105,-104.31934l72.02686,-0.21105l116.98171,104.0333z" data-paper-data="{&quot;index&quot;:null}" fill="#390036" stroke-linecap="butt"/><path d="M439.06572,68.64269v-13.49043l113.24216,102.79125v13.49043z" data-paper-data="{&quot;index&quot;:null}" fill="#2b0029" stroke-linecap="butt"/><path d="M553.62335,172.51832v-14.44251h75.25981v14.44251z" data-paper-data="{&quot;index&quot;:null}" fill="#2a0028" stroke-linecap="butt"/><path d="M696.3163,193.45407l-61.92532,-56.50684l80.30957,-0.23532l63.89959,55.39092z" data-paper-data="{&quot;index&quot;:null}" fill="url(#color-1)" stroke-linecap="butt"/><path d="M634.30156,265.05951v-126.54498l61.44456,55.5135v128.65199z" data-paper-data="{&quot;index&quot;:null}" fill="#390036" stroke-linecap="butt"/><path d="M696.29876,322.38163v-129.71355h83.91429v129.71355z" data-paper-data="{&quot;index&quot;:null}" fill="#2a0028" stroke-linecap="butt"/><path d="M662.6837,256.48982v-91.56244" data-paper-data="{&quot;index&quot;:null}" fill="none" stroke-linecap="round"/><path d="M634.7514,232.30148l61.19784,53.80663" data-paper-data="{&quot;index&quot;:null}" fill="none" stroke-linecap="round"/><path d="M659.07786,211.57501l-1.92391,0.15378v11.84085l0.96196,0.84577v4.0751l-3.49802,-1.07643v-19.7604l4.72233,0.76888z" data-paper-data="{&quot;index&quot;:null}" fill="none" stroke-linecap="round"/><path d="M671.00851,268.68858l-3.41889,4.30648l-15.9793,-13.8956l2.30924,-3.75741l3.29534,2.86562l-0.7124,2.00987l9.57515,8.32654l2.19714,-1.90832z" data-paper-data="{&quot;index&quot;:null}" fill="none" stroke-linecap="round"/></g></g></svg>