<svg version="1.1" xmlns="http://www.w3.org/2000/svg" xmlns:xlink="http://www.w3.org/1999/xlink" width="144.4369" height="247.03295" viewBox="0,0,144.4369,247.03295"><g transform="translate(-248.47238,-116.53411)"><g data-paper-data="{&quot;isPaintingLayer&quot;:true}" fill-rule="nonzero" stroke-linejoin="miter" stroke-miterlimit="10" stroke-dasharray="" stroke-dashoffset="0" style="mix-blend-mode: normal"><path d="M248.47238,363.56706v-247.03295h144.4369v247.03295z" fill="none" stroke="none" stroke-width="0" stroke-linecap="butt"/><path d="M311.37398,297.89746l-4.68814,58.4998l-37.50509,1.15675l7.33795,-6.93029l9.17244,-55.64614z" fill="#ffea00" stroke="#000000" stroke-width="5" stroke-linecap="round"/><path d="M358.5672,294.88178l9.17244,55.64614l7.33796,6.93029l-37.5051,-1.15675l-4.68814,-58.4998z" data-paper-data="{&quot;index&quot;:null}" fill="#ffea00" stroke="#000000" stroke-width="5" stroke-linecap="round"/><path d="M344.22261,220.57111c0,0 7.52525,15.16631 11.81811,23.77698c5.0204,10.06998 16.46474,32.95314 16.46474,32.95314l13.13888,9.98359c0,0 -7.79132,10.20497 -12.11993,12.25922c-4.31953,2.04994 -13.82458,0.05336 -13.82458,0.05336l1.48191,-17.16084c0,0 -10.98399,-22.80207 -15.77898,-32.75615c-4.0165,-8.33802 -11.07139,-22.98353 -11.07139,-22.98353z" data-paper-data="{&quot;index&quot;:null}" fill="#ffea00" stroke="#000000" stroke-width="5" stroke-linecap="round"/><path d="M291.73001,223.70511c0,0 -3.57788,15.85753 -5.61484,24.88558c-2.43177,10.77785 -8.00228,35.46696 -8.00228,35.46696l5.30602,16.38709c0,0 -8.68976,4.43325 -13.63877,3.3468c-4.3133,-0.94691 -14.41117,-9.50461 -14.41117,-9.50461l10.55498,-12.68443c0,0 6.00081,-24.87172 8.62613,-35.81322c2.24486,-9.35589 8.77958,-25.82672 8.77958,-25.82672z" fill="#ffea00" stroke="#000000" stroke-width="5" stroke-linecap="round"/><path d="M350.50972,268.47942l13.86058,28.12882l-34.65144,6.52262l-7.94945,-17.52955l4.48431,-0.20383l-7.54179,-0.40767l-3.66897,18.34489l-35.67061,-4.28048l5.0958,-29.35181z" fill="#65ff71" stroke="#000000" stroke-width="5" stroke-linecap="round"/><g stroke="#000000" stroke-width="5" stroke-linecap="round"><path d="M334.05351,204.63564l32.28784,31.67l-22.27322,10.30374l-8.44967,-26.63728c0,0 2.18419,13.70904 4.58366,21.25735c2.5933,8.15806 10.43982,26.00399 10.43982,26.00399c0,0 -21.54669,8.21288 -32.83305,8.70927c-11.24873,0.49474 -34.77259,-5.73587 -34.77259,-5.73587l6.72926,-49.45227l-3.58753,26.15347l-21.51908,-9.336l27.29754,-32.62341z" fill="#98c8ff"/><path d="M327.18751,205.32712l-10.50014,12.15806l-17.96077,-11.88174z" fill="#ffea00"/></g><path d="M340.91406,156.04744c0,0 3.2686,21.36472 3.381,24.70132c0.1124,3.3366 9.37676,5.87588 5.42061,17.4075c-8.65178,15.86201 -45.13606,8.41351 -52.55501,6.34015c-8.48707,-2.37187 -15.58973,-7.33394 -17.71782,-10.73802c-3.58402,-5.73298 -2.18209,-15.50843 -2.36071,-18.29438c-0.31006,-4.83601 19.82591,-19.88606 19.82591,-19.88606z" fill="#ffea00" stroke="#000000" stroke-width="5" stroke-linecap="round"/><path d="M275.58188,172.44303c0,0 -4.89505,-0.59887 -6.44884,-2.29181c-1.87905,-2.04734 -4.03629,-9.1323 -4.03629,-9.1323c0,0 0.83865,-6.69371 3.35864,-9.02402c2.31371,-2.13956 11.19535,-4.43451 11.19535,-4.43451c0,0 -3.46983,-4.95272 -3.90951,-7.56329c-0.38866,-2.30763 1.4056,-7.3037 1.4056,-7.3037c0,0 7.56174,-0.36585 10.40429,0.5469c2.84342,0.91303 6.65362,4.93041 6.65362,4.93041c0,0 3.25787,-7.75005 6.91199,-9.4712c3.54107,-1.66789 14.68425,-0.70094 14.68425,-0.70094c0,0 6.69697,-5.01381 10.55288,-5.74697c3.52103,-0.66949 11.66934,1.52162 11.66934,1.52162l-6.25978,7.82473c0,0 14.21561,0.0691 19.27991,1.09913c3.80202,0.77329 8.41962,4.53467 8.41962,4.53467c0,0 6.05118,7.25119 6.97003,11.84543c1.04671,5.23355 -1.02323,17.88853 -1.02323,17.88853l-6.41627,-6.88576c0,0 2.02638,8.58492 1.79005,12.52368c-0.23311,3.88523 -3.1985,10.9505 -3.1985,10.9505c0,0 -3.97677,-1.77298 -5.66816,-3.12608c-1.3705,-1.09641 -6.86447,-6.4961 -7.73186,-8.16583c-1.14247,-2.19925 -2.24944,-8.26991 -2.24944,-8.26991c0,0 -4.79469,6.40377 -8.7357,8.34653c-3.37986,1.66612 -13.48653,2.60808 -13.48653,2.60808c0,0 -5.65325,-2.25894 -7.3741,-4.59822c-1.61036,-2.18908 -2.64154,-9.01681 -2.64154,-9.01681c0,0 -11.36664,10.17064 -15.48188,12.47287c-2.47881,1.38674 -6.89684,0.04669 -6.89684,0.04669c0,0 0.5644,6.84893 -1.19978,10.10235c-2.1685,3.99904 -10.8503,12.11987 -10.8503,12.11987c0,0 -1.43348,-9.53085 -1.37722,-13.61028c0.04596,-3.3323 1.69021,-9.08143 1.69021,-9.08143" fill="#483100" stroke="#000000" stroke-width="5" stroke-linecap="round"/><path d="M317.65211,177.74163l-14.46132,-1.0846" fill="#ffffff" stroke="#000000" stroke-width="5" stroke-linecap="round"/><path d="M330.06474,177.98265l10.48445,0.84357" fill="#ffffff" stroke="#000000" stroke-width="5" stroke-linecap="round"/><path d="M319.21877,189.67221l11.44854,0.24102" fill="#ffffff" stroke="#000000" stroke-width="5" stroke-linecap="round"/></g></g></svg>