<svg version="1.1" xmlns="http://www.w3.org/2000/svg" xmlns:xlink="http://www.w3.org/1999/xlink" width="543.67341" height="220.59353" viewBox="0,0,543.67341,220.59353"><g transform="translate(-102.15223,32.56766)"><g data-paper-data="{&quot;isPaintingLayer&quot;:true}" fill-rule="nonzero" stroke="#000000" stroke-width="2" stroke-linejoin="miter" stroke-miterlimit="10" stroke-dasharray="" stroke-dashoffset="0" style="mix-blend-mode: normal"><path d="M547.71935,104.95012l-0.30012,-135.38643c0,0 0.77886,-0.89407 1.65457,-0.14041c6.99452,6.01964 94.11601,82.56263 94.11601,82.56263c0,0 0.30012,96.30151 0.30012,119.04636c0,7.45166 0,14.83947 0,14.83947z" fill="#66aaff" stroke-linecap="butt"/><path d="" fill="#9966ff" stroke-linecap="butt"/><path d="M200.74759,186.8938l-95.90053,-82.53952h443.15403l95.13248,81.77147z" fill="#3e679c" stroke-linecap="butt"/><path d="M103.18472,103.44394l0.76805,-135.0116h442.94608l-0.76805,135.0116z" fill="#5b9de3" stroke-linecap="butt"/><g data-paper-data="{&quot;index&quot;:null}" stroke-linecap="butt"><path d="M489.52846,103.73803v-80.60322h52.78211v80.60322z" fill="#1f001e"/><path d="M536.6614,60.53809c2.95783,1.45047 0.80163,5.17947 -1.34446,4.12706c-2.95783,-1.45047 -0.80163,-5.17947 1.34446,-4.12706z" fill="#000000"/></g><path d="M280.87727,105.67042v-42.35261c0,0 -0.01158,-0.04945 0.80957,0.19736c2.95191,0.88723 70.2099,55.49068 70.2099,55.49068c0,0 1.02364,38.56009 1.02364,41.92667c0,0.46568 -1.02364,0.42594 -1.02364,0.42594z" fill="#1d001c" stroke-linecap="butt"/><path d="M352.41866,161.35844v-41.99597h108.5544c0,0 0.46693,-0.33979 0.46693,0.23062c0,3.67403 -0.46693,41.76534 -0.46693,41.76534z" fill="#390036" stroke-linecap="butt"/><path d="M352.92043,119.47242l-70.38021,-55.69408c0,0 -2.57559,-0.45062 -1.3312,-0.45062c8.77897,0 109.53139,0.45062 109.53139,0.45062c0,0 66.52115,54.16025 69.76647,55.16589c1.11535,0.34562 0.61374,0.52819 0.61374,0.52819z" fill="#390036" stroke-linecap="butt"/><path d="M194.66371,104.2286v-46.92687c0,0 -0.00862,-0.05808 0.60265,0.23181c2.19741,1.04207 15.71436,7.50611 15.71436,7.50611c0,0 0.762,45.28941 0.762,49.2435c0,0.54694 -0.762,0.50027 -0.762,0.50027z" fill="#1d001c" stroke-linecap="butt"/><path d="M211.36923,114.78342v-49.32489h80.80808c0,0 0.34758,-0.3991 0.34758,0.27087c0,4.3152 -0.34758,49.05402 -0.34758,49.05402z" fill="#390036" stroke-linecap="butt"/><path d="M211.74275,65.58766l-15.84114,-7.74502c0,0 -1.91728,-0.52927 -0.99095,-0.52927c6.53508,0 81.53535,0.52927 81.53535,0.52927c0,0 12.96845,5.94352 15.38427,7.12466c0.83027,0.40593 0.45687,0.62036 0.45687,0.62036z" fill="#390036" stroke-linecap="butt"/><path d="M215.62148,69.55029h72.48322l0.12367,19.3387h-72.61745z" fill="#1d001c" stroke-linecap="round"/><path d="M250.75679,79.8403c0,-1.54124 1.26315,-2.79066 2.82131,-2.79066c1.55817,0 2.82131,1.24942 2.82131,2.79066c0,1.54124 -1.26314,2.79065 -2.82131,2.79065c-1.55817,0 -2.82131,-1.24941 -2.82131,-2.79065z" fill="#000000" stroke-linecap="butt"/><path d="M215.92592,92.78786h72.48322l0.12368,19.4432h-72.61745z" fill="#1d001c" stroke-linecap="round"/><path d="M251.06124,102.30259c0,-1.54123 1.26314,-2.79066 2.82131,-2.79066c1.55817,0 2.82131,1.24943 2.82131,2.79066c0,1.54123 -1.26314,2.79065 -2.82131,2.79065c-1.55817,0 -2.82131,-1.24941 -2.82131,-2.79065z" fill="#000000" stroke-linecap="butt"/><path d="M256.66371,51.8952c1.43102,1.84269 4.09069,6.76824 4.09069,6.76824c0,0 -3.60736,2.92215 -16.06709,2.44058c-13.99003,-0.54072 -16.73413,-3.42461 -16.73413,-3.42461c0,0 5.09335,-5.03302 7.21872,-6.6664c1.72792,-1.32794 4.58973,-2.40861 4.58973,-2.40861c0,0 -0.49554,-2.03452 -1.27068,-2.98582c-0.82533,-1.0129 -3.54017,-2.9184 -3.54017,-2.9184c0,0 7.75858,1.6839 11.37065,1.76829c4.12025,0.09627 12.02756,-1.22161 12.02756,-1.22161c0,0 -2.78374,1.96941 -3.74243,2.85291c-0.89577,0.82552 -1.83378,2.28595 -1.83378,2.28595c0,0 2.89937,2.23268 3.89093,3.50948z" fill="#691919" stroke-linecap="round"/><g><path d="M255.83412,35.59276c0,0 -4.35478,3.31405 -5.53741,4.88503c-0.71081,0.94423 -0.89508,3.65963 -0.89508,3.65963l-4.98997,-0.09013c0,0 -1.41783,-3.94075 -2.84447,-5.78201c-1.54149,-1.9895 -6.08664,-5.74476 -6.08664,-5.74476" data-paper-data="{&quot;index&quot;:null}" fill="none" stroke-linecap="round"/><path d="M235.09114,35.88835c-2.4289,0 -4.39791,-1.96899 -4.39791,-4.39789c0,-2.42889 1.96901,-4.39791 4.39791,-4.39791c2.4289,0 4.39791,1.96901 4.39791,4.39791c0,2.42888 -1.96901,4.39789 -4.39791,4.39789z" data-paper-data="{&quot;index&quot;:null}" fill="#e3ca8f" stroke-linecap="butt"/><path d="M255.79018,41.05163c-2.4289,0 -4.39791,-1.96901 -4.39791,-4.39791c0,-2.42889 1.96901,-4.3979 4.39791,-4.3979c2.4289,0 4.39791,1.969 4.39791,4.3979c0,2.4289 -1.96901,4.39791 -4.39791,4.39791z" data-paper-data="{&quot;index&quot;:null}" fill="#8fe3c9" stroke-linecap="butt"/></g><path d="M132.9659,84.12243v-95.55147h56.44088v95.55147z" fill="#666f37" stroke-linecap="butt"/><path d="M152.82781,25.23941c0,0 5.67406,5.82196 8.88082,6.77116c3.51015,1.039 10.54295,-1.26776 10.54295,-1.26776c0,0 -4.57431,11.32135 -3.46528,17.55079c1.37091,7.70045 11.07292,25.18148 11.07292,25.18148c0,0 -14.03791,3.15992 -20.51427,2.74119c-6.00561,-0.3883 -17.03833,-5.16916 -17.03833,-5.16916c0,0 -0.75957,-21.34869 1.132,-29.5843c1.54478,-6.72574 9.3892,-16.2234 9.3892,-16.2234z" fill="#d0d0d0" stroke-linecap="round"/><path d="M148.61935,14.79913c0,-10.23577 8.29773,-18.5335 18.5335,-18.5335c10.23577,0 18.5335,8.29773 18.5335,18.5335c0,10.23578 -8.29773,18.53351 -18.5335,18.53351c-10.23577,0 -18.5335,-8.29773 -18.5335,-18.53351z" fill="#d0d0d0" stroke-linecap="butt"/><path d="M168.04311,47.41487l-11.0068,-0.48559" fill="none" stroke-linecap="round"/><path d="M168.20497,48.87165l-15.86274,3.88475" fill="none" stroke-linecap="round"/><path d="M169.60372,5.26105v20.9862" fill="none" stroke-linecap="round"/><path d="M178.26237,10.54429v6.60405" fill="none" stroke-linecap="round"/><path d="M355.96206,66.53129c-0.08402,1.31036 0.57538,5.90819 -1.11034,8.60467c-1.00094,1.60109 -4.34164,3.93498 -8.33349,5.05057c-3.48946,0.97519 -20.64966,4.47856 -24.71898,-2.98206c-1.86075,-5.42384 2.49669,-6.61817 2.54955,-8.18753c0.05286,-1.56936 -1.54115,-8.10819 1.59024,-11.24713c7.9968,-8.01609 27.20076,-6.74587 30.02302,8.76147z" data-paper-data="{&quot;index&quot;:null}" fill="#ffea00" stroke-linecap="round"/><path d="M343.68198,67.09242l-6.30712,-1.09758" data-paper-data="{&quot;index&quot;:null}" fill="#ffffff" stroke-linecap="round"/><path d="M325.98698,67.98902l4.93131,-3.61221" data-paper-data="{&quot;index&quot;:null}" fill="#ffffff" stroke-linecap="round"/><path d="M336.51432,70.98798l-5.38476,0.11336" data-paper-data="{&quot;index&quot;:null}" fill="#ffffff" stroke-linecap="round"/><path d="M329.49953,50.01244c0,0 4.43998,-6.88939 7.91011,-7.68843c2.32306,-0.53491 10.88781,3.35997 10.88781,3.35997c0,0 4.63695,3.07476 5.61723,4.82388c1.10674,1.97478 2.24082,15.28116 2.24082,15.28116c0,0 -9.619,-7.45915 -17.48028,-7.26c-19.67646,0.04968 -13.89728,9.93291 -13.89728,9.93291c0,0 -5.59207,-6.58542 -5.91031,-7.70987c-0.2989,-1.05611 0.36726,-4.18507 0.36726,-4.18507c0,0 2.59374,-4.2563 4.39537,-5.40674c1.59459,-1.01823 5.86929,-1.1478 5.86929,-1.1478z" fill="#291a00" stroke-linecap="round"/><path d="M172.3921,28.00834l7.85148,-7.85148" fill="none" stroke-linecap="round"/><path d="M292.73615,124.79081c0,0 4.46378,-18.77292 7.21071,-26.95877c2.39748,-7.1445 8.36561,-19.45867 8.36561,-19.45867l105.919,-1.2461l15.2648,16.82243l32.08723,25.23364l9.96885,48.2866c0,0 -8.68169,5.67816 -22.01396,5.0546c-15.91874,-12.49642 -45.76353,-8.04091 -61.99201,-7.01509c-3.83614,0.24248 -11.72643,10.78629 -14.04601,10.8099c-6.85884,0.06981 -24.37793,-7.6033 -24.37793,-7.6033c0,0 -12.7476,-11.43332 -28.06616,-19.8392c-8.16749,-4.48182 -29.62369,-8.79833 -33.09078,-11.49921c-4.88722,-3.80717 4.77065,-12.58683 4.77065,-12.58683z" fill="#801f1f" stroke-linecap="round"/><path d="M335.7268,106.09922l18.38006,14.33022l-5.29595,43.92523" fill="none" stroke-linecap="round"/><path d="M360.02587,121.05249h90.6542" fill="none" stroke-linecap="round"/><path d="M307.68942,83.66931l7.47664,6.54206" fill="none" stroke-linecap="round"/><path d="M351.71979,77.3223l10.70968,-4.94682l9.20128,8.78061l-11.01137,2.1024l-3.77101,-5.56517z" fill="#ffea00" stroke-linecap="round"/><path d="M323.39432,78.24118l-3.77101,5.56517l-11.01137,-2.1024l9.20128,-8.78061l10.70968,4.94682z" data-paper-data="{&quot;index&quot;:null}" fill="#ffea00" stroke-linecap="round"/><path d="M389.78933,105.98896l-20.17131,-16.16468" fill="none" stroke-linecap="round"/><path d="M324.71611,82.63998l-2.34872,4.83559l-3.45399,0.13816" fill="none" stroke-linecap="round"/><path d="M362.29556,86.37029l-4.00664,0.13816l-1.65792,-4.55927" fill="none" stroke-linecap="round"/><path d="M299.92849,122.75196l16.39893,16.39893" fill="none" stroke-linecap="round"/><path d="M354.8147,165.58998h32.79786" fill="none" stroke-linecap="round"/><path d="M470.83433,164.4744h-25.43507" fill="none" stroke-linecap="round"/><path d="M321.32975,143.84391l12.72104,12.72104" fill="none" stroke-linecap="round"/><path d="M557.95701,111.96553v-80.60322l30.42122,27.04108v80.60322z" fill="#1f001e" stroke-linecap="butt"/><path d="M581.86881,94.33014c2.95783,1.45047 0.80163,5.17947 -1.34446,4.12706c-2.95783,-1.45047 -0.80163,-5.17947 1.34446,-4.12706z" fill="#000000" stroke-linecap="butt"/></g></g></svg>