<svg version="1.1" xmlns="http://www.w3.org/2000/svg" xmlns:xlink="http://www.w3.org/1999/xlink" width="487.92046" height="187.81384" viewBox="0,0,487.92046,187.81384"><g transform="translate(-106.88909,32.41007)"><g data-paper-data="{&quot;isPaintingLayer&quot;:true}" fill-rule="nonzero" stroke="#000000" stroke-width="2" stroke-linejoin="miter" stroke-miterlimit="10" stroke-dasharray="" stroke-dashoffset="0" style="mix-blend-mode: normal"><path d="M116.58338,154.40378l-8.43663,-49.28146h482.15403l3.43662,49.28146z" fill="#5e3f9c" stroke-linecap="butt"/><path d="M107.8891,104.36959v-135.77965h481.94608v135.77965z" fill="#aa8ee3" stroke-linecap="butt"/><g stroke-linecap="butt"><path d="M123.97026,104.01319v-80.60322h52.78211v80.60322z" fill="#1f001e"/><path d="M171.1032,60.81325c2.95783,1.45047 0.80163,5.17947 -1.34446,4.12706c-2.95783,-1.45047 -0.80163,-5.17947 1.34446,-4.12706z" fill="#000000"/></g><path d="M210.39306,108.32069v-29.40013h56.4792v29.40013z" fill="#1f001e" stroke-linecap="butt"/><path d="M207.35085,78.82844v-4.38101h62.84477v4.38101z" fill="#3b0039" stroke-linecap="butt"/><g fill="#3b0039" stroke-linecap="butt"><path d="M212.8907,90.47164v-8.15143h51.53357v8.15143z"/><path d="M237.72936,86.27861c0,-0.52499 0.42559,-0.95057 0.95057,-0.95057c0.52498,0 0.95057,0.42558 0.95057,0.95057c0,0.52499 -0.42559,0.95057 -0.95057,0.95057c-0.52498,0 -0.95057,-0.42558 -0.95057,-0.95057z"/></g><g fill="#3b0039" stroke-linecap="butt"><path d="M212.91695,103.20858v-8.15142h51.53357v8.15142z"/><path d="M237.75561,99.01556c0,-0.52499 0.42559,-0.95057 0.95057,-0.95057c0.52498,0 0.95057,0.42558 0.95057,0.95057c0,0.52499 -0.42559,0.95057 -0.95057,0.95057c-0.52498,0 -0.95057,-0.42558 -0.95057,-0.95057z"/></g><path d="M231.39164,55.12614c0,0 -3.0731,2.53904 -4.11535,3.8842c-0.96459,1.24493 -1.92323,3.90938 -1.92323,3.90938l-3.37386,0.06094c0,0 -0.12459,-1.83596 -0.60519,-2.47438c-0.79961,-1.06218 -3.744,-3.30291 -3.744,-3.30291" fill="none" stroke-linecap="round"/><path d="M228.68138,54.42969c0,-1.64225 1.3313,-2.97355 2.97355,-2.97355c1.64225,0 2.97355,1.33131 2.97355,2.97355c0,1.64225 -1.3313,2.97354 -2.97355,2.97354c-1.64225,0 -2.97355,-1.3313 -2.97355,-2.97354z" fill="#e3ca8f" stroke-linecap="butt"/><path d="M214.68617,57.92072c0,-1.64225 1.3313,-2.97355 2.97355,-2.97355c1.64225,0 2.97355,1.33131 2.97355,2.97355c0,1.64225 -1.3313,2.97355 -2.97355,2.97355c-1.64225,0 -2.97355,-1.3313 -2.97355,-2.97355z" fill="#8fe3c9" stroke-linecap="butt"/><path d="M226.19857,63.1754c0,0 2.21408,2.97658 2.95705,4.61313c0.84504,1.86138 1.84654,5.96775 1.84654,5.96775l-16.42308,-0.06491c0,0 1.3174,-4.29231 2.08545,-6.115c0.66754,-1.58416 2.26375,-4.20623 2.26375,-4.20623c0,0 2.78266,-0.69148 3.9877,-0.72376c1.21824,-0.03263 3.2826,0.52902 3.2826,0.52902z" fill="#8a0050" stroke-linecap="round"/><path d="M289.11244,44.79768v-29.63956h49.4248v29.63956z" fill="#71006d" stroke-linecap="butt"/><path d="M292.20745,41.97076v-23.69902h43.45578v23.69902z" fill="#9d6363" stroke-linecap="butt"/><g fill="#00a505"><path d="M298.00905,26.32354l0.79653,-3.47574l10.42722,-0.43447l0.57929,18.89935l-7.45836,0.07241l-0.07242,-6.22737h-2.60681l2.5344,0.21724l-0.07241,6.08254l-6.15496,0.07241z" stroke-linecap="round"/><path d="M305.46741,29.11137c0,1.25973 -2.35042,2.28095 -5.24982,2.28095c-2.8994,0 -5.24982,-1.02122 -5.24982,-2.28095c0,-1.25973 2.35042,-2.28096 5.24982,-2.28096c2.8994,0 5.24982,1.02122 5.24982,2.28096z" stroke-linecap="butt"/><path d="M309.37762,26.17872l3.40333,0.07241l0.07241,8.83418l-2.96886,0.28965z" stroke-linecap="round"/></g><g data-paper-data="{&quot;index&quot;:null}" fill="#a60000"><path d="M333.42179,41.09906l-6.15496,-0.07241l-0.07241,-6.08254l2.5344,-0.21724h-2.60681l-0.07242,6.22737l-7.45836,-0.07241l0.57929,-18.89935l10.42722,0.43447l0.79653,3.47574z" stroke-linecap="round"/><path d="M329.18573,26.39957c2.8994,0 5.24982,1.02122 5.24982,2.28096c0,1.25973 -2.35042,2.28095 -5.24982,2.28095c-2.8994,0 -5.24982,-1.02122 -5.24982,-2.28095c0,-1.25973 2.35042,-2.28096 5.24982,-2.28096z" stroke-linecap="butt"/><path d="M319.51883,34.94409l-2.96886,-0.28965l0.07241,-8.83418l3.40333,-0.07241z" stroke-linecap="round"/></g><g data-paper-data="{&quot;index&quot;:null}" stroke-linecap="butt"><path d="M350.6935,103.73801v-80.60322h52.78211v80.60322z" fill="#1f001e"/><path d="M357.68713,64.66513c-2.14609,1.05241 -4.30229,-2.67659 -1.34446,-4.12706c2.14609,-1.05241 4.30229,2.67659 1.34446,4.12706z" fill="#000000"/></g><g stroke-linecap="butt"><path d="M518.09097,103.70952v-80.60322h52.78211v80.60322z" fill="#1f001e"/><path d="M565.2239,60.50958c2.95783,1.45047 0.80163,5.17947 -1.34446,4.12706c-2.95783,-1.45047 -0.80163,-5.17947 1.34446,-4.12706z" fill="#000000"/></g></g></g></svg>