<svg version="1.1" xmlns="http://www.w3.org/2000/svg" xmlns:xlink="http://www.w3.org/1999/xlink" width="946.63668" height="530.58287" viewBox="0,0,946.63668,530.58287"><g transform="translate(171.72207,79.90166)"><g data-paper-data="{&quot;isPaintingLayer&quot;:true}" fill="none" fill-rule="nonzero" stroke="#000000" stroke-width="3" stroke-linejoin="miter" stroke-miterlimit="10" stroke-dasharray="" stroke-dashoffset="0" style="mix-blend-mode: normal"><path d="M-170.22206,67.02323v-111.55916h833.71299v111.55917z" stroke-linecap="butt"/><path d="M-152.86085,449.17063v-386.62101l883.7487,-6.2103v386.62102z" stroke-linecap="butt"/><path d="M133.33292,61.51114v-139.78494c0,0 1.18536,0.09707 1.79208,1.12365c5.49751,9.30186 82.18426,140.96545 82.18426,140.96545c0,0 9.37866,122.09859 9.37866,134.33856c0,1.90239 -9.37866,5.44639 -9.37866,5.44639z" stroke-linecap="butt"/><path d="M217.83515,203.6086v-140.20857h555.57947v140.20858z" stroke-linecap="butt"/><path d="M203.96873,139.2643v53.41032c0,0 -3.87709,7.58592 -23.99856,8.48069c-21.18368,0.94201 -25.26164,-8.48069 -25.26164,-8.48069v-53.7712z" stroke-linecap="round"/><path d="M204.48418,138.40809c0,4.87006 -11.21388,8.81801 -25.04691,8.81801c-13.83302,0 -25.0469,-3.94795 -25.0469,-8.81801c0,-4.87006 11.21388,-8.81801 25.0469,-8.81801c13.83302,0 25.04691,3.94795 25.04691,8.81801z" stroke-linecap="butt"/></g></g></svg>