<svg version="1.1" xmlns="http://www.w3.org/2000/svg" xmlns:xlink="http://www.w3.org/1999/xlink" width="2058.92981" height="834.14685" viewBox="0,0,2058.92981,834.14685"><defs><linearGradient x1="930.65715" y1="-48.41732" x2="1301.71342" y2="-48.41732" gradientUnits="userSpaceOnUse" id="color-1"><stop offset="0" stop-color="#1d001c"/><stop offset="1" stop-color="#390036"/></linearGradient></defs><g transform="translate(243.86277,267.32331)"><g data-paper-data="{&quot;isPaintingLayer&quot;:true}" fill-rule="nonzero" stroke-linejoin="miter" stroke-miterlimit="10" stroke-dasharray="" stroke-dashoffset="0" style="mix-blend-mode: normal"><path d="M-160.42192,452.68201v-545.91932h962.34835v545.91932z" fill="#000000" stroke="#000000" stroke-width="2" stroke-linecap="butt"/><path d="" fill="#9966ff" stroke="#000000" stroke-width="5.5" stroke-linecap="butt"/><path d="M1444.18428,252.89999l-1.13967,-514.11753c0,0 2.95766,-3.39514 6.28308,-0.53319c26.56104,22.85903 357.3969,313.52399 357.3969,313.52399c0,0 1.13967,365.69614 1.13967,452.06761c0,28.29699 0,56.35152 0,56.35152z" fill="#9966ff" stroke="#000000" stroke-width="5.5" stroke-linecap="butt"/><path d="M124.81221,564.07354l-361.25685,-310.51964h1682.8367l361.25685,310.51964z" fill="#5e3f9c" stroke="#000000" stroke-width="5.5" stroke-linecap="butt"/><path d="M-236.17046,251.03743v-515.61074h1682.04702v515.61074z" fill="#885ae2" stroke="#000000" stroke-width="5.5" stroke-linecap="butt"/><path d="M-153.48128,297.49044v-143.08607c0,0 0.90356,-0.95383 4.74406,2.35698c16.61749,14.32542 135.12659,118.22121 135.12659,118.22121v143.08607z" fill="#390036" stroke="#000000" stroke-width="5.5" stroke-linecap="butt"/><path d="M-10.39516,418.06858v-143.08606h570.73662v143.08606z" fill="#390036" stroke="#000000" stroke-width="5.5" stroke-linecap="butt"/><path d="M-10.70069,274.67705l-135.9848,-116.42546c0,0 -7.37381,-4.68839 -1.61109,-4.68159c43.60294,0.05126 571.67723,5.35206 571.67723,5.35206c0,0 125.83012,102.61831 137.1031,112.1672c1.62996,1.38066 -0.44786,3.58783 -0.44786,3.58783z" fill="#9959d9" stroke="#000000" stroke-width="5.5" stroke-linecap="butt"/><path d="M930.67944,255.83898v-331.94128c0,0 -0.03274,-0.38761 2.2885,1.54679c8.34447,6.95374 59.67384,50.08854 59.67384,50.08854c0,0 2.89362,302.21718 2.89362,328.60293c0,3.64977 -2.89362,3.3383 -2.89362,3.3383z" fill="#1d001c" stroke="#000000" stroke-width="5.5" stroke-linecap="butt"/><path d="M994.11711,307.47426v-329.14605h306.86126c0,0 1.3199,-2.66315 1.3199,1.8075c0,28.79541 -1.3199,327.33855 -1.3199,327.33855z" fill="#390036" stroke="#000000" stroke-width="5.5" stroke-linecap="butt"/><path d="M995.53552,-20.8101l-60.15527,-51.68268c0,0 -7.2807,-3.53182 -3.76305,-3.53182c24.81637,0 309.62299,3.53182 309.62299,3.53182c0,0 49.2465,39.66123 58.42035,47.54301c3.15288,2.7088 1.73492,4.13971 1.73492,4.13971z" fill="url(#color-1)" stroke="#000000" stroke-width="5.5" stroke-linecap="butt"/><path d="M1150.02637,-19.0825v324.0402" fill="none" stroke="#000000" stroke-width="5.5" stroke-linecap="round"/><path d="M1127.58776,139.30781c0,-1.45794 1.18191,-2.63984 2.63984,-2.63984c1.45794,0 2.63984,1.18191 2.63984,2.63984c0,1.45794 -1.18191,2.63984 -2.63984,2.63984c-1.45794,0 -2.63984,-1.18191 -2.63984,-2.63984z" fill="#9966ff" stroke="#000000" stroke-width="5.5" stroke-linecap="butt"/><path d="M1169.1448,139.17299c0,-1.45794 1.18191,-2.63984 2.63984,-2.63984c1.45794,0 2.63984,1.18191 2.63984,2.63984c0,1.45794 -1.18191,2.63984 -2.63984,2.63984c-1.45794,0 -2.63984,-1.18187 -2.63984,-2.63984z" fill="#9966ff" stroke="#000000" stroke-width="5.5" stroke-linecap="butt"/><path d="M-8.22038,255.76179c0,0 -53.03429,-30.97595 -67.5533,-47.54936c-14.61285,-16.68054 -19.84408,-52.21459 -19.84408,-52.21459l88.1634,-3.18603c0,0 30.88466,15.92584 42.15784,28.79418c16.10143,18.37976 45.23951,70.9698 45.23951,70.9698z" fill="#6c3f99" stroke="#000000" stroke-width="5.5" stroke-linecap="butt"/><path d="M-75.88769,167.077l61.0106,66.37417" fill="none" stroke="#000000" stroke-width="5.5" stroke-linecap="round"/><path d="M425.52994,158.88512l135.89515,112.92695l16.26912,169.3904l-260.30621,4.78504l-29.66725,-20.09717l6.69905,-152.16427l-95.70081,-114.84099z" fill="#4c40ff" stroke="#000000" stroke-width="5.5" stroke-linecap="round"/><path d="M542.28494,415.36324l-230.63896,0.95702" fill="none" stroke="#000000" stroke-width="5.5" stroke-linecap="round"/><path d="M637.83611,-7.8836l-34.28813,-23.57305h281.80538l34.28813,23.57305z" fill="#390036" stroke="#000000" stroke-width="5.5" stroke-linecap="butt"/><path d="M645.03667,153.61341l-34.28812,-23.57306h281.80542l34.2881,23.57306z" fill="#390036" stroke="#000000" stroke-width="5.5" stroke-linecap="butt"/><path d="M181.35091,79.22455l30.05003,-224.77421l182.8908,24.45064l-30.05003,224.77421z" fill="#8d7bb1" stroke="#000000" stroke-width="5.5" stroke-linecap="butt"/><path d="M181.22556,-87.61827l-21.94188,-32.91286l91.48658,-60.99104l21.94192,32.91286z" fill-opacity="0.43529" fill="#f4ff00" stroke="#000000" stroke-width="5.5" stroke-linecap="butt"/><path d="M320.78744,117.3297l-17.14328,-25.71491l71.47872,-47.65246l17.14325,25.71491z" fill-opacity="0.43529" fill="#f4ff00" stroke="#000000" stroke-width="5.5" stroke-linecap="butt"/><path d="M1434.4519,213.92623l-2.74579,68.64443c0,0 -12.69811,11.9705 -53.54771,11.1965c-29.39524,-0.55692 -51.24941,-12.11176 -51.24941,-12.11176l2.28813,-69.55967z" fill="#1d0029" stroke="#000000" stroke-width="5.5" stroke-linecap="round"/><path d="M1433.49925,211.40051c0,7.37605 -23.41953,13.35547 -52.30896,13.35547c-28.88943,0 -52.30896,-5.97943 -52.30896,-13.35547c0,-7.37605 23.41953,-13.35549 52.30896,-13.35549c28.88943,0 52.30896,5.97947 52.30896,13.35549z" fill="#0e0000" stroke="#000000" stroke-width="5.5" stroke-linecap="butt"/><path d="M1386.40083,110.50203l-0.45762,95.64451c0,0 -4.09965,4.49135 -6.39557,4.70009c-2.67877,0.24352 -8.70624,-3.32717 -8.70624,-3.32717l0.91529,-96.10215c0,0 4.72048,-4.01329 7.29,-4.17388c2.27621,-0.14225 7.35413,3.2586 7.35413,3.2586z" fill="#220013" stroke="#000000" stroke-width="5.5" stroke-linecap="round"/><path d="M1421.89969,100.8567c0,12.11851 10.73405,26.8222 4.81944,35.59361c-3.65907,5.42639 -11.29447,15.29782 -19.78798,17.76477c-9.82929,2.85493 -20.80783,-2.13161 -28.10273,-2.13161c-7.50573,0 -16.87123,5.50348 -25.31674,3.662c-8.39253,-1.82993 -15.87663,-10.98306 -19.7245,-17.84965c-4.55191,-8.12295 1.96995,-26.54518 1.96995,-37.03912c0,-8.66975 2.45833,-14.68282 8.27417,-19.65781c4.03802,-3.45419 11.01457,-6.14403 14.42741,-9.97181c7.71201,-8.6497 8.93284,-21.59715 20.36971,-21.59715c11.45036,0 14.21135,15.50854 21.92608,24.17635c2.20398,2.47629 10.33276,3.99985 12.84892,5.92449c6.9734,5.33403 8.29627,10.3433 8.29627,21.12596z" fill="#314d1e" stroke="#000000" stroke-width="5.5" stroke-linecap="butt"/><path d="M332.12332,277.729h61.29342" fill="none" stroke="#000000" stroke-width="5.5" stroke-linecap="round"/><path d="M497.19774,272.85339h64.07952" fill="none" stroke="#000000" stroke-width="5.5" stroke-linecap="round"/><path d="M241.47262,-77.25656c13.15008,-8.07086 26.89931,-8.5057 38.70716,-7.00185c13.02978,1.65943 29.79932,8.32012 36.16732,16.53776c6.36795,8.21763 -2.82547,26.48863 -2.82547,26.48863c0,0 22.96008,29.59585 -15.18682,39.90951c-21.09999,5.70473 -71.29504,2.53428 -67.45768,-31.78635c4.85134,-43.38952 -2.5546,-36.07683 10.59544,-44.14769z" fill="#c5b056" stroke="#000000" stroke-width="5.5" stroke-linecap="round"/><path d="M282.5852,-104.45154l34.87957,-9.88909l40.55765,43.44132l-40.15208,5.65092l6.08363,25.42907l-33.66284,-12.71451l-35.69074,3.88501l-37.31306,27.195l8.11154,-30.37361l-15.00634,-7.41679l10.54498,-21.54406l-5.67807,-9.88909l12.16732,-10.24226l6.8948,9.18269l5.27252,-25.42907h15.41189l-5.27252,21.1909l45.01899,-22.95681z" fill="#003f96" stroke="#000000" stroke-width="5.5" stroke-linecap="round"/><path d="M286.78219,-19.3067l-17.48934,9.11415l-9.85318,-10.59215l42.36859,-0.98531" fill="none" stroke="#000000" stroke-width="5.5" stroke-linecap="round"/><path d="M253.77409,-49.85142l16.9967,12.07014l-4.43393,7.14354" fill="none" stroke="#000000" stroke-width="5.5" stroke-linecap="round"/><path d="M288.01383,-31.37676l-4.92657,-9.85317l19.70631,-5.91188" fill="none" stroke="#000000" stroke-width="5.5" stroke-linecap="round"/><path d="M341.38166,-10.72436l21.36536,3.09234c0,0 -5.85094,9.1005 -7.98664,14.90191c-3.4697,9.4251 -10.84862,36.26247 -10.84862,36.26247l-35.70263,-3.09234c0,0 -3.49281,-10.82524 -2.65017,-16.19154c0.9293,-5.91823 7.99149,-17.82431 7.99149,-17.82431l23.61434,3.93571z" fill="#c5b056" stroke="#000000" stroke-width="5.5" stroke-linecap="round"/><path d="M259.95527,50.24739l-43.15238,21.0665l-22.42563,-23.78476l28.88149,-9.17412z" fill="#c5b056" stroke="#000000" stroke-width="5.5" stroke-linecap="round"/><path d="M289.9264,36.50558c-4.03566,5.41776 -13.95615,4.85693 -22.15802,-1.25261c-8.20187,-6.10958 -11.57925,-15.45427 -7.54359,-20.87203c4.03566,-5.41776 13.95615,-4.85693 22.15802,1.25261c8.20187,6.10958 11.57925,15.45427 7.54359,20.87203z" fill="#454545" stroke="#000000" stroke-width="5.5" stroke-linecap="butt"/><path d="M263.01329,32.91848l-25.14389,9.17412" fill="none" stroke="#000000" stroke-width="5.5" stroke-linecap="round"/><path d="M264.71222,36.99588l-18.68802,7.13544" fill="none" stroke="#000000" stroke-width="5.5" stroke-linecap="round"/><g fill="#1f001e" stroke="#000000" stroke-width="5.5" stroke-linecap="butt"><path d="M1507.51461,307.15468v-317.97026l108.26942,88.89492v321.38931z"/><path d="M1592.98142,222.25634c5.22405,5.50802 1.41583,19.66856 -2.37456,15.67213c-5.22405,-5.50802 -1.41583,-19.66856 2.37456,-15.67213z"/></g><path d="M184.91998,403.63676v-386.21308h225.81369v386.21309z" fill="none" stroke="none" stroke-width="0" stroke-linecap="butt"/><path d="M298.80313,294.37348l-28.08186,83.58008l5.06046,14.94649l-50.95783,-29.06405l36.36576,-84.23777z" data-paper-data="{&quot;index&quot;:null}" fill="#ffea00" stroke="#000000" stroke-width="5" stroke-linecap="round"/><path d="M361.70008,285.24608l14.34026,86.99758l11.47222,10.83486l-58.63574,-1.80847l-7.32947,-91.459z" data-paper-data="{&quot;index&quot;:null}" fill="#ffea00" stroke="#000000" stroke-width="5" stroke-linecap="round"/><path d="M344.44589,254.97605l30.13713,33.39255l-54.17431,10.19751l-20.89563,-16.82157l11.34703,-0.31867l-16.12712,-0.63736l10.77534,19.78977l-55.76769,-6.69214l-8.54462,-36.99806z" fill="#65ff71" stroke="#000000" stroke-width="5" stroke-linecap="round"/><path d="M348.90085,190.42969l19.68881,33.92738l28.33232,37.36074l33.1679,-12.41628c0,0 7.77116,23.41005 2.36579,25.60717c-3.57389,1.45268 -28.44534,1.62175 -28.44534,1.62175l-22.79546,-0.52976l-32.60364,-41.71651l-16.18904,-35.11363z" data-paper-data="{&quot;index&quot;:null}" fill="#ffea00" stroke="#000000" stroke-width="5" stroke-linecap="round"/><path d="M251.52364,192.96957l-9.35424,35.50925l-32.73106,45.58456l-34.92164,2.13052c0,0 -24.6669,-0.49083 -25.42889,-0.63411c-7.1859,-1.35115 9.82732,-28.24549 9.82732,-28.24549l30.66775,15.13133l33.31925,-37.96416l14.62666,-36.85215z" fill="#ffea00" stroke="#000000" stroke-width="5" stroke-linecap="round"/><g stroke="#000000" stroke-width="5" stroke-linecap="round"><path d="M322.034,165.75935l27.96007,21.37015l25.37988,33.86628l-37.10687,8.51994l-13.62588,-41.87279c0,0 3.63883,19.56144 7.63632,30.33212c4.32041,11.64074 17.3926,37.1051 17.3926,37.1051c0,0 -35.8965,11.71896 -54.69941,12.42726c-18.74022,0.70594 -57.93066,-8.18451 -57.93066,-8.18451l11.21086,-70.56346l-5.97678,37.3184l-35.8505,-13.32154l45.47732,-46.55035z" fill="#98c8ff"/><path d="M310.59534,166.74601l-17.49309,17.34834l-29.92239,-16.95406z" fill="#ffea00"/></g><path d="M333.46359,96.42883c0,0 5.44544,30.48533 5.6327,35.24632c0.18725,4.76099 15.62156,8.3843 9.03066,24.83877c-14.41374,22.63351 -75.19605,12.00524 -87.55592,9.04676c-14.13933,-3.38442 -25.97228,-10.4648 -29.51765,-15.32208c-5.97093,-8.18039 -3.63533,-22.12898 -3.93291,-26.10425c-0.51656,-6.9005 33.02969,-28.37543 33.02969,-28.37543z" fill="#ffea00" stroke="#000000" stroke-width="5" stroke-linecap="round"/><path d="M224.62108,119.8237c0,0 -8.15509,-0.85453 -10.74368,-3.27018c-3.13047,-2.92134 -6.7244,-13.03088 -6.7244,-13.03088c0,0 1.39718,-9.55126 5.59545,-12.87638c3.85461,-3.05294 18.6513,-6.32761 18.6513,-6.32761c0,0 -5.78069,-7.06703 -6.51319,-10.79206c-0.6475,-3.29276 2.3417,-10.42165 2.3417,-10.42165c0,0 12.59776,-0.52203 17.3334,0.78037c4.73711,1.3028 11.08484,7.0352 11.08484,7.0352c0,0 5.42757,-11.05855 11.51529,-13.51446c5.89938,-2.37991 24.46376,-1.00018 24.46376,-1.00018c0,0 11.15707,-7.1542 17.58095,-8.20035c5.86598,-0.9553 19.44096,2.1712 19.44096,2.1712l-10.42871,11.16511c0,0 23.683,0.09861 32.12006,1.56835c6.33411,1.1034 14.02698,6.47052 14.02698,6.47052c0,0 10.08118,10.34672 11.61198,16.90225c1.74381,7.46775 -1.70468,25.52514 -1.70468,25.52514l-10.68943,-9.82529c0,0 3.37591,12.24982 2.98219,17.87004c-0.38835,5.54384 -5.32865,15.62527 -5.32865,15.62527c0,0 -6.62524,-2.52987 -9.44308,-4.4606c-2.28323,-1.56446 -11.43611,-9.26928 -12.88118,-11.65182c-1.90333,-3.13812 -3.74754,-11.80034 -3.74754,-11.80034c0,0 -7.98788,9.13754 -14.55356,11.90967c-5.63079,2.37739 -22.46836,3.72147 -22.46836,3.72147c0,0 -9.41825,-3.22328 -12.28516,-6.5612c-2.68284,-3.1236 -4.40077,-12.86609 -4.40077,-12.86609c0,0 -18.93667,14.51249 -25.79261,17.79754c-4.12966,1.97874 -11.49003,0.06663 -11.49003,0.06663c0,0 0.94028,9.77274 -1.99882,14.41505c-3.61269,5.70623 -18.07645,17.29384 -18.07645,17.29384c0,0 -2.38815,-13.59957 -2.29442,-19.42051c0.07656,-4.75486 2.81586,-12.95829 2.81586,-12.95829" fill="#483100" stroke="#000000" stroke-width="5" stroke-linecap="round"/><path d="M294.7095,127.38427l-24.09236,-1.54761" fill="#ffffff" stroke="#000000" stroke-width="5" stroke-linecap="round"/><path d="M315.38876,127.72818l17.46694,1.20369" fill="#ffffff" stroke="#000000" stroke-width="5" stroke-linecap="round"/><path d="M316.39265,144.75193l-19.07311,-0.34391" fill="#ffffff" stroke="#000000" stroke-width="5" stroke-linecap="round"/></g></g></svg>