<svg version="1.1" xmlns="http://www.w3.org/2000/svg" xmlns:xlink="http://www.w3.org/1999/xlink" width="177.05188" height="235.77168" viewBox="0,0,177.05188,235.77168"><g transform="translate(-230.95547,-127.79539)"><g data-paper-data="{&quot;isPaintingLayer&quot;:true}" fill-rule="nonzero" stroke-linejoin="miter" stroke-miterlimit="10" stroke-dasharray="" stroke-dashoffset="0" style="mix-blend-mode: normal"><path d="M240.42861,363.56707v-235.77168h160.52443v235.77168z" fill="none" stroke="none" stroke-width="0" stroke-linecap="butt"/><path d="M310.33626,300.89108l-5.21031,55.83303l-41.68245,1.10402l8.15526,-6.61437l10.19408,-53.10945z" fill="#ffea00" stroke="#000000" stroke-width="5" stroke-linecap="round"/><path d="M362.78591,298.01287l10.19408,53.10945l8.15527,6.61437l-41.68246,-1.10402l-5.21031,-55.83303z" data-paper-data="{&quot;index&quot;:null}" fill="#ffea00" stroke="#000000" stroke-width="5" stroke-linecap="round"/><path d="M348.30747,227.85451c0,0 10.66677,12.89666 16.7452,20.21502c7.10858,8.55864 23.30158,28.00085 23.30158,28.00085l15.99448,6.99356c0,0 -6.91444,11.02723 -11.33213,13.75147c-4.40843,2.71853 -15.14634,2.57688 -15.14634,2.57688l-1.11083,-16.41979c0,0 -15.67542,-19.45004 -22.51842,-27.94082c-5.73202,-7.11229 -15.80016,-19.60482 -15.80016,-19.60482z" data-paper-data="{&quot;index&quot;:null}" fill="#ffea00" stroke="#000000" stroke-width="5" stroke-linecap="round"/><path d="M285.4669,233.18571c0,0 -6.35352,14.31389 -9.97072,22.4631c-4.31828,9.72869 -14.21027,32.01445 -14.21027,32.01445l3.3156,16.36588c0,0 -10.21553,2.6574 -15.48085,0.76866c-4.58898,-1.64614 -14.36184,-11.47369 -14.36184,-11.47369l13.52536,-10.10475c0,0 10.3922,-22.38257 14.94795,-32.2316c3.89554,-8.42174 13.58807,-22.79649 13.58807,-22.79649z" fill="#ffea00" stroke="#000000" stroke-width="5" stroke-linecap="round"/><path d="M353.83098,272.8141l15.40438,26.84654l-38.51096,6.22528l-8.83487,-16.73044l4.98378,-0.19454l-8.38181,-0.38909l-4.07762,17.50862l-39.64364,-4.08535l5.66338,-28.01377z" fill="#65ff71" stroke="#000000" stroke-width="5" stroke-linecap="round"/><g stroke="#000000" stroke-width="5" stroke-linecap="round"><path d="M335.54186,211.88071l35.8841,30.22629l-24.75403,9.83403l-9.3908,-25.42299c0,0 2.42747,13.0841 5.09419,20.28831c2.88215,7.78617 11.60262,24.81857 11.60262,24.81857c0,0 -23.94658,7.83849 -36.49003,8.31225c-12.50162,0.47219 -38.64559,-5.4744 -38.64559,-5.4744l7.47877,-47.19794l-3.98711,24.96124l-23.9159,-8.91041l30.33797,-31.13623z" fill="#98c8ff"/><path d="M327.91112,212.54067l-11.66966,11.60382l-19.96126,-11.3401z" fill="#ffea00"/></g><path d="M343.16654,165.50745c0,0 3.63266,20.39078 3.75757,23.57528c0.12491,3.1845 10.42115,5.60802 6.02437,16.61396c-9.61542,15.13892 -50.16336,8.02997 -58.40864,6.05113c-9.43237,-2.26374 -17.32613,-6.99962 -19.69125,-10.24851c-3.98321,-5.47164 -2.42513,-14.80146 -2.62365,-17.46041c-0.3446,-4.61555 22.03414,-18.97953 22.03414,-18.97953z" fill="#ffea00" stroke="#000000" stroke-width="5" stroke-linecap="round"/><path d="M270.5576,181.15563c0,0 -5.44027,-0.57157 -7.16711,-2.18734c-2.08834,-1.95401 -4.48585,-8.71599 -4.48585,-8.71599c0,0 0.93206,-6.38857 3.73272,-8.61265c2.57141,-2.04203 12.44229,-4.23236 12.44229,-4.23236c0,0 -3.8563,-4.72695 -4.34495,-7.21851c-0.43195,-2.20244 1.56216,-6.97075 1.56216,-6.97075c0,0 8.40398,-0.34917 11.56313,0.52197c3.16013,0.87141 7.39471,4.70565 7.39471,4.70565c0,0 3.62073,-7.39675 7.68186,-9.03944c3.93548,-1.59185 16.3198,-0.66898 16.3198,-0.66898c0,0 7.44289,-4.78525 11.72827,-5.48499c3.9132,-0.63897 12.96908,1.45226 12.96908,1.45226l-6.957,7.46803c0,0 15.79896,0.06595 21.42733,1.04902c4.22549,0.73804 9.3574,4.32795 9.3574,4.32795c0,0 6.72517,6.92063 7.74636,11.30544c1.16329,4.99497 -1.1372,17.07306 -1.1372,17.07306l-7.13092,-6.57187c0,0 2.25208,8.19357 1.98943,11.95277c-0.25907,3.70812 -3.55476,10.45131 -3.55476,10.45131c0,0 -4.41971,-1.69215 -6.29948,-2.98357c-1.52315,-1.04643 -7.62904,-6.19996 -8.59304,-7.79358c-1.26972,-2.099 -2.49999,-7.89292 -2.49999,-7.89292c0,0 -5.32873,6.11185 -9.70869,7.96605c-3.75631,1.59017 -14.98867,2.48918 -14.98867,2.48918c0,0 -6.28291,-2.15596 -8.19543,-4.3886c-1.78972,-2.08929 -2.93575,-8.60577 -2.93575,-8.60577c0,0 -12.63267,9.707 -17.20626,11.90428c-2.7549,1.32353 -7.66502,0.04457 -7.66502,0.04457c0,0 0.62726,6.53672 -1.33342,9.64182c-2.41003,3.81674 -12.05882,11.56738 -12.05882,11.56738c0,0 -1.59315,-9.09638 -1.53061,-12.98984c0.05108,-3.18039 1.87847,-8.66744 1.87847,-8.66744" fill="#483100" stroke="#000000" stroke-width="5" stroke-linecap="round"/><path d="M301.24161,185.17753l16.07204,1.03516" fill="#ffffff" stroke="#000000" stroke-width="5" stroke-linecap="round"/><path d="M342.76104,187.24784l-11.65222,-0.80512" fill="#ffffff" stroke="#000000" stroke-width="5" stroke-linecap="round"/><path d="M319.05481,197.5994l12.7237,0.23003" fill="#ffffff" stroke="#000000" stroke-width="5" stroke-linecap="round"/></g></g></svg>