<svg version="1.1" xmlns="http://www.w3.org/2000/svg" xmlns:xlink="http://www.w3.org/1999/xlink" width="54.446" height="63.68191" viewBox="0,0,54.446,63.68191"><g transform="translate(-290.60856,-149.55804)"><g data-paper-data="{&quot;isPaintingLayer&quot;:true}" fill-rule="nonzero" stroke-linejoin="miter" stroke-miterlimit="10" stroke-dasharray="" stroke-dashoffset="0" style="mix-blend-mode: normal"><path d="M290.60856,213.23995v-63.68191h54.446v63.68191z" fill="none" stroke="none" stroke-width="0" stroke-linecap="butt"/><path d="M299.05416,202.97996l14.80979,-18.61413l1.49456,-20.92391c0,0 7.41039,-2.27319 10.86182,-2.45604c3.38608,-0.17939 9.65449,1.36909 9.65449,1.36909c0,0 1.46213,7.35497 2.20279,11.08072c0.75368,3.79122 2.2809,11.47362 2.2809,11.47362l-8.83152,24.72826z" fill="#ff5252" stroke="#ffffff" stroke-width="3" stroke-linecap="round"/><path d="M297.42372,202.57235l33.0163,6.38587l-2.58152,-12.63587l-30.70652,-2.58152z" fill="#b52a2a" stroke="#ffffff" stroke-width="3" stroke-linecap="round"/><path d="M334.24438,184.77344l-13.72282,0.81522l8.28804,3.39674" fill="none" stroke="#ffffff" stroke-width="3" stroke-linecap="round"/><path d="M332.25699,160.87222l0.75529,-5.17911l-13.16357,1.61847l0.43159,4.20803z" fill="#888888" stroke="#ffffff" stroke-width="3" stroke-linecap="round"/></g></g></svg>