<svg version="1.1" xmlns="http://www.w3.org/2000/svg" xmlns:xlink="http://www.w3.org/1999/xlink" width="149.69955" height="256.14922" viewBox="0,0,149.69955,256.14922"><g transform="translate(-245.29547,-107.41784)"><g data-paper-data="{&quot;isPaintingLayer&quot;:true}" fill-rule="nonzero" stroke-linejoin="miter" stroke-miterlimit="10" stroke-dasharray="" stroke-dashoffset="0" style="mix-blend-mode: normal"><path d="M249.0316,363.56706v-256.14922h141.65895v256.14922z" fill="none" stroke="none" stroke-width="0" stroke-linecap="butt"/><path d="M310.72341,295.47403l-4.59797,60.65862l-36.78375,1.19944l7.19682,-7.18603l8.99603,-57.69965z" fill="#000000" stroke="#000000" stroke-width="5" stroke-linecap="round"/><path d="M357.00896,292.34707l8.99603,57.69965l7.19683,7.18603l-36.78376,-1.19944l-4.59797,-60.65862z" data-paper-data="{&quot;index&quot;:null}" fill="#000000" stroke="#000000" stroke-width="5" stroke-linecap="round"/><path d="M342.25694,215.57034c0,0 9.39099,14.90188 14.74261,23.36045c6.25859,9.89211 20.51569,32.36764 20.51569,32.36764l14.15801,9.02312c0,0 -6.20761,11.26207 -10.14692,13.79432c-3.93105,2.52693 -13.46426,1.38317 -13.46426,1.38317l-0.88451,-17.82208c0,0 -13.7975,-22.4362 -19.82072,-32.23057c-5.04532,-8.20423 -13.9073,-22.61476 -13.9073,-22.61476z" data-paper-data="{&quot;index&quot;:null}" fill="#000000" stroke="#000000" stroke-width="5" stroke-linecap="round"/><path d="M293.51569,219.98977c0,0 -5.58755,16.00655 -8.76866,25.11945c-3.79768,10.87914 -12.49712,35.80027 -12.49712,35.80027l3.002,17.38528c0,0 -9.05752,3.75391 -13.73775,2.17022c-4.07904,-1.38027 -12.78877,-11.14626 -12.78877,-11.14626l11.96836,-12.08229c0,0 9.14306,-25.06896 13.15107,-36.09861c3.42718,-9.43125 11.97816,-25.7926 11.97816,-25.7926z" fill="#000000" stroke="#000000" stroke-width="5" stroke-linecap="round"/><path d="M349.10646,264.97038l13.594,29.16687l-33.98499,6.76332l-7.79656,-18.17645l4.39807,-0.21134l-7.39674,-0.42272l-3.59841,19.02186l-34.98455,-4.43845l4.99779,-30.43499z" fill="#000000" stroke="#000000" stroke-width="5" stroke-linecap="round"/><g fill="#000000" stroke="#000000" stroke-width="5" stroke-linecap="round"><path d="M332.96675,198.77057l31.66684,32.83872l-21.84484,10.68398l-8.28715,-27.62028c0,0 2.14218,14.21495 4.49551,22.04181c2.54343,8.45911 10.23903,26.96362 10.23903,26.96362c0,0 -21.13228,8.51595 -32.20157,9.03067c-11.03238,0.513 -34.1038,-5.94754 -34.1038,-5.94754l6.59984,-51.27721l-3.51853,27.1186l-21.1052,-9.68052l26.77253,-33.82732z"/><path d="M326.23281,199.48757l-10.29819,12.60673l-17.61533,-12.3202z"/></g><path d="M339.69535,148.38933c0,0 3.20574,22.15315 3.31597,25.61287c0.11024,3.45973 9.19641,6.09272 5.31635,18.04989c-8.48538,16.44738 -44.26795,8.72399 -51.54421,6.57412c-8.32384,-2.4594 -15.28989,-7.60458 -17.37706,-11.13429c-3.51509,-5.94455 -2.14012,-16.08074 -2.3153,-18.9695c-0.3041,-5.01448 19.4446,-20.61991 19.4446,-20.61991z" fill="#000000" stroke="#000000" stroke-width="5" stroke-linecap="round"/><path d="M275.6197,165.38996c0,0 -4.8009,-0.62097 -6.3248,-2.37639c-1.84291,-2.12289 -3.95866,-9.4693 -3.95866,-9.4693c0,0 0.82252,-6.94072 3.29404,-9.35703c2.26921,-2.21851 10.98003,-4.59815 10.98003,-4.59815c0,0 -3.4031,-5.13549 -3.83432,-7.8424c-0.38119,-2.39279 1.37857,-7.57323 1.37857,-7.57323c0,0 7.41631,-0.37935 10.20418,0.56708c2.78873,0.94673 6.52565,5.11236 6.52565,5.11236c0,0 3.19521,-8.03606 6.77906,-9.82072c3.47297,-1.72944 14.40182,-0.72681 14.40182,-0.72681c0,0 6.56816,-5.19883 10.34992,-5.95905c3.45331,-0.6942 11.4449,1.57776 11.4449,1.57776l-6.13938,8.11348c0,0 13.9422,0.07165 18.9091,1.1397c3.7289,0.80183 8.25768,4.70202 8.25768,4.70202c0,0 5.93479,7.51878 6.83598,12.28257c1.02658,5.42668 -1.00355,18.54867 -1.00355,18.54867l-6.29287,-7.13986c0,0 1.98741,8.90173 1.75562,12.98584c-0.22862,4.02861 -3.13698,11.35461 -3.13698,11.35461c0,0 -3.90029,-1.83842 -5.55915,-3.24144c-1.34414,-1.13687 -6.73245,-6.73583 -7.58316,-8.46718c-1.1205,-2.2804 -2.20617,-8.5751 -2.20617,-8.5751c0,0 -4.70247,6.64009 -8.56768,8.65454c-3.31486,1.72761 -13.22714,2.70433 -13.22714,2.70433c0,0 -5.54452,-2.34231 -7.23227,-4.76791c-1.57939,-2.26987 -2.59074,-9.34955 -2.59074,-9.34955c0,0 -11.14803,10.54596 -15.18412,12.93315c-2.43113,1.43791 -6.76419,0.04841 -6.76419,0.04841c0,0 0.55354,7.10167 -1.17671,10.47515c-2.1268,4.14662 -10.64161,12.56713 -10.64161,12.56713c0,0 -1.40591,-9.88256 -1.35073,-14.11254c0.04507,-3.45528 1.6577,-9.41657 1.6577,-9.41657" fill="#000000" stroke="#000000" stroke-width="5" stroke-linecap="round"/><path d="M316.8808,170.88409l-14.18319,-1.12462" fill="#ffffff" stroke="#000000" stroke-width="5" stroke-linecap="round"/><path d="M329.05469,171.134l10.2828,0.8747" fill="#ffffff" stroke="#000000" stroke-width="5" stroke-linecap="round"/><path d="M318.41733,183.25495l11.22834,0.24991" fill="#ffffff" stroke="#000000" stroke-width="5" stroke-linecap="round"/></g></g></svg>