<svg version="1.1" xmlns="http://www.w3.org/2000/svg" xmlns:xlink="http://www.w3.org/1999/xlink" width="163.66096" height="232.17799" viewBox="0,0,163.66096,232.17799"><g transform="translate(-235.55905,-130.70924)"><g data-paper-data="{&quot;isPaintingLayer&quot;:true}" fill-rule="nonzero" stroke-linejoin="miter" stroke-miterlimit="10" stroke-dasharray="" stroke-dashoffset="0" style="mix-blend-mode: normal"><path d="M235.55905,362.88723v-232.17799h163.66096v232.17799z" fill="none" stroke="none" stroke-width="0" stroke-linecap="butt"/><path d="M306.83263,301.16656l-5.31212,54.982l-42.49689,1.08719l8.31461,-6.51355l10.39326,-52.29994z" fill="#ffea00" stroke="#000000" stroke-width="5" stroke-linecap="round"/><path d="M360.30711,298.33224l10.39326,52.29994l8.31462,6.51355l-42.4969,-1.08719l-5.31212,-54.982z" data-paper-data="{&quot;index&quot;:null}" fill="#ffea00" stroke="#000000" stroke-width="5" stroke-linecap="round"/><path d="M344.05331,228.49013c0,0 8.52684,14.25431 13.39106,22.34719c5.6886,9.46444 18.65614,30.97155 18.65614,30.97155l14.88762,9.38324c0,0 -8.82832,9.59131 -13.73305,11.52203c-4.89444,1.92667 -15.66458,0.05015 -15.66458,0.05015l1.67915,-16.1289c0,0 -12.44592,-21.4309 -17.87911,-30.78641c-4.55108,-7.83663 -12.54495,-21.60145 -12.54495,-21.60145z" data-paper-data="{&quot;index&quot;:null}" fill="#ffea00" stroke="#000000" stroke-width="5" stroke-linecap="round"/><path d="M284.57412,231.43567c0,0 -4.05408,14.90396 -6.36216,23.38912c-2.75543,10.12974 -9.06736,33.33421 -9.06736,33.33421l6.01223,15.40168c0,0 -9.84634,4.16666 -15.45404,3.14555c-4.88739,-0.88997 -16.32925,-8.93306 -16.32925,-8.93306l11.95981,-11.92167c0,0 6.7995,-23.3761 9.77424,-33.65965c2.54364,-8.79329 9.94811,-24.27367 9.94811,-24.27367z" fill="#ffea00" stroke="#000000" stroke-width="5" stroke-linecap="round"/><path d="M351.17721,273.51754l15.70538,26.43734l-39.26343,6.13039l-9.00749,-16.47544l5.08116,-0.19157l-8.54558,-0.38316l-4.1573,17.24175l-40.41825,-4.02308l5.77403,-27.58678z" fill="#65ff71" stroke="#000000" stroke-width="5" stroke-linecap="round"/><g stroke="#000000" stroke-width="5" stroke-linecap="round"><path d="M332.53073,213.51291l36.58524,29.76557l-25.23771,9.68414l-9.57429,-25.03549c0,0 2.4749,12.88467 5.19373,19.97907c2.93846,7.66749 11.82932,24.44028 11.82932,24.44028c0,0 -24.41448,7.71901 -37.20302,8.18555c-12.7459,0.46499 -39.4007,-5.39095 -39.4007,-5.39095l7.6249,-46.47853l-4.06502,24.58077l-24.3832,-8.77459l30.93075,-30.66165z" fill="#98c8ff"/><path d="M324.75089,214.16281l-11.89767,11.42695l-20.35129,-11.16725z" fill="#ffea00"/></g><path d="M340.3044,167.84649c0,0 3.70364,20.07998 3.831,23.21594c0.12736,3.13596 10.62477,5.52254 6.14207,16.36073c-9.8033,14.90817 -51.14352,7.90758 -59.5499,5.95889c-9.61667,-2.22924 -17.66467,-6.89292 -20.076,-10.09231c-4.06104,-5.38824 -2.47252,-14.57585 -2.67491,-17.19427c-0.35133,-4.5452 22.46467,-18.69024 22.46467,-18.69024z" fill="#ffea00" stroke="#000000" stroke-width="5" stroke-linecap="round"/><path d="M266.27673,183.25616c0,0 -5.54656,-0.56286 -7.30716,-2.154c-2.12915,-1.92423 -4.57351,-8.58314 -4.57351,-8.58314c0,0 0.95027,-6.29119 3.80566,-8.48137c2.62166,-2.0109 12.68541,-4.16785 12.68541,-4.16785c0,0 -3.93165,-4.6549 -4.42985,-7.10848c-0.44039,-2.16886 1.59268,-6.8645 1.59268,-6.8645c0,0 8.56818,-0.34385 11.78907,0.51401c3.22187,0.85813 7.53919,4.63393 7.53919,4.63393c0,0 3.69148,-7.28401 7.83195,-8.90166c4.01237,-1.56759 16.63867,-0.65879 16.63867,-0.65879c0,0 7.58831,-4.71231 11.95743,-5.40138c3.98967,-0.62923 13.22249,1.43012 13.22249,1.43012l-7.09294,7.3542c0,0 16.10766,0.06494 21.846,1.03304c4.30806,0.72679 9.54024,4.26198 9.54024,4.26198c0,0 6.85657,6.81515 7.89772,11.13312c1.18602,4.91884 -1.15942,16.81283 -1.15942,16.81283l-7.27025,-6.4717c0,0 2.29608,8.06868 2.0283,11.77059c-0.26414,3.6516 -3.62421,10.29201 -3.62421,10.29201c0,0 -4.50606,-1.66636 -6.42257,-2.9381c-1.55291,-1.03048 -7.77811,-6.10547 -8.76094,-7.67479c-1.29453,-2.067 -2.54883,-7.77261 -2.54883,-7.77261c0,0 -5.43285,6.01869 -9.89839,7.84462c-3.82971,1.56593 -15.28154,2.45125 -15.28154,2.45125c0,0 -6.40568,-2.1231 -8.35557,-4.32171c-1.82469,-2.05744 -2.99312,-8.4746 -2.99312,-8.4746c0,0 -12.8795,9.55904 -17.54247,11.72283c-2.80873,1.30335 -7.81479,0.04388 -7.81479,0.04388c0,0 0.63952,6.43708 -1.35947,9.49486c-2.45712,3.75856 -12.29444,11.39106 -12.29444,11.39106c0,0 -1.62427,-8.95773 -1.56052,-12.79185c0.05208,-3.13192 1.91517,-8.53533 1.91517,-8.53533" fill="#483100" stroke="#000000" stroke-width="5" stroke-linecap="round"/><path d="M313.94636,188.23613l-16.38607,-1.01938" fill="#ffffff" stroke="#000000" stroke-width="5" stroke-linecap="round"/><path d="M328.01107,188.46266l11.87989,0.79284" fill="#ffffff" stroke="#000000" stroke-width="5" stroke-linecap="round"/><path d="M315.72154,199.44929l12.9723,0.22653" fill="#ffffff" stroke="#000000" stroke-width="5" stroke-linecap="round"/></g></g></svg>