<svg version="1.1" xmlns="http://www.w3.org/2000/svg" xmlns:xlink="http://www.w3.org/1999/xlink" width="155.27051" height="253.20666" viewBox="0,0,155.27051,253.20666"><g transform="translate(-246.83201,-110.38756)"><g data-paper-data="{&quot;isPaintingLayer&quot;:true}" fill-rule="nonzero" stroke-linejoin="miter" stroke-miterlimit="10" stroke-dasharray="" stroke-dashoffset="0" style="mix-blend-mode: normal"><path d="M246.83201,357.17654l10.97626,-246.78898l144.29425,6.41768l-10.97626,246.78898z" fill="none" stroke="none" stroke-width="0" stroke-linecap="butt"/><path d="M312.58934,294.36666l-7.2828,58.23372l-37.51945,-0.51083l7.63863,-6.5974l11.63587,-55.18363z" fill="#000000" stroke="#000000" stroke-width="5" stroke-linecap="round"/><path d="M359.86995,293.45087l6.69089,55.99874l7.02278,7.24949l-37.41666,-2.82205l-2.08422,-58.65033z" data-paper-data="{&quot;index&quot;:null}" fill="#000000" stroke="#000000" stroke-width="5" stroke-linecap="round"/><path d="M348.84133,218.57622c0,0 6.84394,15.4857 10.74997,24.2786c4.56801,10.2831 14.98429,33.65216 14.98429,33.65216l12.68231,10.55752c0,0 -8.23706,9.8487 -12.65267,11.7086c-4.40635,1.85599 -13.8133,-0.56095 -13.8133,-0.56095l2.24294,-17.07805c0,0 -9.95999,-23.2676 -14.30796,-33.4249c-3.64206,-8.50825 -10.03924,-23.45276 -10.03924,-23.45276z" data-paper-data="{&quot;index&quot;:null}" fill="#000000" stroke="#000000" stroke-width="5" stroke-linecap="round"/><path d="M296.26132,219.37475c0,0 -4.27893,15.6829 -6.71502,24.61152c-2.90825,10.65916 -9.57026,35.07637 -9.57026,35.07637l4.57266,16.60667c0,0 -8.87816,4.04276 -13.77401,2.73749c-4.26697,-1.13763 -13.97462,-10.13555 -13.97462,-10.13555l11.10816,-12.20292c0,0 7.09999,-24.58053 10.20888,-35.39457c2.65835,-9.24691 9.91845,-25.41112 9.91845,-25.41112z" fill="#000000" stroke="#000000" stroke-width="5" stroke-linecap="round"/><path d="M352.99355,266.71657l12.59706,28.7169l-34.90703,4.97653l-7.16272,-17.86545l4.48894,-0.00438l-7.51623,-0.74237l-4.48045,18.16375l-35.44519,-5.86118l6.39494,-29.0964z" fill="#000000" stroke="#000000" stroke-width="5" stroke-linecap="round"/><g fill="#000000" stroke="#000000" stroke-width="5" stroke-linecap="round"><path d="M339.39032,202.20465l30.84878,33.07335l-22.70904,9.30391l-7.25777,-26.98641c0,0 1.57291,13.79255 3.63462,21.44002c2.22826,8.26523 9.27409,26.44217 9.27409,26.44217c0,0 -21.89033,7.2474 -33.1876,7.24182c-11.2596,-0.00556 -34.48339,-7.27523 -34.48339,-7.27523l8.9199,-49.10443l-4.74605,25.96824l-21.08301,-10.28292l28.72012,-31.3783z"/><path d="M332.50038,202.59038l-11.02998,11.67951l-17.4151,-12.66805z"/></g><path d="M348.40298,153.96927c0,0 2.31609,21.48885 2.28012,24.82715c-0.03596,3.3383 9.10642,6.28671 4.6418,17.63116c-9.34802,15.46193 -45.46532,6.3997 -52.78481,3.99874c-8.3733,-2.74663 -15.24847,-8.01939 -17.22321,-11.51466c-3.32575,-5.88656 -1.49086,-15.59007 -1.54552,-18.3812c-0.09488,-4.84501 20.68991,-18.98551 20.68991,-18.98551z" fill="#000000" stroke="#000000" stroke-width="5" stroke-linecap="round"/><path d="M282.40683,167.4458c0,0 -4.86361,-0.81578 -6.34064,-2.57608c-1.78623,-2.12881 -3.62653,-9.30262 -3.62653,-9.30262c0,0 1.13524,-6.64984 3.75628,-8.86588c2.40649,-2.03464 11.38133,-3.93269 11.38133,-3.93269c0,0 -3.24634,-5.102 -3.56959,-7.72953c-0.28574,-2.32262 1.72873,-7.23403 1.72873,-7.23403c0,0 7.57053,-0.0295 10.36971,1.00865c2.80004,1.03847 6.42798,5.22118 6.42798,5.22118c0,0 3.59901,-7.59764 7.32599,-9.15473c3.61168,-1.5089 14.70089,-0.04779 14.70089,-0.04779c0,0 6.91313,-4.7113 10.79781,-5.2724c3.5473,-0.51238 11.59021,2.03861 11.59021,2.03861l-6.60127,7.53887c0,0 14.1985,0.70067 19.21203,1.9547c3.76391,0.94146 8.20982,4.9043 8.20982,4.9043c0,0 5.72302,7.5129 6.43683,12.14343c0.81314,5.27489 -1.81705,17.8254 -1.81705,17.8254l-6.10398,-7.16405c0,0 1.64293,8.66648 1.23183,12.59085c-0.40551,3.87104 -3.6819,10.79757 -3.6819,10.79757c0,0 -3.89406,-1.94793 -5.52366,-3.37484c-1.32043,-1.15622 -6.56905,-6.79469 -7.3614,-8.50131c-1.04362,-2.24784 -1.87977,-8.36169 -1.87977,-8.36169c0,0 -5.07449,6.18441 -9.09793,7.95014c-3.45055,1.5143 -13.58909,2.00627 -13.58909,2.00627c0,0 -5.5473,-2.5079 -7.16251,-4.92133c-1.5115,-2.25847 -2.23829,-9.12527 -2.23829,-9.12527c0,0 -11.80732,9.65555 -16.02079,11.77265c-2.53798,1.27523 -6.8921,-0.2598 -6.8921,-0.2598c0,0 0.25953,6.86724 -1.64747,10.03906c-2.34405,3.89874 -11.3781,11.6258 -11.3781,11.6258c0,0 -1.00859,-9.58513 -0.77112,-13.65803c0.19398,-3.32697 2.09205,-8.99736 2.09205,-8.99736" fill="#000000" stroke="#000000" stroke-width="5" stroke-linecap="round"/><path d="M324.20009,174.60845l-14.39885,-1.72608" fill="#ffffff" stroke="#000000" stroke-width="5" stroke-linecap="round"/><path d="M347.02636,176.70934l-10.43661,-1.30859" fill="#ffffff" stroke="#000000" stroke-width="5" stroke-linecap="round"/><path d="M325.23509,186.59686l11.42652,0.74947" fill="#ffffff" stroke="#000000" stroke-width="5" stroke-linecap="round"/></g></g></svg>