<svg version="1.1" xmlns="http://www.w3.org/2000/svg" xmlns:xlink="http://www.w3.org/1999/xlink" width="53.30304" height="50.14023" viewBox="0,0,53.30304,50.14023"><g transform="translate(-293.34848,-149.09454)"><g data-paper-data="{&quot;isPaintingLayer&quot;:true}" fill-rule="nonzero" stroke-linejoin="miter" stroke-miterlimit="10" stroke-dasharray="" stroke-dashoffset="0" style="mix-blend-mode: normal"><path d="M315.04328,174.65348l11.54317,11.57129c0,0 -11.17515,0.39458 -15.15324,0.33378c-2.58411,-0.03949 -6.39406,-0.66307 -6.39406,-0.66307" fill="none" stroke="#000000" stroke-width="3" stroke-linecap="round"/><path d="M293.34848,199.23477v-50.14023h53.30304v50.14023z" fill="none" stroke="none" stroke-width="2" stroke-linecap="butt"/><path d="M329.23415,188.56451v4.69114h-19.77886v-4.69114z" fill="#b59400" stroke="#000000" stroke-width="2" stroke-linecap="butt"/><path d="M315.88489,188.5745v-13.69815h6.69017v13.69815z" fill="#b59400" stroke="#000000" stroke-width="2" stroke-linecap="butt"/><path d="M308.41895,193.05157l-4.0483,-1.57683v-4.22855c0,0 -0.3515,-1.16354 -0.0476,-1.10275c0.63405,0.12681 3.65734,1.8247 3.65734,1.8247z" fill="#b59400" stroke="#000000" stroke-width="2" stroke-linecap="round"/><path d="M301.63474,159.38396l15.01531,1.87787l11.85932,-6.11903c0,0 3.68922,3.2718 4.93177,5.08579c1.21902,1.77964 2.45433,5.69707 2.45433,5.69707c0,0 -3.51035,3.23035 -5.28856,4.86673c-1.80945,1.66513 -5.47608,5.03929 -5.47608,5.03929l-16.35582,3.39429z" fill="#b59400" stroke="#000000" stroke-width="2" stroke-linecap="round"/><path d="M306.02266,155.2905l8.76903,17.53253l-6.00774,5.58755l-7.46788,-20.04717z" fill="#b59400" stroke="#000000" stroke-width="2" stroke-linecap="round"/><path d="M319.0916,170.90934l-0.90045,-5.62655l4.98827,7.18316" fill="#b59400" stroke="#000000" stroke-width="2" stroke-linecap="round"/><path d="M331.1837,157.1792l2.14253,-1.62826l5.23928,6.61335l-3.06308,1.3053z" fill="#b59400" stroke="#000000" stroke-width="2" stroke-linecap="round"/></g></g></svg>