<svg version="1.1" xmlns="http://www.w3.org/2000/svg" xmlns:xlink="http://www.w3.org/1999/xlink" width="753.08332" height="474.51653" viewBox="0,0,753.08332,474.51653"><g transform="translate(40.65949,-142.47677)"><g data-paper-data="{&quot;isPaintingLayer&quot;:true}" fill-rule="nonzero" stroke="#000000" stroke-width="7" stroke-linecap="round" stroke-linejoin="miter" stroke-miterlimit="10" stroke-dasharray="" stroke-dashoffset="0" style="mix-blend-mode: normal"><path d="M85.76543,392.08699l-33.34791,130.27438c0,0 -1.88149,5.77717 20.35178,10.92889c19.47127,4.51173 22.60355,-2.97117 22.60355,-2.97117l28.85277,-128.82099z" fill="#824b00"/><path d="M166.38537,380.70398c0,0 15.92936,8.90833 25.74535,10.7216c10.1222,1.86984 34.09745,0.33297 34.09745,0.33297c0,0 -27.05688,-27.66522 -36.11614,-42.58848c-8.89914,-14.6595 -17.76761,-46.1739 -17.76761,-46.1739l70.52834,20.32282c0,0 -36.76631,-50.89048 -48.73537,-79.47123c-12.08533,-28.85841 -23.43116,-92.85429 -23.43116,-92.85429c0,0 -33.42314,44.26844 -56.93202,63.18221c-26.19789,21.07718 -93.06364,57.4949 -93.06364,57.4949l70.8956,13.18676c0,0 -27.67756,25.57996 -45.86988,36.19443c-21.18158,12.35859 -73.62136,33.52383 -73.62136,33.52383c0,0 46.71346,7.92979 65.74423,10.19625c13.76376,1.63919 37.84924,2.14116 37.84924,2.14116l-46.08359,19.84868c0,0 59.05397,23.02338 87.69737,27.62324c27.13606,4.35779 79.88558,-0.71104 79.88558,-0.71104z" fill="#005f0c"/><path d="M585.99891,472.29004l33.34791,130.27438c0,0 1.88149,5.77717 -20.35178,10.92889c-19.47128,4.51174 -22.60355,-2.97117 -22.60355,-2.97117l-28.85277,-128.82099z" data-paper-data="{&quot;index&quot;:null}" fill="#824b00"/><path d="M505.37898,460.90702c0,0 -15.92935,8.90832 -25.74535,10.7216c-10.1222,1.86984 -34.09746,0.33297 -34.09746,0.33297c0,0 27.05689,-27.66523 36.11614,-42.58848c8.89914,-14.6595 17.76761,-46.1739 17.76761,-46.1739l-70.52834,20.32282c0,0 36.76632,-50.89049 48.73537,-79.47124c12.08533,-28.85841 23.43117,-92.85429 23.43117,-92.85429c0,0 33.42314,44.26844 56.93202,63.18221c26.19789,21.07718 93.06364,57.49491 93.06364,57.49491l-70.8956,13.18676c0,0 27.67756,25.57996 45.86988,36.19443c21.18158,12.35858 73.62136,33.52383 73.62136,33.52383c0,0 -46.71347,7.92979 -65.74424,10.19624c-13.76376,1.63919 -37.84924,2.14117 -37.84924,2.14117l46.0836,19.84869c0,0 -59.05397,23.02338 -87.69737,27.62324c-27.13606,4.35779 -79.88558,-0.71104 -79.88558,-0.71104z" data-paper-data="{&quot;index&quot;:null}" fill="#005f0c"/></g></g></svg>