<svg version="1.1" xmlns="http://www.w3.org/2000/svg" xmlns:xlink="http://www.w3.org/1999/xlink" width="64.50163" height="81.10972" viewBox="0,0,64.50163,81.10972"><g transform="translate(-291.54966,-141.42503)"><g data-paper-data="{&quot;isPaintingLayer&quot;:true}" fill-rule="nonzero" stroke-linejoin="miter" stroke-miterlimit="10" stroke-dasharray="" stroke-dashoffset="0" style="mix-blend-mode: normal"><path d="M307.80696,216.63766l-15.03771,-57.79376l47.02474,-12.23565l15.03771,57.79376z" fill="#1a1a1a" stroke="#000000" stroke-width="2" stroke-linecap="butt"/><path d="M308.2655,215.99194l-10.23207,-39.66245l48.73418,-2.21519l7.91139,29.74684z" fill="#787878" stroke="#000000" stroke-width="2" stroke-linecap="butt"/><path d="M348.35455,153.76013l-4.06873,5.66819l-19.3679,-11.0209l4.06873,-5.66818z" fill-opacity="0.43529" fill="#f4ff00" stroke="#000000" stroke-width="2" stroke-linecap="butt"/><path d="M325.26938,189.25045c0,0 -7.64474,-3.05551 -9.5347,-4.94044c-1.05202,-1.04922 -4.52005,-0.33247 -4.52005,-0.33247c0,0 8.94202,-2.86832 12.76372,-4.15527c3.48737,-1.17436 9.25543,-3.25963 9.25543,-3.25963c0,0 8.01387,3.23504 10.21124,2.87172c1.37956,-0.2281 3.84351,2.40119 3.84351,2.40119c0,0 -10.85183,3.01135 -14.87498,4.36613c-3.03327,1.02145 -7.14417,3.04877 -7.14417,3.04877z" fill="#9c4a3e" stroke="#000000" stroke-width="2" stroke-linecap="butt"/><path d="M327.11953,173.45206l-1.80548,9.35865l1.17194,0.39589c0,0 -1.5248,1.45995 -2.166,1.38375c-0.64254,-0.07636 -1.92789,-0.1048 -1.92789,-0.1048l1.22961,-1.90854l1.96784,-9.48267z" data-paper-data="{&quot;index&quot;:null}" fill="#b7b7b7" stroke="#000000" stroke-width="2" stroke-linecap="round"/><path d="M330.9692,170.18731l0.96164,1.92853l2.99263,6.03925c0,0 -2.74223,1.81131 -4.20324,2.2328c-1.46591,0.4229 -4.57759,0.30041 -4.57759,0.30041c0,0 0.23511,-2.62224 0.21541,-3.77814c-0.01822,-1.0695 -0.32953,-2.91823 -0.32953,-2.91823l-0.4607,-2.03033z" fill="#5d5d5d" stroke="#000000" stroke-width="2" stroke-linecap="round"/><path d="M327.82782,163.3467c1.50015,-0.04431 3.31074,2.11997 3.47949,2.75228c0.09721,0.36427 0.69796,1.55498 0.48634,2.4432c-0.12565,0.5274 -0.82084,1.4686 -1.80486,2.13796c-0.86017,0.58512 -5.20868,3.11089 -6.99964,1.45363c-1.00334,-1.30539 0.07294,-2.02968 -0.05648,-2.46157c-0.12942,-0.43188 -1.50056,-2.81612 0.09956,-4.50743c1.60011,-1.6913 3.29544,-1.77377 4.7956,-1.81808z" data-paper-data="{&quot;index&quot;:null}" fill="#b7b7b7" stroke="#000000" stroke-width="2" stroke-linecap="round"/><path d="M327.30178,182.0021l-2.25756,-2.00155l2.09785,3.53562l-5.38108,1.9774l0.16753,-1.04687c0,0 -0.40867,-6.70442 -0.4334,-8.28185c-0.00916,-0.58431 0.65154,-0.9304 0.65154,-0.9304c0,0 0.53425,-0.11853 0.7898,0.09978c1.00519,0.8587 6.75537,5.92268 6.75537,5.92268z" data-paper-data="{&quot;index&quot;:null}" fill="#b7b7b7" stroke="#000000" stroke-width="2" stroke-linecap="round"/><path d="M334.70103,180.40831l-4.53926,2.47233l-5.43718,2.96139l-2.79962,-4.22389l1.31746,0.34973l5.556,-2.0793l4.2612,-2.07827c0,0 1.2783,0.14495 1.47259,0.55628c0.27445,0.58102 0.16879,2.04173 0.16879,2.04173z" data-paper-data="{&quot;index&quot;:null}" fill="#b7b7b7" stroke="#000000" stroke-width="2" stroke-linecap="round"/><path d="M322.86797,168.85571c-0.13227,-0.3928 0.07892,-0.81845 0.47172,-0.95072c0.3928,-0.13227 0.81845,0.07892 0.95072,0.47172c0.13227,0.3928 -0.07892,0.81845 -0.47172,0.95072c-0.3928,0.13227 -0.81845,-0.07892 -0.95072,-0.47172z" fill="#000000" stroke="none" stroke-width="0.5" stroke-linecap="butt"/><path d="M324.70301,168.43542c-0.13227,-0.3928 0.07892,-0.81845 0.47172,-0.95072c0.3928,-0.13227 0.81845,0.07892 0.95072,0.47172c0.13227,0.3928 -0.07892,0.81845 -0.47172,0.95072c-0.3928,0.13227 -0.81845,-0.07892 -0.95072,-0.47172z" fill="#000000" stroke="none" stroke-width="0.5" stroke-linecap="butt"/><path d="M331.43043,170.16124l6.1372,8.72734l1.8976,1.16853c0,0 -0.92357,1.53049 -1.43481,1.83759c-0.58659,0.35235 -1.88984,0.15948 -1.88984,0.15948l-0.02717,-2.32603l-5.59682,-8.72585z" data-paper-data="{&quot;index&quot;:null}" fill="#b7b7b7" stroke="#000000" stroke-width="2" stroke-linecap="round"/><g stroke="#000000" stroke-width="2.5" stroke-linecap="round"><path d="M324.35811,202.04284l0.53143,5.20804l2.16571,3.92922l-18.46765,4.24318l1.47495,-13.27416z" fill="#98c8ff"/><path d="M322.02651,202.27766l-3.5657,4.12871l-6.09922,-4.03487z" fill="#ffea00"/></g><path d="M326.68786,185.54297c0,0 1.10997,7.25516 1.14814,8.38822c0.03817,1.13306 3.18422,1.99537 1.84076,5.91134c-2.93802,5.38651 -15.32757,2.85711 -17.84694,2.15303c-2.88209,-0.80545 -5.29405,-2.4905 -6.01672,-3.64648c-1.21708,-1.94684 -0.74101,-5.26644 -0.80166,-6.21251c-0.10529,-1.64224 6.7326,-6.75302 6.7326,-6.75302z" fill="#ffea00" stroke="#000000" stroke-width="2.5" stroke-linecap="round"/><path d="M304.50197,191.11068c0,0 -1.66229,-0.20337 -2.18993,-0.77827c-0.6381,-0.69525 -1.37067,-3.1012 -1.37067,-3.1012c0,0 0.28479,-2.27309 1.14055,-3.06443c0.7857,-0.72656 3.80178,-1.5059 3.80178,-1.5059c0,0 -1.17831,-1.68187 -1.32761,-2.56839c-0.13198,-0.78364 0.47732,-2.48023 0.47732,-2.48023c0,0 2.56786,-0.12424 3.53315,0.18572c0.96559,0.31005 2.25948,1.6743 2.25948,1.6743c0,0 1.10633,-2.63181 2.34721,-3.21629c1.2025,-0.56639 4.98656,-0.23803 4.98656,-0.23803c0,0 2.2742,-1.70262 3.58361,-1.95159c1.19569,-0.22735 3.96274,0.51672 3.96274,0.51672l-2.12573,2.65717c0,0 4.82742,0.02347 6.54718,0.37325c1.29111,0.2626 2.85918,1.53991 2.85918,1.53991c0,0 2.0549,2.4624 2.36692,4.02254c0.35545,1.77724 -0.34747,6.07469 -0.34747,6.07469l-2.17887,-2.33831c0,0 0.68813,2.91532 0.60788,4.25286c-0.07916,1.31937 -1.08617,3.71863 -1.08617,3.71863c0,0 -1.35045,-0.60208 -1.92483,-1.06157c-0.4654,-0.37233 -2.33108,-2.20598 -2.62563,-2.773c-0.38797,-0.74683 -0.76388,-2.80834 -0.76388,-2.80834c0,0 -1.62821,2.17463 -2.96652,2.83436c-1.14775,0.56579 -4.57983,0.88567 -4.57983,0.88567c0,0 -1.91976,-0.7671 -2.50414,-1.56149c-0.54686,-0.74338 -0.89703,-3.06198 -0.89703,-3.06198c0,0 -3.85995,3.45381 -5.25743,4.23561c-0.84177,0.47092 -2.34207,0.01586 -2.34207,0.01586c0,0 0.19166,2.3258 -0.40743,3.43062c-0.73639,1.35802 -3.68461,4.11574 -3.68461,4.11574c0,0 -0.48679,-3.23654 -0.46768,-4.62186c0.01561,-1.1316 0.57397,-3.08393 0.57397,-3.08393" fill="#483100" stroke="#000000" stroke-width="2.5" stroke-linecap="round"/><path d="M313.87757,192.5417l4.91086,0.36831" fill="#ffffff" stroke="#000000" stroke-width="2.5" stroke-linecap="round"/><path d="M323.00358,192.99186l3.56037,0.28646" fill="#ffffff" stroke="#000000" stroke-width="2.5" stroke-linecap="round"/><path d="M319.32044,196.96147l3.88776,0.08185" fill="#ffffff" stroke="#000000" stroke-width="2.5" stroke-linecap="round"/><path d="M316.81283,215.78877l-0.89291,5.60102l-15.56895,-2.48197l0.8929,-5.60103z" fill-opacity="0.43529" fill="#f4ff00" stroke="#000000" stroke-width="2" stroke-linecap="butt"/><path d="M337.75309,204.32824l6.51466,-0.37015l0.66627,2.66509l-7.62511,1.03642l-0.7403,-3.03524l2.96121,-1.25851l-3.62748,-5.47824l5.6263,-2.73912l4.07166,5.6263l3.25733,-5.92242l3.77554,2.73912l-2.59106,7.32899l-4.58987,0.96239l-0.88836,-1.85076z" fill="#ffea00" stroke="#000000" stroke-width="2" stroke-linecap="round"/></g></g></svg>