<svg version="1.1" xmlns="http://www.w3.org/2000/svg" xmlns:xlink="http://www.w3.org/1999/xlink" width="510.66219" height="296.34787" viewBox="0,0,510.66219,296.34787"><g transform="translate(-100.70803,-57.89951)"><g data-paper-data="{&quot;isPaintingLayer&quot;:true}" fill="none" fill-rule="nonzero" stroke="#000000" stroke-width="2" stroke-linejoin="miter" stroke-miterlimit="10" stroke-dasharray="" stroke-dashoffset="0" style="mix-blend-mode: normal"><path d="M289.18588,330.73594l-124.55853,22.39952l-59.46456,-109.18308l-3.41366,-84.60178l383.49006,-0.63911l124.17437,171.3551z" stroke-linecap="butt"/><path d="M374.81482,168.95495l-0.21868,-110.06658c0,0 1.18169,-0.17781 1.83748,0.43617c1.54904,1.45029 7.59339,7.53274 7.59339,7.53274c0,0 0.03662,101.39641 0.00654,109.60714c-0.00387,1.05542 -0.40923,0.3101 -0.40923,0.3101z" data-paper-data="{&quot;index&quot;:null}" stroke-linecap="butt"/><path d="M218.07313,88.21696c0,0 -0.15724,-0.09311 0.1107,0.22507c0.51773,0.6148 2.77634,3.2033 2.77634,3.2033l-0.54132,23.63767l12.81126,26.16384c0,0 -0.37715,31.3102 -0.43723,35.25585c-0.01264,0.83043 -0.34748,0.93992 -0.34748,0.93992l-14.19183,-17.97131l-0.18044,-71.45435z" stroke-linecap="round"/><path d="M353.92409,177.35444h-120.87441v-36.08805l120.71454,0.36088z" stroke-linecap="round"/><path d="M384.05333,176.70043v-110.31895h69.04316v110.31895z" stroke-linecap="butt"/></g></g></svg>