<svg version="1.1" xmlns="http://www.w3.org/2000/svg" xmlns:xlink="http://www.w3.org/1999/xlink" width="1286.70268" height="590.74966" viewBox="0,0,1286.70268,590.74966"><g transform="translate(302.23596,50.32554)"><g data-paper-data="{&quot;isPaintingLayer&quot;:true}" fill-rule="nonzero" stroke="#000000" stroke-width="2" stroke-linejoin="miter" stroke-miterlimit="10" stroke-dasharray="" stroke-dashoffset="0" style="mix-blend-mode: normal"><path d="M-178.58124,539.41652v-474.29063l1005.81884,-7.61853v474.29063z" fill="#377900" stroke-linecap="butt"/><path d="M719.76927,122.20207c0,0 -5.66821,-1.67211 -5.66528,-3.55382c0.01752,-11.2275 4.29351,-116.02851 4.29351,-116.02851l46.29441,-29.56024v120.87187z" fill="#421b00" stroke-linecap="butt"/><path d="M502.90195,123.68497c0,0 -1.14252,-0.62194 -1.14804,-1.90969c-0.04061,-9.46825 0.62984,-118.91054 0.62984,-118.91054l217.52326,-0.52002v120.87187z" fill="#782f00" stroke-linecap="butt"/><path d="M236.67337,31.65954l0.64456,-67.67837l563.89084,-13.28326l0.35115,21.57653l-37.86895,1.46019l-44.03264,27.54644l-217.89183,-0.57938l-48.08806,30.48948z" fill="#377900" stroke-linecap="butt"/><path d="M454.89667,152.80432c0,0 -3.12985,0.25722 -3.12789,-0.99927c0.0146,-9.35394 3.31619,-119.6231 3.31619,-119.6231l46.29441,-29.56024v120.87187z" fill="#421b00" stroke-linecap="butt"/><path d="M238.33593,153.24718l2.34192,-121.34025h214.66315v120.87187z" fill="#782f00" stroke-linecap="butt"/><path d="M-164.97576,71.06051l406.62636,-117.34242l1.08945,203.66972l-403.07585,176.97544z" fill="#885ae2" stroke-linecap="round"/><path d="M18.72718,269.47941v-17.09402l14.37452,4.2735v17.09402z" fill="#5e3f9d" stroke-linecap="butt"/><path d="M33.82819,273.70241v-17.09402l74.98058,-35.74203l-1.554,15.92852z" fill="#4b327d" stroke-linecap="butt"/><path d="M19.45368,251.55789c0,0 -0.62861,-0.38156 0.1059,-0.7261c5.66862,-2.659 75.26317,-34.62743 75.26317,-34.62743c0,0 11.14319,2.89141 13.48466,3.58752c0.91981,0.27346 0.3166,0.91528 0.3166,0.91528l-74.79581,35.12423z" fill="#885ae2" stroke-linecap="butt"/><path d="M81.10651,89.972l11.80909,126.696l-71.50286,31.46126l-4.68019,-145.34581z" fill="#1f001e" stroke-linecap="round"/><path d="M82.52697,159.27874c0,2.34287 -1.59128,4.24215 -3.55423,4.24215c-1.96295,0 -3.55423,-1.89927 -3.55423,-4.24215c0,-2.34287 1.59128,-4.24215 3.55423,-4.24215c1.96295,0 3.55423,1.89927 3.55423,4.24215z" fill="#000000" stroke-linecap="butt"/><path d="M132.31756,189.37823c0,0 78.92544,-37.55986 84.72354,-40.35752c0.66637,-0.32154 0.87942,0.04981 0.87942,0.04981l1.22946,21.84333l-87.05554,44.34568z" fill="#7a3131" stroke-linecap="round"/><path d="M132.21239,190.16173c0,0 0.13244,-1.03674 0.70643,-0.95194c3.39347,0.50134 35.48414,6.29861 35.48414,6.29861l-0.89246,27.21999l-35.32111,-6.57721z" fill="#ba4a4a" stroke-linecap="round"/><path d="M218.51775,148.9775l22.48976,3.07447l-0.89246,27.21999l-21.82041,-5.30562z" fill="#7a3131" stroke-linecap="round"/><path d="M150.44713,191.7524l68.27653,-33.8064l16.47854,1.95478l-66.31726,35.53919z" fill="#532100" stroke-linecap="round"/><path d="M167.63633,196.36534l72.95641,-43.0178l-1.55971,26.50732l-71.61981,42.39179z" fill="#7a3131" stroke-linecap="round"/><path d="M-299.0156,105.52932l140.72095,-144.89412l399.66122,-7.86163l-297.56338,88.9246z" fill="#5e3f9d" stroke-linecap="round"/><path d="M766.46165,93.91905l-0.51819,-120.82023l217.52326,-0.52002v120.87187z" fill="#421b00" stroke-linecap="butt"/><path d="M327.7136,10.99254l10.1404,-11.70046l2.3401,5.46022l16.12064,-11.18044l2.6001,20.0208" fill="#2b5f00" stroke-linecap="round"/><path d="M399.77448,-14.0977l1.98848,-15.31132l12.3286,8.55047l1.78963,-4.17581l7.75509,8.94818" data-paper-data="{&quot;index&quot;:null}" fill="#2b5f00" stroke-linecap="round"/><path d="M617.11727,-10.10063l10.1404,-5.26653l2.3401,2.45772l16.12064,-5.03246l2.6001,9.01163" fill="#2b5f00" stroke-linecap="round"/><path d="M724.86957,-31.78615l2.6001,-12.0155l16.12064,6.70995l2.3401,-3.27695l10.1404,7.02204" data-paper-data="{&quot;index&quot;:null}" fill="#2b5f00" stroke-linecap="round"/><path d="M-133.11437,293.00737c0,0 101.85603,-42.92485 109.34088,-46.12675c0.86022,-0.368 1.10808,0.11332 1.10808,0.11332l0.30132,27.66431l-112.51536,51.0312z" data-paper-data="{&quot;index&quot;:null}" fill="#7a3131" stroke-linecap="round"/><path d="M-133.29211,293.99111c0,0 0.22672,-1.30208 0.94696,-1.16206c4.25811,0.8278 44.46482,9.99034 44.46482,9.99034l-2.68735,34.33484l-44.24289,-10.33294z" data-paper-data="{&quot;index&quot;:null}" fill="#ba4a4a" stroke-linecap="round"/><path d="M-21.90561,246.91066l28.23427,5.17271l-2.68735,34.33484l-27.26084,-7.95288z" data-paper-data="{&quot;index&quot;:null}" fill="#7a3131" stroke-linecap="round"/><path d="M-110.34802,297.04555l88.18856,-38.79352l20.70469,3.41376l-85.81279,41.09477z" data-paper-data="{&quot;index&quot;:null}" fill="#532100" stroke-linecap="round"/><path d="M-88.89792,303.85799l94.62837,-50.16174l-3.48942,33.39631l-92.90401,49.44752z" data-paper-data="{&quot;index&quot;:null}" fill="#7a3131" stroke-linecap="round"/><path d="M413.95535,208.56748l1.59931,-7.06837l0.36908,3.29858l2.54251,-6.75422l0.41008,12.09477" fill="#2b5f00" stroke-linecap="round"/><path d="M656.17787,373.79864l0.73248,-33.25061l4.54139,18.56851l0.65924,-9.06835l2.85668,19.43216" data-paper-data="{&quot;index&quot;:null}" fill="#2b5f00" stroke-linecap="round"/><path d="M0.58562,395.72519l4.23839,-16.49286l0.97809,7.69667l6.73795,-15.75984l1.08677,28.22114" data-paper-data="{&quot;index&quot;:null}" fill="#2b5f00" stroke-linecap="round"/><path d="M260.82561,178.00568l0.54936,-24.93795l3.40605,13.92638l0.49443,-6.80126l2.14251,14.57412" data-paper-data="{&quot;index&quot;:null}" fill="#2b5f00" stroke-linecap="round"/><path d="M188.87773,284.40166l35.34883,-19.06977h30.23256l-35.34884,19.06977z" fill="#313131" stroke-linecap="butt"/><path d="M222.71494,311.26213l35.34884,-19.06977h30.23256l-35.34884,19.06977z" fill="#313131" stroke-linecap="butt"/><path d="M310.28375,290.57405l35.34884,-19.06977h30.23256l-35.34884,19.06977z" fill="#313131" stroke-linecap="butt"/><path d="M338.63237,311.58323l35.34884,-19.06977h30.23256l-35.34884,19.06977z" fill="#313131" stroke-linecap="butt"/><path d="M423.44889,291.81259l35.34884,-19.06977h30.23256l-35.34884,19.06977z" fill="#313131" stroke-linecap="butt"/><path d="M470.49093,317.8336l35.34884,-19.06977h30.23256l-35.34884,19.06977z" fill="#313131" stroke-linecap="butt"/><path d="M576.09153,292.80358l35.34884,-19.06977h30.23256l-35.34884,19.06977z" fill="#313131" stroke-linecap="butt"/><path d="M629.13958,317.3231l35.34884,-19.06977h30.23256l-35.34884,19.06977z" fill="#313131" stroke-linecap="butt"/><path d="M93.59904,296.79757l35.34883,-19.06977h30.23256l-35.34884,19.06977z" fill="#313131" stroke-linecap="butt"/><path d="M451.94969,155.98767l0.54936,-12.26284l3.40605,6.84807l0.49442,-3.34441l2.14251,7.16658" data-paper-data="{&quot;index&quot;:null}" fill="#2b5f00" stroke-linecap="round"/><path d="M499.31127,126.03951l3.22656,-7.16659l0.74459,3.34441l5.12942,-6.84808l0.82732,12.26284" data-paper-data="{&quot;index&quot;:null}" fill="#2b5f00" stroke-linecap="round"/><path d="M714.81437,125.38027l3.22657,-4.43959l0.74459,2.07181l5.12942,-4.24228l0.82732,7.59665" data-paper-data="{&quot;index&quot;:null}" fill="#2b5f00" stroke-linecap="round"/><path d="M763.32793,96.3974l4.61856,-17.79377l2.89063,11.09655l1.76728,-4.74519l0.93021,11.16849" data-paper-data="{&quot;index&quot;:null}" fill="#2b5f00" stroke-linecap="round"/><path d="M164.64017,225.87992l0.54936,-10.77112l3.40605,6.01504l0.49443,-2.93758l2.14251,6.2948" data-paper-data="{&quot;index&quot;:null}" fill="#2b5f00" stroke-linecap="round"/><path d="M-96.83436,339.1691l4.20643,-10.00616l0.97071,4.66954l6.68717,-9.56144l1.07857,17.12167" data-paper-data="{&quot;index&quot;:null}" fill="#2b5f00" stroke-linecap="round"/></g></g></svg>