<svg version="1.1" xmlns="http://www.w3.org/2000/svg" xmlns:xlink="http://www.w3.org/1999/xlink" width="543.68151" height="169.66646" viewBox="0,0,543.68151,169.66646"><g transform="translate(-102.44923,-18.2273)"><g data-paper-data="{&quot;isPaintingLayer&quot;:true}" fill="none" fill-rule="nonzero" stroke="#ff0000" stroke-linejoin="miter" stroke-miterlimit="10" stroke-dasharray="" stroke-dashoffset="0" style="mix-blend-mode: normal"><path d="" stroke-width="0.5" stroke-linecap="butt"/><path d="" stroke-width="0.5" stroke-linecap="butt"/><path d="" stroke-width="2" stroke-linecap="butt"/><path d="M200.27921,186.89376l-95.13248,-81.77147h443.15403l95.13248,81.77147z" stroke-width="2" stroke-linecap="butt"/><path d="M126.9941,116.69243v-37.67993c0,0 0.23794,-0.25118 1.24929,0.62068c4.37601,3.77242 35.5839,31.13208 35.5839,31.13208v37.67993z" stroke-width="2" stroke-linecap="butt"/><path d="M164.67404,148.44518v-37.67993h150.29636v37.67993z" stroke-width="2" stroke-linecap="butt"/><path d="M412.49428,105.72404v-87.41259c0,0 -0.00862,-0.10207 0.60265,0.40733c2.19741,1.83118 15.71436,13.19019 15.71436,13.19019c0,0 0.762,79.58512 0.762,86.53348c0,0.96112 -0.762,0.8791 -0.762,0.8791z" stroke-width="2" stroke-linecap="butt"/><path d="M429.1998,119.32155v-86.6765h80.80808c0,0 0.34758,-0.70131 0.34758,0.47598c0,7.58291 -0.34758,86.20052 -0.34758,86.20052z" stroke-width="2" stroke-linecap="butt"/><path d="M335.37764,36.27599l-9.02935,-6.20767h74.20993l9.02935,6.20767z" stroke-width="2" stroke-linecap="butt"/><path d="M337.27383,78.80421l-9.02935,-6.20767h74.20994l9.02934,6.20767z" stroke-width="2" stroke-linecap="butt"/><path d="M545.15647,94.68684l-0.72307,18.07665c0,0 -3.34389,3.15228 -14.10112,2.94846c-7.74087,-0.14666 -13.49589,-3.18948 -13.49589,-3.18948l0.60255,-18.31767z" stroke-width="2" stroke-linecap="round"/><path d="M418.19014,111.21764l-75.59558,0.29057l-13.00191,-6.83482" stroke-width="2" stroke-linecap="round"/><path d="M595.4971,146.30819l1.24611,39.56386" stroke-width="2" stroke-linecap="round"/></g></g></svg>